<svg width="141" height="122" viewBox="0 0 141 122" fill="none" xmlns="http://www.w3.org/2000/svg">
<g clip-path="url(#clip0)">
<path d="M117.397 29.17H116.731V10.9201C116.731 8.11865 115.618 5.43193 113.637 3.45099C111.656 1.47006 108.969 0.35718 106.168 0.357178H67.5019C66.1148 0.357178 64.7412 0.630396 63.4596 1.16123C62.1781 1.69207 61.0136 2.47013 60.0328 3.45099C59.0519 4.43185 58.2739 5.5963 57.743 6.87785C57.2122 8.15941 56.939 9.53297 56.939 10.9201V111.042C56.939 113.843 58.0518 116.53 60.0328 118.511C62.0137 120.492 64.7004 121.605 67.5019 121.605H106.168C108.969 121.605 111.656 120.492 113.637 118.511C115.618 116.53 116.731 113.843 116.731 111.042V42.1606H117.397L117.397 29.17Z" fill="#E6E6E6"/>
<path d="M106.594 3.10382H101.547C101.779 3.6729 101.868 4.29034 101.805 4.90173C101.743 5.51311 101.53 6.09969 101.188 6.60978C100.845 7.11987 100.382 7.53781 99.8393 7.82678C99.2969 8.11575 98.6917 8.26688 98.0771 8.26685H75.9258C75.3112 8.26682 74.7061 8.11565 74.1637 7.82666C73.6213 7.53767 73.1583 7.11972 72.8155 6.60964C72.4727 6.09957 72.2606 5.51301 72.1979 4.90165C72.1351 4.29028 72.2237 3.67288 72.4558 3.10382H67.7418C65.6497 3.10382 63.6433 3.93491 62.1639 5.41425C60.6846 6.89359 59.8535 8.90001 59.8535 10.9921V110.969C59.8535 113.061 60.6846 115.067 62.1639 116.546C63.6433 118.026 65.6497 118.857 67.7418 118.857H106.594C108.686 118.857 110.693 118.026 112.172 116.546C113.651 115.067 114.482 113.061 114.482 110.969V10.992C114.482 8.89988 113.651 6.8935 112.172 5.41419C110.693 3.93488 108.686 3.10382 106.594 3.10382Z" fill="white"/>
<path d="M75.4156 26.4247C75.2051 26.4265 74.9965 26.3841 74.8035 26.3C74.6104 26.216 74.4372 26.0923 74.2952 25.9369C74.1266 25.7419 74.0001 25.5141 73.9238 25.2678C73.8475 25.0216 73.823 24.7622 73.8518 24.506C73.8919 24.018 74.0964 23.5581 74.4319 23.2015C74.593 23.0273 74.788 22.8879 75.0049 22.7918C75.2218 22.6957 75.4561 22.6449 75.6933 22.6426C75.9139 22.6416 76.1323 22.6871 76.3341 22.7761C76.536 22.865 76.7169 22.9955 76.865 23.159C77.033 23.3489 77.1599 23.5715 77.2376 23.8129C77.3152 24.0542 77.342 24.3091 77.3162 24.5613C77.2849 25.079 77.0616 25.5664 76.69 25.9281C76.3441 26.2502 75.8882 26.4278 75.4156 26.4247ZM75.6933 23.2729C75.0764 23.2729 74.5433 23.8388 74.4797 24.5613C74.4587 24.7304 74.4727 24.902 74.5209 25.0654C74.5692 25.2288 74.6506 25.3806 74.76 25.5112C74.8429 25.6023 74.9442 25.6747 75.0572 25.7235C75.1703 25.7724 75.2925 25.7965 75.4156 25.7943C75.9925 25.7943 76.6098 25.3959 76.6883 24.5059C76.7065 24.3408 76.6902 24.1737 76.6406 24.0151C76.591 23.8566 76.5091 23.71 76.4001 23.5847C76.3108 23.486 76.2017 23.4073 76.0799 23.3536C75.9581 23.2999 75.8264 23.2724 75.6933 23.2729Z" fill="#3F3D56"/>
<path d="M75.4363 28.3155C74.9487 28.3234 74.465 28.2276 74.0173 28.0343C73.5696 27.8411 73.1681 27.5548 72.8394 27.1946C72.5107 26.8343 72.2625 26.4083 72.111 25.9447C71.9595 25.4812 71.9084 24.9907 71.9609 24.5059C72.0642 23.4883 72.5373 22.544 73.2905 21.8519C74.0437 21.1599 75.0247 20.7683 76.0474 20.7513C77.1821 20.7513 78.1157 21.1159 78.7474 21.8057C79.3463 22.4597 79.6268 23.3804 79.5371 24.3982C79.4522 25.3623 79.0431 25.8645 78.7149 26.1159C78.57 26.2341 78.4026 26.3216 78.2229 26.3731C78.0431 26.4246 77.8548 26.4391 77.6693 26.4157C77.1504 26.3237 76.5766 25.8524 76.6669 24.8269L76.8339 22.9309C76.8417 22.8479 76.8819 22.7714 76.9459 22.718C77.0099 22.6647 77.0924 22.6388 77.1754 22.6462C77.2584 22.6535 77.3351 22.6933 77.3888 22.7571C77.4425 22.8208 77.4688 22.9032 77.4619 22.9862L77.2948 24.8822C77.2499 25.392 77.4311 25.7333 77.7793 25.795C77.9799 25.8106 78.1784 25.7461 78.3316 25.6156C78.5593 25.4411 78.8444 25.0786 78.9092 24.3429C78.9842 23.4912 78.7675 22.761 78.2825 22.2314C77.7735 21.6755 77.0005 21.3817 76.0473 21.3817C75.1822 21.3981 74.3528 21.7304 73.7158 22.3161C73.0787 22.9017 72.6779 23.7002 72.5889 24.5609C72.544 24.9586 72.5845 25.3614 72.7079 25.7421C72.8313 26.1229 73.0345 26.4729 73.3041 26.7687C73.5738 27.0645 73.9035 27.2993 74.2712 27.4574C74.6389 27.6154 75.0361 27.6931 75.4363 27.6851C75.93 27.7118 76.423 27.6224 76.8759 27.4241C76.9529 27.3921 77.0394 27.392 77.1165 27.4237C77.1936 27.4553 77.2551 27.5163 77.2874 27.5931C77.3197 27.67 77.3202 27.7565 77.2888 27.8337C77.2575 27.911 77.1968 27.9726 77.1201 28.0053C76.5899 28.236 76.0139 28.3422 75.4363 28.3155Z" fill="#3F3D56"/>
<path d="M72.1084 73.3647C72.046 73.3647 71.9851 73.3462 71.9333 73.3115C71.8814 73.2769 71.8411 73.2277 71.8172 73.1701C71.7934 73.1125 71.7871 73.0491 71.7993 72.988C71.8114 72.9269 71.8414 72.8707 71.8855 72.8266L73.9341 70.778C73.9934 70.7196 74.0733 70.687 74.1565 70.6873C74.2397 70.6876 74.3194 70.7208 74.3782 70.7796C74.4371 70.8384 74.4702 70.9181 74.4705 71.0013C74.4709 71.0845 74.4383 71.1645 74.3799 71.2237L72.3312 73.2723C72.302 73.3017 72.2673 73.3249 72.229 73.3407C72.1908 73.3566 72.1498 73.3647 72.1084 73.3647ZM77.3087 72.5767C77.2464 72.5767 77.1855 72.5582 77.1336 72.5236C77.0818 72.489 77.0414 72.4397 77.0176 72.3822C76.9937 72.3246 76.9875 72.2612 76.9996 72.2001C77.0118 72.1389 77.0418 72.0828 77.0859 72.0387L78.8193 70.3052C78.8786 70.2468 78.9585 70.2142 79.0417 70.2145C79.1249 70.2148 79.2046 70.248 79.2634 70.3069C79.3223 70.3657 79.3555 70.4454 79.3558 70.5286C79.3561 70.6118 79.3235 70.6917 79.2651 70.7509L77.5316 72.4844C77.5024 72.5137 77.4676 72.537 77.4294 72.5528C77.3911 72.5687 77.3501 72.5768 77.3087 72.5767ZM76.3632 72.5767C76.3218 72.5768 76.2808 72.5687 76.2426 72.5528C76.2043 72.537 76.1696 72.5137 76.1404 72.4844L74.8797 71.2237C74.8501 71.1945 74.8265 71.1598 74.8104 71.1214C74.7943 71.0831 74.7859 71.042 74.7858 71.0004C74.7856 70.9588 74.7937 70.9176 74.8096 70.8792C74.8254 70.8407 74.8487 70.8058 74.8781 70.7764C74.9075 70.747 74.9424 70.7237 74.9809 70.7079C75.0193 70.692 75.0605 70.684 75.1021 70.6841C75.1436 70.6843 75.1848 70.6926 75.2231 70.7087C75.2614 70.7249 75.2962 70.7484 75.3254 70.778L76.5861 72.0387C76.6302 72.0828 76.6602 72.1389 76.6723 72.2001C76.6845 72.2612 76.6782 72.3246 76.6544 72.3822C76.6305 72.4397 76.5901 72.489 76.5383 72.5236C76.4865 72.5582 76.4256 72.5767 76.3632 72.5767Z" fill="#3F3D56"/>
<path d="M79.515 70.8438C79.3591 70.8438 79.2068 70.7976 79.0772 70.711C78.9477 70.6244 78.8467 70.5014 78.787 70.3574C78.7274 70.2134 78.7118 70.055 78.7422 69.9022C78.7726 69.7493 78.8476 69.6089 78.9578 69.4987C79.068 69.3885 79.2084 69.3135 79.3613 69.2831C79.5141 69.2527 79.6725 69.2683 79.8165 69.3279C79.9605 69.3876 80.0835 69.4885 80.1701 69.6181C80.2567 69.7477 80.3029 69.9 80.3029 70.0559C80.3027 70.2648 80.2196 70.4651 80.0719 70.6128C79.9242 70.7605 79.7239 70.8436 79.515 70.8438ZM79.515 69.8983C79.4838 69.8983 79.4533 69.9075 79.4274 69.9249C79.4015 69.9422 79.3813 69.9668 79.3694 69.9956C79.3575 70.0244 79.3543 70.0561 79.3604 70.0866C79.3665 70.1172 79.3815 70.1453 79.4035 70.1673C79.4256 70.1894 79.4537 70.2044 79.4842 70.2104C79.5148 70.2165 79.5465 70.2134 79.5753 70.2015C79.6041 70.1895 79.6287 70.1693 79.646 70.1434C79.6633 70.1175 79.6726 70.0871 79.6726 70.0559C79.6725 70.0141 79.6559 69.974 79.6264 69.9445C79.5968 69.915 79.5568 69.8983 79.515 69.8983Z" fill="#3F3D56"/>
<path d="M76.836 73.522C76.6802 73.522 76.5278 73.4758 76.3983 73.3892C76.2687 73.3026 76.1677 73.1796 76.1081 73.0356C76.0484 72.8916 76.0328 72.7332 76.0632 72.5803C76.0936 72.4275 76.1687 72.2871 76.2789 72.1769C76.3891 72.0667 76.5295 71.9916 76.6823 71.9612C76.8351 71.9308 76.9936 71.9464 77.1375 72.0061C77.2815 72.0657 77.4046 72.1667 77.4911 72.2963C77.5777 72.4259 77.6239 72.5782 77.6239 72.7341C77.6237 72.943 77.5406 73.1432 77.3929 73.291C77.2452 73.4387 77.0449 73.5218 76.836 73.522ZM76.836 72.5765C76.8048 72.5765 76.7744 72.5857 76.7485 72.603C76.7225 72.6203 76.7023 72.6449 76.6904 72.6737C76.6785 72.7025 76.6754 72.7342 76.6815 72.7648C76.6875 72.7954 76.7025 72.8234 76.7246 72.8455C76.7466 72.8675 76.7747 72.8825 76.8053 72.8886C76.8358 72.8947 76.8675 72.8916 76.8963 72.8797C76.9251 72.8677 76.9497 72.8475 76.967 72.8216C76.9844 72.7957 76.9936 72.7652 76.9936 72.7341C76.9936 72.6923 76.9769 72.6522 76.9474 72.6227C76.9178 72.5931 76.8778 72.5765 76.836 72.5765Z" fill="#3F3D56"/>
<path d="M74.6297 71.3158C74.4739 71.3158 74.3216 71.2696 74.192 71.183C74.0624 71.0964 73.9614 70.9733 73.9018 70.8294C73.8421 70.6854 73.8265 70.527 73.8569 70.3741C73.8873 70.2213 73.9624 70.0809 74.0726 69.9707C74.1828 69.8605 74.3232 69.7855 74.476 69.7551C74.6289 69.7247 74.7873 69.7403 74.9313 69.7999C75.0752 69.8595 75.1983 69.9605 75.2849 70.0901C75.3715 70.2197 75.4177 70.372 75.4177 70.5278C75.4174 70.7367 75.3343 70.937 75.1866 71.0847C75.0389 71.2324 74.8386 71.3155 74.6297 71.3158ZM74.6297 70.3703C74.5986 70.3703 74.5681 70.3795 74.5422 70.3968C74.5163 70.4141 74.4961 70.4387 74.4841 70.4675C74.4722 70.4963 74.4691 70.528 74.4752 70.5586C74.4813 70.5892 74.4963 70.6172 74.5183 70.6393C74.5403 70.6613 74.5684 70.6763 74.599 70.6824C74.6296 70.6885 74.6612 70.6854 74.69 70.6734C74.7188 70.6615 74.7434 70.6413 74.7608 70.6154C74.7781 70.5895 74.7873 70.559 74.7873 70.5278C74.7873 70.4861 74.7707 70.446 74.7411 70.4165C74.7116 70.3869 74.6715 70.3703 74.6297 70.3703Z" fill="#3F3D56"/>
<path d="M71.6356 74.3096C71.4798 74.3096 71.3274 74.2634 71.1978 74.1768C71.0683 74.0903 70.9673 73.9672 70.9076 73.8232C70.848 73.6793 70.8324 73.5208 70.8628 73.368C70.8932 73.2151 70.9682 73.0747 71.0784 72.9645C71.1886 72.8543 71.329 72.7793 71.4819 72.7489C71.6347 72.7185 71.7932 72.7341 71.9371 72.7937C72.0811 72.8534 72.2042 72.9544 72.2908 73.0839C72.3773 73.2135 72.4235 73.3659 72.4235 73.5217C72.4233 73.7306 72.3402 73.9309 72.1925 74.0786C72.0448 74.2263 71.8445 74.3094 71.6356 74.3096ZM71.6356 73.3641C71.6044 73.3641 71.574 73.3733 71.548 73.3907C71.5221 73.408 71.5019 73.4326 71.49 73.4614C71.4781 73.4902 71.475 73.5219 71.481 73.5524C71.4871 73.583 71.5021 73.6111 71.5242 73.6331C71.5462 73.6552 71.5743 73.6702 71.6049 73.6763C71.6354 73.6823 71.6671 73.6792 71.6959 73.6673C71.7247 73.6554 71.7493 73.6352 71.7666 73.6092C71.784 73.5833 71.7932 73.5529 71.7932 73.5217C71.7931 73.4799 71.7765 73.4399 71.747 73.4103C71.7174 73.3808 71.6774 73.3642 71.6356 73.3641Z" fill="#3F3D56"/>
<path d="M101.547 98.6163H94.9281C94.6356 98.616 94.3552 98.4997 94.1484 98.2929C93.9416 98.0861 93.8253 97.8057 93.825 97.5132V92.7856C93.8253 92.4931 93.9416 92.2128 94.1484 92.006C94.3552 91.7992 94.6356 91.6828 94.9281 91.6825H101.547C101.839 91.6828 102.12 91.7992 102.326 92.006C102.533 92.2128 102.649 92.4931 102.65 92.7856V97.5132C102.649 97.8057 102.533 98.0861 102.326 98.2929C102.12 98.4997 101.839 98.616 101.547 98.6163ZM94.9281 92.3128C94.8027 92.313 94.6825 92.3628 94.5939 92.4515C94.5053 92.5401 94.4554 92.6603 94.4553 92.7856V97.5132C94.4554 97.6386 94.5053 97.7587 94.5939 97.8474C94.6825 97.936 94.8027 97.9858 94.9281 97.986H101.547C101.672 97.9858 101.792 97.936 101.881 97.8474C101.969 97.7587 102.019 97.6386 102.019 97.5132V92.7856C102.019 92.6603 101.969 92.5401 101.881 92.4515C101.792 92.3628 101.672 92.313 101.547 92.3128L94.9281 92.3128Z" fill="#3F3D56"/>
<path d="M98.2377 95.7786C98.1676 95.7787 98.0995 95.7553 98.0442 95.7122L95.2076 93.506C95.1749 93.4806 95.1476 93.449 95.1271 93.413C95.1067 93.3771 95.0935 93.3374 95.0884 93.2963C95.0832 93.2553 95.0862 93.2136 95.0972 93.1737C95.1082 93.1338 95.1269 93.0964 95.1523 93.0638C95.1777 93.0311 95.2093 93.0037 95.2453 92.9833C95.2813 92.9628 95.3209 92.9496 95.362 92.9445C95.4031 92.9394 95.4448 92.9424 95.4847 92.9534C95.5246 92.9643 95.5619 92.9831 95.5946 93.0085L98.2377 95.0642L100.881 93.0085C100.913 92.9831 100.951 92.9643 100.991 92.9534C101.031 92.9424 101.072 92.9394 101.113 92.9445C101.154 92.9496 101.194 92.9628 101.23 92.9833C101.266 93.0037 101.298 93.0311 101.323 93.0638C101.348 93.0964 101.367 93.1338 101.378 93.1737C101.389 93.2136 101.392 93.2553 101.387 93.2963C101.382 93.3374 101.369 93.3771 101.348 93.413C101.328 93.449 101.3 93.4806 101.268 93.506L98.4312 95.7122C98.3759 95.7553 98.3078 95.7787 98.2377 95.7786Z" fill="#3F3D56"/>
<path d="M133.787 102.979L97.3284 102.993C97.2821 102.993 97.2378 102.975 97.2051 102.942C97.1724 102.91 97.1541 102.865 97.1541 102.819C97.1541 102.773 97.1724 102.728 97.2051 102.696C97.2378 102.663 97.2821 102.645 97.3284 102.645L133.787 102.63C133.833 102.63 133.877 102.649 133.91 102.681C133.943 102.714 133.961 102.758 133.961 102.805C133.961 102.851 133.943 102.895 133.91 102.928C133.877 102.961 133.833 102.979 133.787 102.979Z" fill="#73899D"/>
<path d="M133.301 105.245C134.649 105.245 135.742 104.152 135.742 102.804C135.742 101.456 134.649 100.364 133.301 100.364C131.953 100.364 130.861 101.456 130.861 102.804C130.861 104.152 131.953 105.245 133.301 105.245Z" fill="#007BFE"/>
<path d="M132.915 56.2597L96.1079 56.2741C96.0617 56.2741 96.0173 56.2557 95.9846 56.2231C95.952 56.1904 95.9336 56.146 95.9336 56.0998C95.9336 56.0536 95.952 56.0092 95.9846 55.9765C96.0173 55.9438 96.0617 55.9255 96.1079 55.9255L132.915 55.911C132.961 55.911 133.006 55.9294 133.038 55.9621C133.071 55.9948 133.089 56.0391 133.089 56.0853C133.089 56.1316 133.071 56.1759 133.038 56.2086C133.006 56.2413 132.961 56.2597 132.915 56.2597Z" fill="#73899D"/>
<path d="M133.301 58.7014C134.649 58.7014 135.742 57.6087 135.742 56.2608C135.742 54.913 134.649 53.8203 133.301 53.8203C131.953 53.8203 130.861 54.913 130.861 56.2608C130.861 57.6087 131.953 58.7014 133.301 58.7014Z" fill="#007BFE"/>
<path d="M38.6809 32.3762L75.4879 32.3907C75.5342 32.3907 75.5785 32.3723 75.6112 32.3396C75.6439 32.3069 75.6623 32.2626 75.6623 32.2164C75.6623 32.1701 75.6439 32.1258 75.6112 32.0931C75.5785 32.0604 75.5342 32.042 75.4879 32.042L38.6809 32.0276C38.6347 32.0276 38.5903 32.046 38.5576 32.0786C38.525 32.1113 38.5066 32.1557 38.5066 32.2019C38.5066 32.2481 38.525 32.2925 38.5576 32.3252C38.5903 32.3579 38.6347 32.3762 38.6809 32.3762Z" fill="#73899D"/>
<path d="M38.2945 34.8171C39.6424 34.8171 40.7351 33.7245 40.7351 32.3766C40.7351 31.0287 39.6424 29.936 38.2945 29.936C36.9467 29.936 35.854 31.0287 35.854 32.3766C35.854 33.7245 36.9467 34.8171 38.2945 34.8171Z" fill="#007BFE"/>
<path d="M38.6809 79.6188L75.4879 79.6333C75.5342 79.6333 75.5785 79.6149 75.6112 79.5822C75.6439 79.5496 75.6623 79.5052 75.6623 79.459C75.6623 79.4127 75.6439 79.3684 75.6112 79.3357C75.5785 79.303 75.5342 79.2847 75.4879 79.2847L38.6809 79.2702C38.6347 79.2702 38.5903 79.2886 38.5576 79.3213C38.525 79.354 38.5066 79.3983 38.5066 79.4445C38.5066 79.4908 38.525 79.5351 38.5576 79.5678C38.5903 79.6005 38.6347 79.6188 38.6809 79.6188Z" fill="#73899D"/>
<path d="M38.2945 82.0597C39.6424 82.0597 40.7351 80.9671 40.7351 79.6192C40.7351 78.2713 39.6424 77.1786 38.2945 77.1786C36.9467 77.1786 35.854 78.2713 35.854 79.6192C35.854 80.9671 36.9467 82.0597 38.2945 82.0597Z" fill="#007BFE"/>
<path d="M98.2374 102.993C96.6859 102.993 95.1692 102.533 93.8792 101.671C92.5891 100.809 91.5837 99.5835 90.99 98.1501C90.3962 96.7167 90.2409 95.1394 90.5436 93.6177C90.8462 92.096 91.5934 90.6982 92.6904 89.6012C93.7875 88.5041 95.1853 87.7569 96.707 87.4543C98.2287 87.1516 99.806 87.3069 101.239 87.9007C102.673 88.4944 103.898 89.4999 104.76 90.7899C105.622 92.0799 106.082 93.5966 106.082 95.1481C106.08 97.2279 105.252 99.2218 103.782 100.692C102.311 102.163 100.317 102.99 98.2374 102.993ZM98.2374 87.6522C96.7548 87.6522 95.3056 88.0918 94.0729 88.9155C92.8402 89.7391 91.8794 90.9098 91.3121 92.2795C90.7447 93.6492 90.5963 95.1564 90.8855 96.6105C91.1747 98.0646 91.8887 99.4002 92.937 100.449C93.9853 101.497 95.3209 102.211 96.775 102.5C98.2291 102.789 99.7362 102.641 101.106 102.073C102.476 101.506 103.646 100.545 104.47 99.3126C105.294 98.0799 105.733 96.6307 105.733 95.1481C105.731 93.1608 104.941 91.2554 103.535 89.8502C102.13 88.4449 100.225 87.6544 98.2374 87.6522Z" fill="#73899D"/>
<path d="M75.5753 79.6326C74.0238 79.6326 72.5071 79.1725 71.2171 78.3106C69.927 77.4486 68.9216 76.2234 68.3278 74.79C67.7341 73.3566 67.5788 71.7793 67.8814 70.2576C68.1841 68.7359 68.9313 67.3381 70.0283 66.241C71.1254 65.144 72.5232 64.3968 74.0449 64.0942C75.5666 63.7915 77.1439 63.9468 78.5773 64.5406C80.0107 65.1343 81.2359 66.1398 82.0978 67.4298C82.9598 68.7198 83.4199 70.2365 83.4199 71.788C83.4175 73.8678 82.5903 75.8617 81.1196 77.3324C79.649 78.803 77.6551 79.6302 75.5753 79.6326ZM75.5753 64.2921C74.0927 64.2921 72.6435 64.7317 71.4108 65.5554C70.1781 66.379 69.2173 67.5497 68.65 68.9194C68.0826 70.2891 67.9342 71.7963 68.2234 73.2504C68.5126 74.7045 69.2265 76.0401 70.2749 77.0884C71.3232 78.1368 72.6588 78.8507 74.1129 79.1399C75.567 79.4292 77.0742 79.2807 78.4439 78.7134C79.8136 78.146 80.9843 77.1852 81.8079 75.9525C82.6316 74.7198 83.0712 73.2706 83.0712 71.788C83.069 69.8007 82.2785 67.8953 80.8732 66.4901C79.468 65.0848 77.5627 64.2943 75.5753 64.2921Z" fill="#73899D"/>
<path d="M96.6686 56.2743C95.1171 56.2743 93.6004 55.8142 92.3103 54.9522C91.0203 54.0903 90.0148 52.8651 89.4211 51.4317C88.8274 49.9983 88.672 48.421 88.9747 46.8993C89.2774 45.3776 90.0245 43.9799 91.1216 42.8828C92.2187 41.7857 93.6165 41.0386 95.1382 40.7359C96.6599 40.4332 98.2371 40.5885 99.6706 41.1823C101.104 41.776 102.329 42.7815 103.191 44.0715C104.053 45.3615 104.513 46.8782 104.513 48.4297C104.511 50.5095 103.684 52.5034 102.213 53.9741C100.742 55.4447 98.7484 56.2719 96.6686 56.2743ZM96.6686 40.9338C95.186 40.9338 93.7367 41.3734 92.504 42.1971C91.2713 43.0207 90.3106 44.1914 89.7432 45.5612C89.1759 46.9309 89.0274 48.438 89.3167 49.8921C89.6059 51.3462 90.3198 52.6818 91.3681 53.7301C92.4165 54.7785 93.7521 55.4924 95.2062 55.7816C96.6603 56.0708 98.1674 55.9224 99.5371 55.3551C100.907 54.7877 102.078 53.8269 102.901 52.5942C103.725 51.3615 104.165 49.9123 104.165 48.4297C104.162 46.4424 103.372 44.5371 101.967 43.1318C100.561 41.7265 98.6559 40.936 96.6686 40.9338Z" fill="#73899D"/>
<path d="M75.7498 32.3774C74.1983 32.3774 72.6817 31.9173 71.3916 31.0553C70.1016 30.1934 69.0961 28.9682 68.5024 27.5348C67.9087 26.1014 67.7533 24.5241 68.056 23.0024C68.3587 21.4807 69.1058 20.0829 70.2029 18.9859C71.3 17.8888 72.6978 17.1417 74.2194 16.839C75.7411 16.5363 77.3184 16.6916 78.7518 17.2854C80.1852 17.8791 81.4104 18.8846 82.2724 20.1746C83.1343 21.4646 83.5944 22.9813 83.5944 24.5328C83.5921 26.6126 82.7648 28.6065 81.2942 30.0772C79.8236 31.5478 77.8296 32.375 75.7498 32.3774ZM75.7498 17.0369C74.2673 17.0369 72.818 17.4765 71.5853 18.3002C70.3526 19.1238 69.3919 20.2945 68.8245 21.6642C68.2572 23.0339 68.1087 24.5411 68.398 25.9952C68.6872 27.4493 69.4011 28.7849 70.4494 29.8332C71.4978 30.8816 72.8334 31.5955 74.2875 31.8847C75.7415 32.1739 77.2487 32.0255 78.6184 31.4581C79.9881 30.8908 81.1588 29.93 81.9825 28.6973C82.8062 27.4646 83.2458 26.0154 83.2458 24.5328C83.2435 22.5455 82.4531 20.6401 81.0478 19.2349C79.6425 17.8296 77.7372 17.0391 75.7498 17.0369Z" fill="#73899D"/>
<path d="M26.5194 85.5284C26.3049 85.3649 26.1273 85.1581 25.9981 84.9214C25.8689 84.6847 25.791 84.4234 25.7694 84.1546C25.7647 84.092 25.7632 84.0291 25.765 83.9663L17.6471 78.4991C17.3814 78.3184 17.1812 78.0566 17.0764 77.7528C16.9716 77.4491 16.9677 77.1196 17.0654 76.8134L20.9453 67.174C21.1123 66.7591 21.4369 66.4272 21.848 66.2511C22.2591 66.0749 22.7233 66.0689 23.1389 66.2342C23.5545 66.3996 23.8876 66.7228 24.0653 67.1333C24.2431 67.5437 24.251 68.0079 24.0872 68.4241L20.9547 76.389L27.2759 82.1305C27.3593 82.1115 27.4439 82.0984 27.5292 82.0913C28.0174 82.0525 28.5019 82.2019 28.8835 82.509C29.265 82.816 29.5146 83.2574 29.5812 83.7426C29.6477 84.2278 29.526 84.72 29.2412 85.1184C28.9564 85.5168 28.5299 85.7911 28.0493 85.8851C27.9259 85.9088 27.8006 85.9209 27.675 85.921C27.2571 85.9212 26.8507 85.7832 26.5194 85.5284Z" fill="#A0616A"/>
<path d="M17.6505 72.8504C17.603 72.7395 17.58 72.6196 17.583 72.499C17.5861 72.3783 17.6151 72.2598 17.6682 72.1514L19.5203 68.3658C19.7072 67.7774 20.1198 67.2871 20.6676 67.0025C21.2154 66.7178 21.8537 66.662 22.4426 66.8472C23.0316 67.0325 23.523 67.4437 23.8092 67.9907C24.0954 68.5377 24.153 69.1759 23.9693 69.7653L23.2931 73.939C23.2738 74.0581 23.2291 74.1716 23.1619 74.2719C23.0948 74.3721 23.0068 74.4568 22.904 74.5199C22.8012 74.5831 22.686 74.6234 22.5663 74.6381C22.4465 74.6527 22.325 74.6414 22.21 74.6049L18.1682 73.3205C18.0532 73.284 17.9474 73.2231 17.858 73.142C17.7687 73.0608 17.6979 72.9614 17.6505 72.8504Z" fill="#007BFE"/>
<path d="M30.4249 119.586H32.5621L33.5788 111.342L30.4246 111.342L30.4249 119.586Z" fill="#A0616A"/>
<path d="M29.8799 118.888L34.0887 118.888H34.0889C34.4411 118.888 34.7899 118.958 35.1153 119.092C35.4408 119.227 35.7365 119.425 35.9855 119.674C36.2346 119.923 36.4322 120.219 36.567 120.544C36.7018 120.869 36.7711 121.218 36.7711 121.57V121.658L29.88 121.658L29.8799 118.888Z" fill="#212734"/>
<path d="M9.52686 118.071L11.5968 118.603L14.6335 110.872L11.5785 110.087L9.52686 118.071Z" fill="#A0616A"/>
<path d="M9.17219 117.26L13.2486 118.308L13.2488 118.308C13.5899 118.396 13.9104 118.55 14.1921 118.761C14.4737 118.973 14.7109 119.238 14.8901 119.541C15.0694 119.844 15.1871 120.18 15.2366 120.529C15.2862 120.877 15.2666 121.232 15.1789 121.574L15.1572 121.658L8.48291 119.943L9.17219 117.26Z" fill="#212734"/>
<path d="M24.5167 63.0341C26.8813 63.0341 28.7983 61.1171 28.7983 58.7525C28.7983 56.3878 26.8813 54.4709 24.5167 54.4709C22.152 54.4709 20.2351 56.3878 20.2351 58.7525C20.2351 61.1171 22.152 63.0341 24.5167 63.0341Z" fill="#A0616A"/>
<path d="M22.3513 76.5604C21.3326 75.512 20.4677 74.3244 19.7824 73.0331C19.418 72.3252 19.2058 71.5487 19.1595 70.7538C19.1133 69.9589 19.234 69.1631 19.5139 68.4176C19.7998 67.6556 20.242 66.9618 20.8122 66.381C21.3824 65.8002 22.0678 65.3452 22.8245 65.0454C24.1514 64.5069 25.6319 64.4846 26.9744 64.9829C28.3169 65.4813 29.4243 66.4641 30.0785 67.738C31.1499 69.8347 31.5697 71.8845 31.3264 73.831C30.8613 77.5521 30.589 79.4754 30.5171 79.5473L30.4932 79.5713L22.5284 79.9252L22.3513 76.5604Z" fill="#007BFE"/>
<path d="M22.824 78.8958L29.9516 78.541C30.1316 78.5321 30.308 78.5931 30.444 78.7114C30.5799 78.8297 30.6648 78.996 30.6808 79.1755L33.9596 115.929C33.9683 116.026 33.9563 116.125 33.9244 116.217C33.8926 116.31 33.8415 116.395 33.7745 116.467C33.7076 116.538 33.6263 116.595 33.536 116.633C33.4456 116.671 33.3483 116.69 33.2502 116.688L30.4656 116.628C30.3125 116.625 30.1647 116.572 30.045 116.476C29.9254 116.38 29.8406 116.248 29.8037 116.099L24.484 94.6639C24.4492 94.5237 24.3717 94.3977 24.2622 94.3035C24.1527 94.2092 24.0166 94.1513 23.8727 94.1377C23.7289 94.1241 23.5844 94.1555 23.4592 94.2277C23.334 94.2998 23.2342 94.409 23.1738 94.5403L13.0927 116.435C13.0242 116.584 12.9056 116.704 12.7576 116.774C12.6096 116.844 12.4417 116.86 12.2833 116.818L9.48093 116.087C9.30747 116.042 9.15805 115.932 9.06373 115.78C8.96942 115.627 8.93747 115.444 8.97453 115.269C9.89657 110.917 15.4196 85.9904 22.3733 79.0911C22.4944 78.9727 22.6549 78.9031 22.824 78.8958Z" fill="#212734"/>
<path d="M36.3219 83.0233C36.0642 82.9439 35.8261 82.811 35.6231 82.6334C35.4201 82.4558 35.2568 82.2374 35.1438 81.9925C35.1178 81.9355 35.0947 81.877 35.0747 81.8175L25.5686 79.488C25.2569 79.41 24.9786 79.2334 24.7754 78.9845C24.5722 78.7355 24.4549 78.4276 24.4409 78.1065L24.7555 67.7206C24.769 67.2736 24.9591 66.8501 25.2842 66.5429C25.6092 66.2357 26.0428 66.0698 26.4898 66.0816C26.9369 66.0933 27.3611 66.2817 27.6696 66.6055C27.9781 66.9293 28.1457 67.3622 28.1358 67.8093L27.9447 76.3658L35.8591 79.573C35.9309 79.5265 36.0057 79.4849 36.0832 79.4487H36.0833C36.3659 79.3177 36.6762 79.2574 36.9873 79.2731C37.2985 79.2889 37.6011 79.3801 37.8691 79.5389C38.1371 79.6978 38.3624 79.9195 38.5256 80.1849C38.6887 80.4503 38.7848 80.7514 38.8056 81.0622C38.8263 81.3731 38.7711 81.6843 38.6447 81.969C38.5182 82.2538 38.3244 82.5034 38.0799 82.6965C37.8354 82.8896 37.5476 83.0202 37.2413 83.0772C36.935 83.1341 36.6194 83.1156 36.3219 83.0234V83.0233Z" fill="#A0616A"/>
<path d="M23.7413 72.8957C23.6592 72.8072 23.5972 72.7021 23.5596 72.5875C23.5219 72.4728 23.5093 72.3514 23.5229 72.2315L23.994 68.0435C23.9721 67.4266 24.1958 66.8261 24.616 66.3738C25.0362 65.9215 25.6185 65.6543 26.2354 65.6307C26.8523 65.6071 27.4534 65.8291 27.9069 66.248C28.3604 66.6669 28.6293 67.2485 28.6546 67.8653L29.4214 72.0233C29.4432 72.142 29.4393 72.264 29.4098 72.3809C29.3802 72.4979 29.3258 72.6072 29.2503 72.7013C29.1747 72.7954 29.0798 72.8721 28.9719 72.9261C28.8641 72.9802 28.7458 73.0104 28.6252 73.0147L24.3869 73.1643C24.2663 73.1686 24.1462 73.1469 24.0348 73.1005C23.9233 73.0542 23.8232 72.9843 23.7413 72.8957Z" fill="#007BFE"/>
<path d="M18.3814 64.405L18.8288 62.9591L19.1347 64.5818L21.6472 64.5153L21.6356 62.9154L22.5908 64.4943L24.8676 63.9911C24.3812 63.3429 23.889 62.6847 23.5779 61.9207C23.2668 61.1567 23.1536 60.2608 23.4442 59.4874C24.1628 57.5754 26.8874 58.1104 28.3776 58.0942C28.8123 58.0895 29.3031 58.0582 29.5878 57.7027C29.8022 57.4351 29.8373 57.0522 29.8265 56.6983C29.7705 54.8758 28.6763 53.1371 27.1294 52.4125C26.3723 52.0638 25.5281 51.9495 24.7055 52.0842C24.2764 52.152 23.8597 52.2832 23.4692 52.4735C23.1211 52.6436 22.7554 53.0487 22.3806 53.0377C22.0655 53.0285 21.6485 52.7004 21.3057 52.6443C20.8927 52.5805 20.4714 52.5952 20.0639 52.6876C19.2449 52.8702 18.5067 53.312 17.9587 53.9474C16.7942 55.3005 16.4481 57.2945 16.6511 59.1302C16.8541 60.9659 17.5408 62.6922 18.2199 64.3888" fill="#212734"/>
<path d="M140.614 121.979H0.80616C0.759926 121.979 0.715586 121.961 0.682894 121.928C0.650202 121.895 0.631836 121.851 0.631836 121.805C0.631836 121.758 0.650202 121.714 0.682894 121.681C0.715586 121.649 0.759926 121.63 0.80616 121.63H140.614C140.66 121.63 140.705 121.649 140.737 121.681C140.77 121.714 140.788 121.758 140.788 121.805C140.788 121.851 140.77 121.895 140.737 121.928C140.705 121.961 140.66 121.979 140.614 121.979Z" fill="#E6E6E6"/>
<path d="M138.255 119.819C138.787 119.388 139.175 118.804 139.367 118.146C139.509 117.481 139.225 116.699 138.591 116.442C137.879 116.167 137.118 116.661 136.542 117.159C135.966 117.657 135.303 118.227 134.548 118.12C134.935 117.768 135.224 117.321 135.387 116.823C135.549 116.325 135.581 115.794 135.477 115.281C135.446 115.067 135.355 114.867 135.216 114.702C134.823 114.28 134.105 114.462 133.63 114.795C132.125 115.854 131.706 117.897 131.7 119.738C131.546 119.072 131.674 118.381 131.671 117.712C131.668 117.044 131.48 116.265 130.907 115.912C130.552 115.721 130.152 115.626 129.749 115.637C129.072 115.614 128.319 115.68 127.856 116.175C127.277 116.789 127.431 117.822 127.932 118.491C128.432 119.159 129.191 119.59 129.888 120.059C130.45 120.392 130.929 120.849 131.289 121.394C131.332 121.469 131.367 121.548 131.393 121.631H135.633C136.585 121.148 137.467 120.539 138.255 119.819Z" fill="#F2F2F2"/>
<path d="M94.1404 53.0379C94.0616 53.0376 93.9841 53.0176 93.915 52.9797C93.8459 52.9418 93.7873 52.8873 93.7445 52.8211C93.7018 52.7549 93.6762 52.6791 93.6701 52.6005C93.6641 52.5219 93.6777 52.4431 93.7098 52.3711L94.2552 51.1541C93.5036 50.4865 93.0249 49.565 92.9109 48.5662C92.7968 47.5674 93.0555 46.5616 93.6374 45.7418C94.2192 44.922 95.0832 44.3458 96.0636 44.1238C97.0441 43.9018 98.072 44.0495 98.9503 44.5386C99.8285 45.0278 100.495 45.8239 100.823 46.7744C101.15 47.7249 101.115 48.7628 100.725 49.689C100.334 50.6153 99.615 51.3648 98.7058 51.7937C97.7967 52.2226 96.7611 52.3008 95.7978 52.0133L94.4058 52.9557C94.3276 53.0091 94.2351 53.0377 94.1404 53.0379ZM96.955 44.6238C96.2299 44.6234 95.5226 44.8486 94.9311 45.2682C94.3397 45.6878 93.8934 46.2809 93.6542 46.9655C93.415 47.6501 93.3946 48.3921 93.596 49.0887C93.7974 49.7853 94.2105 50.4021 94.7781 50.8534L94.9499 50.9904L94.3631 52.2999L95.7098 51.3882L95.8428 51.4328C96.3232 51.5942 96.833 51.6492 97.3367 51.594C97.8405 51.5388 98.3262 51.3747 98.7603 51.1131C99.1943 50.8516 99.5663 50.4987 99.8504 50.0791C100.135 49.6594 100.324 49.183 100.406 48.6828C100.487 48.1827 100.459 47.6707 100.324 47.1825C100.188 46.6942 99.9474 46.2414 99.6191 45.8553C99.2909 45.4691 98.8826 45.159 98.4226 44.9464C97.9626 44.7338 97.4618 44.6237 96.955 44.6238Z" fill="#3F3D56"/>
<path d="M96.9547 48.4992C97.2678 48.4992 97.5217 48.2453 97.5217 47.9322C97.5217 47.619 97.2678 47.3652 96.9547 47.3652C96.6415 47.3652 96.3877 47.619 96.3877 47.9322C96.3877 48.2453 96.6415 48.4992 96.9547 48.4992Z" fill="#3F3D56"/>
<path d="M95.3482 48.4992C95.6614 48.4992 95.9152 48.2453 95.9152 47.9322C95.9152 47.619 95.6614 47.3652 95.3482 47.3652C95.0351 47.3652 94.7812 47.619 94.7812 47.9322C94.7812 48.2453 95.0351 48.4992 95.3482 48.4992Z" fill="#3F3D56"/>
<path d="M98.5611 48.4992C98.8743 48.4992 99.1281 48.2453 99.1281 47.9322C99.1281 47.619 98.8743 47.3652 98.5611 47.3652C98.248 47.3652 97.9941 47.619 97.9941 47.9322C97.9941 48.2453 98.248 48.4992 98.5611 48.4992Z" fill="#3F3D56"/>
</g>
<defs>
<clipPath id="clip0">
<rect x="0.631836" y="0.357666" width="140.157" height="121.623" rx="15.9459" fill="white"/>
</clipPath>
</defs>
</svg>
