<svg width="153" height="123" viewBox="0 0 153 123" fill="none" xmlns="http://www.w3.org/2000/svg">
<g clip-path="url(#clip0)">
<path d="M38.9726 69.0441H1.4769C1.24257 69.0438 1.0179 68.9506 0.852201 68.7849C0.686499 68.6192 0.593289 68.3945 0.593018 68.1602V23.2588C0.593289 23.0244 0.686499 22.7998 0.852201 22.6341C1.0179 22.4684 1.24257 22.3751 1.4769 22.3749H38.9726C39.2069 22.3751 39.4316 22.4684 39.5973 22.6341C39.763 22.7998 39.8562 23.0244 39.8564 23.2588V68.1602C39.8562 68.3945 39.763 68.6192 39.5973 68.7849C39.4316 68.9506 39.2069 69.0438 38.9726 69.0441ZM1.4769 22.7284C1.3363 22.7286 1.2015 22.7845 1.10208 22.8839C1.00265 22.9834 0.946729 23.1182 0.946572 23.2588V68.1602C0.946729 68.3008 1.00265 68.4356 1.10208 68.535C1.2015 68.6344 1.3363 68.6904 1.4769 68.6905H38.9726C39.1132 68.6904 39.248 68.6344 39.3474 68.535C39.4468 68.4356 39.5027 68.3008 39.5029 68.1602V23.2588C39.5027 23.1182 39.4468 22.9834 39.3474 22.8839C39.248 22.7845 39.1132 22.7286 38.9726 22.7284H1.4769Z" fill="#CACACA"/>
<path d="M33.9249 31.9205H6.52441V48.8911H33.9249V31.9205Z" fill="#007BFE"/>
<path d="M13.4187 55.2552H6.52441V59.4979H13.4187V55.2552Z" fill="#E4E4E4"/>
<path d="M33.9249 55.2552H27.0305V59.4979H33.9249V55.2552Z" fill="#E4E4E4"/>
<path d="M23.6719 55.2552H16.7776V59.4979H23.6719V55.2552Z" fill="#E4E4E4"/>
<path d="M90.5914 47.4769H53.0958C52.8615 47.4766 52.6368 47.3834 52.4711 47.2177C52.3054 47.052 52.2122 46.8273 52.2119 46.593V1.69156C52.2122 1.45723 52.3054 1.23256 52.4711 1.06686C52.6368 0.901156 52.8615 0.807946 53.0958 0.807678H90.5914C90.8257 0.807946 91.0504 0.901156 91.2161 1.06686C91.3818 1.23256 91.475 1.45723 91.4753 1.69156V46.593C91.475 46.8273 91.3818 47.052 91.2161 47.2177C91.0504 47.3834 90.8257 47.4766 90.5914 47.4769ZM53.0958 1.16123C52.9552 1.16139 52.8204 1.21731 52.721 1.31673C52.6215 1.41616 52.5656 1.55096 52.5655 1.69156V46.593C52.5656 46.7336 52.6215 46.8684 52.721 46.9678C52.8204 47.0672 52.9552 47.1232 53.0958 47.1233H90.5914C90.732 47.1232 90.8668 47.0672 90.9662 46.9678C91.0657 46.8684 91.1216 46.7336 91.1217 46.593V1.69156C91.1216 1.55096 91.0657 1.41616 90.9662 1.31673C90.8668 1.21731 90.732 1.16139 90.5914 1.16123H53.0958Z" fill="#CACACA"/>
<path d="M91.0394 75.9371H53.5438C53.3095 75.9368 53.0848 75.8436 52.9191 75.6779C52.7534 75.5122 52.6602 75.2875 52.6599 75.0532V61.7949C52.6602 61.5606 52.7534 61.3359 52.9191 61.1702C53.0848 61.0045 53.3095 60.9113 53.5438 60.911H91.0394C91.2738 60.9113 91.4984 61.0045 91.6641 61.1702C91.8298 61.3359 91.923 61.5606 91.9233 61.7949V75.0532C91.923 75.2875 91.8298 75.5122 91.6641 75.6779C91.4984 75.8436 91.2738 75.9368 91.0394 75.9371ZM53.5438 61.2646C53.4032 61.2647 53.2684 61.3206 53.169 61.4201C53.0695 61.5195 53.0136 61.6543 53.0135 61.7949V75.0532C53.0136 75.1938 53.0695 75.3286 53.169 75.428C53.2684 75.5274 53.4032 75.5834 53.5438 75.5835H91.0394C91.18 75.5834 91.3148 75.5274 91.4142 75.428C91.5137 75.3286 91.5696 75.1938 91.5697 75.0532V61.7949C91.5696 61.6543 91.5137 61.5195 91.4142 61.4201C91.3148 61.3206 91.18 61.2647 91.0394 61.2646H53.5438Z" fill="#CACACA"/>
<path d="M83.3343 30.9478H60.3533C59.1817 30.9478 58.2319 31.8975 58.2319 33.0691V33.0691C58.2319 34.2407 59.1817 35.1904 60.3533 35.1904H83.3343C84.5059 35.1904 85.4556 34.2407 85.4556 33.0691C85.4556 31.8975 84.5059 30.9478 83.3343 30.9478Z" fill="#E4E4E4"/>
<path d="M83.3343 37.6655H60.3533C59.1817 37.6655 58.2319 38.6153 58.2319 39.7869V39.7869C58.2319 40.9584 59.1817 41.9082 60.3533 41.9082H83.3343C84.5059 41.9082 85.4556 40.9584 85.4556 39.7869C85.4556 38.6153 84.5059 37.6655 83.3343 37.6655Z" fill="#E4E4E4"/>
<path d="M71.8436 26.1749C77.311 26.1749 81.7432 21.7427 81.7432 16.2754C81.7432 10.808 77.311 6.37585 71.8436 6.37585C66.3763 6.37585 61.9441 10.808 61.9441 16.2754C61.9441 21.7427 66.3763 26.1749 71.8436 26.1749Z" fill="#007BFE"/>
<path d="M82.9867 66.3032H72.9104C71.7388 66.3032 70.7891 67.253 70.7891 68.4246C70.7891 69.5962 71.7388 70.5459 72.9104 70.5459H82.9867C84.1583 70.5459 85.108 69.5962 85.108 68.4246C85.108 67.253 84.1583 66.3032 82.9867 66.3032Z" fill="#E4E4E4"/>
<path d="M63.3642 72.3138C65.5121 72.3138 67.2533 70.5726 67.2533 68.4247C67.2533 66.2769 65.5121 64.5356 63.3642 64.5356C61.2163 64.5356 59.4751 66.2769 59.4751 68.4247C59.4751 70.5726 61.2163 72.3138 63.3642 72.3138Z" fill="#007BFE"/>
<path d="M152.489 122.429H85.1367C85.0899 122.429 85.0449 122.41 85.0117 122.377C84.9786 122.344 84.96 122.299 84.96 122.252C84.96 122.205 84.9786 122.16 85.0117 122.127C85.0449 122.094 85.0899 122.075 85.1367 122.075H152.489C152.536 122.075 152.581 122.094 152.614 122.127C152.647 122.16 152.666 122.205 152.666 122.252C152.666 122.299 152.647 122.344 152.614 122.377C152.581 122.41 152.536 122.429 152.489 122.429Z" fill="#CACACA"/>
<path d="M132.536 84.2546C132.413 84.0781 132.329 83.8768 132.292 83.6648C132.255 83.4527 132.265 83.2351 132.321 83.0272C132.377 82.8194 132.478 82.6264 132.617 82.4618C132.756 82.2972 132.929 82.165 133.124 82.0746L132.604 76.8676L135.011 78.1314L135.137 82.8823C135.267 83.2205 135.268 83.5948 135.141 83.9341C135.014 84.2735 134.766 84.5544 134.446 84.7235C134.125 84.8927 133.754 84.9384 133.402 84.852C133.05 84.7655 132.742 84.553 132.536 84.2546V84.2546Z" fill="#FFE1E1"/>
<path d="M111.449 83.5219C111.326 83.3454 111.243 83.1441 111.205 82.9321C111.168 82.72 111.178 82.5024 111.234 82.2946C111.29 82.0867 111.391 81.8937 111.53 81.7291C111.669 81.5645 111.842 81.4323 112.037 81.3419L111.517 76.1349L113.924 77.3987L114.05 82.1496C114.18 82.4878 114.181 82.8621 114.054 83.2015C113.927 83.5408 113.679 83.8217 113.359 83.9908C113.038 84.16 112.667 84.2057 112.315 84.1193C111.963 84.0328 111.655 83.8203 111.449 83.5219V83.5219Z" fill="#FFE1E1"/>
<path d="M127.51 120.262H125.715L124.861 113.337H127.51L127.51 120.262Z" fill="#FFE1E1"/>
<path d="M127.968 122.002L122.179 122.002V121.928C122.179 121.331 122.417 120.758 122.839 120.335C123.262 119.913 123.835 119.675 124.433 119.675H124.433L127.968 119.675L127.968 122.002Z" fill="#212734"/>
<path d="M114.184 120.262H112.389L111.535 113.337H114.184L114.184 120.262Z" fill="#FFE1E1"/>
<path d="M114.642 122.002L108.853 122.002V121.928C108.853 121.331 109.091 120.758 109.513 120.335C109.936 119.913 110.509 119.675 111.106 119.675H111.107L114.642 119.675L114.642 122.002Z" fill="#212734"/>
<path d="M126.218 48.261C128.515 47.0051 129.36 44.1244 128.104 41.8269C126.848 39.5294 123.967 38.685 121.67 39.941C119.372 41.1969 118.528 44.0775 119.784 46.3751C121.04 48.6726 123.92 49.5169 126.218 48.261Z" fill="#FFB8B8"/>
<path d="M113.479 81.0615L112.601 82.4533L110.844 118.696L114.504 118.549L121.826 87.944L124.755 118.842L127.977 118.989L130.591 83.0568L113.479 81.0615Z" fill="#212734"/>
<path d="M132.662 53.6773L126.659 50.4557L119.922 50.0164L113.987 53.6773C113.987 53.6773 119.19 69.0532 113.479 77.9859L112.601 82.2326L130.759 83.5505C130.759 83.5505 129.587 64.5137 131.198 62.1707C132.809 59.8277 132.662 53.6773 132.662 53.6773Z" fill="#3F3D56"/>
<path d="M130.591 54.4769L132.663 53.679C132.663 53.679 136.324 56.9006 136.177 64.6617C136.031 72.4229 135.24 81.0627 135.24 81.0627L132.516 81.502L131.052 68.9084L129.002 57.9256L130.591 54.4769Z" fill="#3F3D56"/>
<path d="M116.137 54.4769L114.065 53.679C114.065 53.679 110.404 56.9006 110.551 64.6617C110.697 72.4229 111.488 81.0627 111.488 81.0627L114.212 81.502L115.676 68.9084L117.726 57.9256L116.137 54.4769Z" fill="#3F3D56"/>
<path d="M127.371 39.3196C126.956 38.9123 126.459 38.5983 125.912 38.3984C125.366 38.1985 124.784 38.1173 124.204 38.1604C123.183 38.2428 123.117 38.2676 122.2 38.7234C121.629 38.9936 121.074 39.2971 120.539 39.6322C120.534 39.4145 119.629 38.5813 119.483 38.7426C119.337 38.9039 119.86 39.952 119.743 40.1357C119.626 40.3195 118.569 39.6625 118.458 39.4748C119.275 40.6018 120.354 42.8299 120.095 44.1977C120.274 43.9959 120.509 43.8516 120.77 43.783C121.03 43.7145 121.306 43.7248 121.56 43.8126C121.815 43.9004 122.039 44.0618 122.202 44.2764C122.365 44.491 122.461 44.7491 122.478 45.0183C122.535 45.9535 121.669 46.9787 122.235 47.7249C122.56 48.1518 123.177 48.1873 123.713 48.1848L127.679 47.7426C128.531 46.3847 129.062 45.3077 129.294 43.7215C129.526 42.1352 128.508 40.4498 127.371 39.3196Z" fill="#212734"/>
</g>
<defs>
<clipPath id="clip0">
<rect x="0.593018" y="0.807861" width="152.072" height="121.623" rx="15.9459" fill="white"/>
</clipPath>
</defs>
</svg>
