<svg width="36" height="36" viewBox="0 0 36 36" fill="none" xmlns="http://www.w3.org/2000/svg">
<path d="M30.0854 26.4015H28.627V24.9431C28.627 24.5564 28.4734 24.1854 28.1999 23.9119C27.9264 23.6384 27.5555 23.4848 27.1687 23.4848C26.7819 23.4848 26.411 23.6384 26.1375 23.9119C25.864 24.1854 25.7104 24.5564 25.7104 24.9431V26.4015H24.252C23.8653 26.4015 23.4943 26.5551 23.2208 26.8286C22.9473 27.1021 22.7937 27.473 22.7937 27.8598C22.7937 28.2466 22.9473 28.6175 23.2208 28.891C23.4943 29.1645 23.8653 29.3181 24.252 29.3181H25.7104V30.7765C25.7104 31.1632 25.864 31.5342 26.1375 31.8077C26.411 32.0812 26.7819 32.2348 27.1687 32.2348C27.5555 32.2348 27.9264 32.0812 28.1999 31.8077C28.4734 31.5342 28.627 31.1632 28.627 30.7765V29.3181H30.0854C30.4721 29.3181 30.8431 29.1645 31.1166 28.891C31.3901 28.6175 31.5437 28.2466 31.5437 27.8598C31.5437 27.473 31.3901 27.1021 31.1166 26.8286C30.8431 26.5551 30.4721 26.4015 30.0854 26.4015ZM19.877 29.3181H9.6687C9.28193 29.3181 8.91099 29.1645 8.6375 28.891C8.36401 28.6175 8.21037 28.2466 8.21037 27.8598V7.44312C8.21037 7.05634 8.36401 6.68541 8.6375 6.41192C8.91099 6.13843 9.28193 5.98478 9.6687 5.98478H16.9604V10.3598C16.9604 11.5201 17.4213 12.6329 18.2418 13.4534C19.0622 14.2739 20.175 14.7348 21.3354 14.7348H25.7104V19.1098C25.7104 19.4966 25.864 19.8675 26.1375 20.141C26.411 20.4145 26.7819 20.5681 27.1687 20.5681C27.5555 20.5681 27.9264 20.4145 28.1999 20.141C28.4734 19.8675 28.627 19.4966 28.627 19.1098V13.2765C28.627 13.2765 28.627 13.2765 28.627 13.189C28.6118 13.055 28.5825 12.923 28.5395 12.7952V12.664C28.4694 12.514 28.3759 12.3762 28.2624 12.2556L19.5124 3.50562C19.3919 3.39218 19.2541 3.29865 19.1041 3.22853C19.0559 3.22009 19.0065 3.22009 18.9583 3.22853C18.8165 3.1527 18.6641 3.09863 18.5062 3.06812H9.6687C8.50838 3.06812 7.39558 3.52905 6.57511 4.34952C5.75464 5.17 5.2937 6.28279 5.2937 7.44312V27.8598C5.2937 29.0201 5.75464 30.1329 6.57511 30.9534C7.39558 31.7739 8.50838 32.2348 9.6687 32.2348H19.877C20.2638 32.2348 20.6347 32.0812 20.9082 31.8077C21.1817 31.5342 21.3354 31.1632 21.3354 30.7765C21.3354 30.3897 21.1817 30.0188 20.9082 29.7453C20.6347 29.4718 20.2638 29.3181 19.877 29.3181ZM19.877 8.04103L23.6541 11.8181H21.3354C20.9486 11.8181 20.5777 11.6645 20.3042 11.391C20.0307 11.1175 19.877 10.7466 19.877 10.3598V8.04103ZM12.5854 11.8181C12.1986 11.8181 11.8277 11.9718 11.5542 12.2453C11.2807 12.5187 11.127 12.8897 11.127 13.2765C11.127 13.6632 11.2807 14.0342 11.5542 14.3077C11.8277 14.5811 12.1986 14.7348 12.5854 14.7348H14.0437C14.4305 14.7348 14.8014 14.5811 15.0749 14.3077C15.3484 14.0342 15.502 13.6632 15.502 13.2765C15.502 12.8897 15.3484 12.5187 15.0749 12.2453C14.8014 11.9718 14.4305 11.8181 14.0437 11.8181H12.5854ZM19.877 23.4848H12.5854C12.1986 23.4848 11.8277 23.6384 11.5542 23.9119C11.2807 24.1854 11.127 24.5564 11.127 24.9431C11.127 25.3299 11.2807 25.7008 11.5542 25.9743C11.8277 26.2478 12.1986 26.4015 12.5854 26.4015H19.877C20.2638 26.4015 20.6347 26.2478 20.9082 25.9743C21.1817 25.7008 21.3354 25.3299 21.3354 24.9431C21.3354 24.5564 21.1817 24.1854 20.9082 23.9119C20.6347 23.6384 20.2638 23.4848 19.877 23.4848ZM21.3354 17.6515H12.5854C12.1986 17.6515 11.8277 17.8051 11.5542 18.0786C11.2807 18.3521 11.127 18.723 11.127 19.1098C11.127 19.4966 11.2807 19.8675 11.5542 20.141C11.8277 20.4145 12.1986 20.5681 12.5854 20.5681H21.3354C21.7221 20.5681 22.0931 20.4145 22.3666 20.141C22.6401 19.8675 22.7937 19.4966 22.7937 19.1098C22.7937 18.723 22.6401 18.3521 22.3666 18.0786C22.0931 17.8051 21.7221 17.6515 21.3354 17.6515Z" fill="#007BFE"/>
</svg>
