<svg width="36" height="36" viewBox="0 0 36 36" fill="none" xmlns="http://www.w3.org/2000/svg">
<path d="M10.8559 11.995C10.4691 11.995 10.0982 12.1486 9.82468 12.4221C9.55119 12.6956 9.39754 13.0666 9.39754 13.4533C9.39754 13.8401 9.55119 14.211 9.82468 14.4845C10.0982 14.758 10.4691 14.9117 10.8559 14.9117H12.3142C12.701 14.9117 13.0719 14.758 13.3454 14.4845C13.6189 14.211 13.7725 13.8401 13.7725 13.4533C13.7725 13.0666 13.6189 12.6956 13.3454 12.4221C13.0719 12.1486 12.701 11.995 12.3142 11.995H10.8559ZM18.1475 29.495H7.93921C7.55243 29.495 7.1815 29.3414 6.90801 29.0679C6.63452 28.7944 6.48088 28.4234 6.48088 28.0367V7.62C6.48088 7.23322 6.63452 6.86229 6.90801 6.5888C7.1815 6.31531 7.55243 6.16166 7.93921 6.16166H15.2309V10.5367C15.2309 11.697 15.6918 12.8098 16.5123 13.6303C17.3328 14.4507 18.4456 14.9117 19.6059 14.9117H23.9809V16.37C23.9809 16.7568 24.1345 17.1277 24.408 17.4012C24.6815 17.6747 25.0524 17.8283 25.4392 17.8283C25.826 17.8283 26.1969 17.6747 26.4704 17.4012C26.7439 17.1277 26.8975 16.7568 26.8975 16.37V13.4533C26.8975 13.4533 26.8975 13.4533 26.8975 13.3658C26.8824 13.2319 26.853 13.0999 26.81 12.9721V12.8408C26.7399 12.6909 26.6464 12.553 26.533 12.4325L17.783 3.6825C17.6624 3.56906 17.5246 3.47553 17.3746 3.40541C17.3311 3.39923 17.2869 3.39923 17.2434 3.40541L16.7767 3.245H7.93921C6.77889 3.245 5.66609 3.70593 4.84562 4.5264C4.02515 5.34687 3.56421 6.45967 3.56421 7.62V28.0367C3.56421 29.197 4.02515 30.3098 4.84562 31.1303C5.66609 31.9507 6.77889 32.4117 7.93921 32.4117H18.1475C18.5343 32.4117 18.9052 32.258 19.1787 31.9845C19.4522 31.711 19.6059 31.3401 19.6059 30.9533C19.6059 30.5666 19.4522 30.1956 19.1787 29.9221C18.9052 29.6486 18.5343 29.495 18.1475 29.495ZM18.1475 8.21791L21.9246 11.995H19.6059C19.2191 11.995 18.8482 11.8414 18.5747 11.5679C18.3012 11.2944 18.1475 10.9234 18.1475 10.5367V8.21791ZM31.0246 22.4512C29.9125 21.3903 28.4345 20.7985 26.8975 20.7985C25.3606 20.7985 23.8826 21.3903 22.7705 22.4512C21.9553 23.2673 21.4004 24.3067 21.1758 25.4381C20.9513 26.5695 21.0672 27.742 21.5089 28.8076C21.9506 29.8731 22.6982 30.7837 23.6574 31.4244C24.6165 32.0651 25.7441 32.4071 26.8975 32.4071C28.051 32.4071 29.1785 32.0651 30.1377 31.4244C31.0968 30.7837 31.8445 29.8731 32.2862 28.8076C32.7279 27.742 32.8438 26.5695 32.6193 25.4381C32.3947 24.3067 31.8398 23.2673 31.0246 22.4512ZM23.9809 26.5783C23.9809 25.8048 24.2882 25.0629 24.8351 24.5159C25.3821 23.969 26.124 23.6617 26.8975 23.6617C27.1487 23.6649 27.3985 23.6992 27.6413 23.7637L24.083 27.3221C24.0184 27.0793 23.9841 26.8295 23.9809 26.5783ZM28.9538 28.6346C28.5923 28.9867 28.1456 29.239 27.6573 29.3668C27.1691 29.4946 26.6561 29.4936 26.1684 29.3637L29.7121 25.8346C29.7767 26.0773 29.811 26.3272 29.8142 26.5783C29.811 27.3506 29.5015 28.0901 28.9538 28.6346ZM16.6892 26.5783C17.076 26.5783 17.4469 26.4247 17.7204 26.1512C17.9939 25.8777 18.1475 25.5068 18.1475 25.12C18.1475 24.7332 17.9939 24.3623 17.7204 24.0888C17.4469 23.8153 17.076 23.6617 16.6892 23.6617H10.8559C10.4691 23.6617 10.0982 23.8153 9.82468 24.0888C9.55119 24.3623 9.39754 24.7332 9.39754 25.12C9.39754 25.5068 9.55119 25.8777 9.82468 26.1512C10.0982 26.4247 10.4691 26.5783 10.8559 26.5783H16.6892ZM19.6059 17.8283H10.8559C10.4691 17.8283 10.0982 17.982 9.82468 18.2555C9.55119 18.529 9.39754 18.8999 9.39754 19.2867C9.39754 19.6734 9.55119 20.0444 9.82468 20.3179C10.0982 20.5914 10.4691 20.745 10.8559 20.745H19.6059C19.9927 20.745 20.3636 20.5914 20.6371 20.3179C20.9106 20.0444 21.0642 19.6734 21.0642 19.2867C21.0642 18.8999 20.9106 18.529 20.6371 18.2555C20.3636 17.982 19.9927 17.8283 19.6059 17.8283Z" fill="#007BFE"/>
</svg>
