<svg width="450" height="722" viewBox="0 0 450 722" fill="none" xmlns="http://www.w3.org/2000/svg">
<path d="M68.8184 531.202L63.5164 633C63.5164 633 287.785 419.547 315.724 357.094C343.664 294.64 291.072 140.149 291.072 140.149L174.382 204.247L68.8184 531.202Z" fill="#FFD0D0"/>
<path d="M412.692 97.418L447.205 100.705C447.205 100.705 465.284 140.149 409.404 143.436L412.692 97.418Z" fill="#FFD0D0"/>
<path d="M412.692 158.228L447.205 161.515C447.205 161.515 465.284 200.96 409.404 204.247L412.692 158.228Z" fill="#FFD0D0"/>
<path d="M412.692 223.969L447.205 227.256C447.205 227.256 465.284 266.701 409.404 269.988L412.692 223.969Z" fill="#FFD0D0"/>
<path d="M402.83 289.709L437.344 292.996C437.344 292.996 455.423 332.44 399.543 335.727L402.83 289.709Z" fill="#FFD0D0"/>
<path d="M429.494 113.264H426.876V41.5223C426.876 36.0695 425.802 30.6701 423.715 25.6324C421.628 20.5947 418.57 16.0173 414.714 12.1616C410.858 8.30591 406.281 5.2474 401.243 3.16071C396.206 1.07402 390.806 4.17769e-06 385.353 0H233.358C227.906 -1.11402e-05 222.506 1.07399 217.469 3.16066C212.431 5.24734 207.853 8.30584 203.998 12.1615C200.142 16.0172 197.084 20.5946 194.997 25.6323C192.91 30.67 191.836 36.0694 191.836 41.5221V435.104C191.836 440.556 192.91 445.956 194.997 450.993C197.084 456.031 200.142 460.609 203.998 464.464C207.853 468.32 212.431 471.379 217.468 473.465C222.506 475.552 227.906 476.626 233.358 476.626H385.353C396.366 476.626 406.927 472.251 414.714 464.464C422.501 456.678 426.875 446.116 426.876 435.104V164.331H429.494V113.264Z" fill="#212734"/>
<path d="M387.028 10.8028H367.188C368.1 13.0397 368.449 15.4667 368.202 17.8699C367.956 20.2731 367.122 22.5789 365.774 24.584C364.427 26.5891 362.607 28.232 360.475 29.3681C358.343 30.5042 355.964 31.0984 353.548 31.0986H266.472C264.056 31.0985 261.678 30.5042 259.546 29.3681C257.413 28.2321 255.593 26.5891 254.246 24.584C252.898 22.5789 252.065 20.2731 251.818 17.8699C251.572 15.4667 251.92 13.0397 252.832 10.8027H234.301C226.077 10.8027 218.19 14.0697 212.375 19.8848C206.56 25.7 203.293 33.5871 203.293 41.811V434.815C203.293 438.887 204.095 442.919 205.653 446.681C207.212 450.444 209.496 453.862 212.375 456.741C215.255 459.621 218.673 461.905 222.435 463.463C226.197 465.021 230.229 465.823 234.301 465.823H387.028C391.1 465.823 395.133 465.021 398.895 463.463C402.657 461.905 406.075 459.621 408.954 456.741C411.834 453.862 414.118 450.444 415.676 446.682C417.235 442.919 418.037 438.887 418.037 434.815V41.8111C418.037 37.739 417.235 33.7068 415.676 29.9447C414.118 26.1826 411.834 22.7643 408.954 19.8849C406.075 17.0055 402.657 14.7214 398.895 13.1631C395.133 11.6048 391.1 10.8028 387.028 10.8028Z" fill="white"/>
<path d="M274.828 188.761H346.502V204.553H274.828V188.761Z" fill="#E5E5E5"/>
<path opacity="0.2" d="M187.87 134.286L174.148 127.542L174.615 126.589L187.295 132.821L206.435 82.6401L207.425 83.0187L187.87 134.286Z" fill="#222224"/>
<path opacity="0.2" d="M447.022 100.205L447.388 101.2L427.059 108.689L426.693 107.693L447.022 100.205Z" fill="#222224"/>
<path opacity="0.2" d="M447.022 161.709L447.388 162.704L427.059 170.193L426.693 169.197L447.022 161.709Z" fill="#222224"/>
<path opacity="0.2" d="M447.022 227.454L447.388 228.449L427.059 235.937L426.693 234.942L447.022 227.454Z" fill="#222224"/>
<path opacity="0.2" d="M436.371 293.218L436.83 294.174L426.933 298.924L426.474 297.968L436.371 293.218Z" fill="#222224"/>
<path d="M304.521 389.991C284.241 389.991 267.8 373.551 267.8 353.27C267.8 332.989 284.241 316.548 304.521 316.548C324.802 316.548 341.243 332.989 341.243 353.27C341.243 373.551 324.802 389.991 304.521 389.991Z" fill="#007BFE"/>
<path d="M294.946 368.771L283.956 354.639L290.347 349.668L295.551 356.359L313.132 337.8L319.011 343.37L294.946 368.771Z" fill="white"/>
<g filter="url(#filter0_d)">
<rect width="114.579" height="114.579" rx="17.9032" transform="matrix(-1 0 2.90171e-06 1 364.547 174.781)" fill="white"/>
<path d="M296.515 219.985L299.2 219.985L299.2 226.699L296.515 226.699L296.515 219.985Z" fill="#222224"/>
<path d="M291.144 219.985L293.83 219.985L293.83 226.699L291.144 226.699L291.144 219.985Z" fill="#222224"/>
<path d="M296.515 229.386L299.2 229.386L299.2 232.071L296.515 232.071L296.515 229.386Z" fill="#222224"/>
<path d="M291.144 229.386L293.83 229.386L293.83 232.071L291.144 232.071L291.144 229.386Z" fill="#222224"/>
<path d="M305.914 234.76L308.6 234.76L308.6 237.445L305.914 237.445L305.914 234.76Z" fill="#222224"/>
<path d="M312.628 261.61L315.313 261.609L315.313 264.295L312.628 264.295L312.628 261.61Z" fill="#222224"/>
<path d="M291.144 234.76L293.83 234.76L293.83 237.445L291.144 237.445L291.144 234.76Z" fill="#222224"/>
<path d="M296.515 240.13L299.2 240.13L299.2 242.815L296.515 242.815L296.515 240.13Z" fill="#222224"/>
<path d="M291.144 240.13L293.83 240.13L293.83 242.815L291.144 242.815L291.144 240.13Z" fill="#222224"/>
<path d="M347.539 191.794L343.511 191.794L343.511 189.108L348.882 189.108C349.623 189.108 350.224 189.71 350.224 190.451L350.224 195.822L347.539 195.822L347.539 191.794Z" fill="#222224"/>
<path d="M265.633 189.103L271.004 189.103L271.004 191.789L266.976 191.789L266.976 195.817L264.29 195.817L264.29 190.446C264.29 189.705 264.892 189.103 265.633 189.103Z" fill="#222224"/>
<path d="M347.539 268.324L350.224 268.324L350.224 273.695C350.224 274.436 349.623 275.037 348.882 275.037L343.511 275.037L343.511 272.352L347.539 272.352L347.539 268.324Z" fill="#222224"/>
<path d="M266.976 272.352L271.004 272.352L271.004 275.037L265.633 275.037C264.892 275.037 264.29 274.436 264.29 273.695L264.29 268.324L266.976 268.324L266.976 272.352Z" fill="#222224"/>
<path d="M344.854 195.82L344.854 211.933C344.854 212.674 344.252 213.276 343.511 213.276L327.398 213.276C326.657 213.276 326.055 212.674 326.055 211.933L326.055 195.82C326.055 195.079 326.657 194.477 327.398 194.477L343.511 194.477C344.252 194.477 344.854 195.079 344.854 195.82ZM342.168 197.163L328.741 197.163L328.741 210.59L342.168 210.59L342.168 197.163Z" fill="#222224"/>
<path d="M332.769 199.847L338.14 199.847C338.882 199.847 339.483 200.449 339.483 201.19L339.483 206.561C339.483 207.302 338.882 207.903 338.14 207.903L332.769 207.903C332.028 207.903 331.427 207.302 331.427 206.561L331.427 201.19C331.427 200.449 332.028 199.847 332.769 199.847ZM334.112 205.218L336.798 205.218L336.798 202.533L334.112 202.533L334.112 205.218Z" fill="#222224"/>
<path d="M287.116 213.276L271.003 213.276C270.262 213.276 269.661 212.674 269.661 211.933L269.661 195.82C269.661 195.079 270.262 194.477 271.003 194.477L287.116 194.477C287.857 194.477 288.459 195.079 288.459 195.82L288.459 211.933C288.459 212.674 287.857 213.276 287.116 213.276ZM285.774 197.163L272.346 197.163L272.346 210.59L285.774 210.59L285.774 197.163Z" fill="#222224"/>
<path d="M276.375 199.847L281.746 199.847C282.487 199.847 283.088 200.449 283.088 201.19L283.088 206.561C283.088 207.302 282.487 207.903 281.746 207.903L276.375 207.903C275.634 207.903 275.032 207.302 275.032 206.561L275.032 201.19C275.032 200.449 275.634 199.847 276.375 199.847ZM277.717 205.218L280.403 205.218L280.403 202.533L277.717 202.533L277.717 205.218Z" fill="#222224"/>
<path d="M327.398 250.871L343.511 250.871C344.252 250.871 344.854 251.473 344.854 252.214L344.854 268.327C344.854 269.068 344.252 269.67 343.511 269.67L327.398 269.67C326.657 269.67 326.055 269.068 326.055 268.327L326.055 252.214C326.055 251.473 326.657 250.871 327.398 250.871ZM328.741 266.984L342.168 266.984L342.168 253.557L328.741 253.557L328.741 266.984Z" fill="#222224"/>
<path d="M338.14 264.296L332.769 264.296C332.028 264.296 331.427 263.694 331.427 262.953L331.427 257.582C331.427 256.841 332.028 256.239 332.769 256.239L338.14 256.239C338.882 256.239 339.483 256.841 339.483 257.582L339.483 262.953C339.483 263.694 338.882 264.296 338.14 264.296ZM336.798 258.925L334.112 258.925L334.112 261.61L336.798 261.61L336.798 258.925Z" fill="#222224"/>
<path d="M291.144 214.618L300.543 214.618L300.543 198.505L303.228 198.505L303.228 215.961C303.228 216.702 302.627 217.303 301.886 217.303L291.144 217.303L291.144 214.618Z" fill="#222224"/>
<path d="M311.285 205.219L320.685 205.219L320.685 207.904L311.285 207.904L311.285 205.219Z" fill="#222224"/>
<path d="M305.914 199.847L315.313 199.847L315.313 202.533L305.914 202.533L305.914 199.847Z" fill="#222224"/>
<path d="M342.168 214.615L344.854 214.615L344.854 226.7L342.168 226.7L342.168 214.615Z" fill="#222224"/>
<path d="M326.056 222.672L339.483 222.672L339.483 225.357L327.399 225.357L327.399 230.728L324.713 230.728L324.713 224.015C324.713 223.273 325.315 222.672 326.056 222.672Z" fill="#222224"/>
<path d="M335.454 215.962L338.14 215.962L338.14 218.648L335.454 218.648L335.454 215.962Z" fill="#222224"/>
<path d="M319.341 213.271L322.027 213.271L322.027 224.013L319.341 224.013L319.341 213.271Z" fill="#222224"/>
<path d="M309.942 226.699L322.027 226.699L322.027 229.384L309.942 229.384L309.942 226.699Z" fill="#222224"/>
<path d="M268.318 228.046L271.004 228.046L271.004 241.473L275.032 241.473L275.032 244.159L269.661 244.159C268.92 244.159 268.318 243.557 268.318 242.816L268.318 228.046Z" fill="#222224"/>
<path d="M312.628 213.271L315.313 213.271L315.313 215.957L312.628 215.957L312.628 213.271Z" fill="#222224"/>
<path d="M342.168 233.416L344.854 233.416L344.854 244.157L342.168 244.157L342.168 233.416Z" fill="#222224"/>
<path d="M332.769 245.501L344.854 245.501L344.854 248.187L332.769 248.187L332.769 245.501Z" fill="#222224"/>
<path d="M283.088 226.699L280.403 226.699L280.403 221.328C280.403 220.587 281.004 219.985 281.745 219.985L288.459 219.985L288.459 222.67L283.088 222.67L283.088 226.699Z" fill="#222224"/>
<path d="M335.454 233.416L338.14 233.416L338.14 236.101L335.454 236.101L335.454 233.416Z" fill="#222224"/>
<path d="M320.684 232.069L323.369 232.069L323.369 242.811L320.684 242.811L320.684 232.069Z" fill="#222224"/>
<path d="M311.285 245.501L323.369 245.501L323.369 248.187L311.285 248.187L311.285 245.501Z" fill="#222224"/>
<path d="M327.399 240.13L339.483 240.13L339.483 242.815L327.399 242.815L327.399 240.13Z" fill="#222224"/>
<path d="M319.341 258.928L322.027 258.928L322.027 264.299L319.341 264.299L319.341 258.928Z" fill="#222224"/>
<path d="M311.285 253.558L323.369 253.558L323.369 256.243L311.285 256.243L311.285 253.558Z" fill="#222224"/>
<path d="M301.886 248.186L301.886 241.473C301.886 240.731 302.488 240.13 303.229 240.13L316.656 240.13L316.656 242.815L304.572 242.815L304.572 248.186L301.886 248.186Z" fill="#222224"/>
<path d="M312.628 232.069L315.313 232.069L315.313 234.754L312.628 234.754L312.628 232.069Z" fill="#222224"/>
<path d="M327.398 234.76L330.083 234.76L330.083 237.445L327.398 237.445L327.398 234.76Z" fill="#222224"/>
<path d="M268.318 260.267L271.004 260.267L271.004 269.666L268.318 269.666L268.318 260.267Z" fill="#222224"/>
<path d="M273.689 266.981L277.717 266.981L277.717 269.666L273.689 269.666L273.689 266.981Z" fill="#222224"/>
<path d="M275.031 258.928L277.717 258.928L277.717 264.299L275.031 264.299L275.031 258.928Z" fill="#222224"/>
<path d="M268.318 248.186C268.318 247.445 268.919 246.843 269.661 246.843L284.431 246.843L284.431 249.529L271.003 249.529L271.003 257.585L268.318 257.585L268.318 248.186Z" fill="#222224"/>
<path d="M285.773 264.296L285.773 257.582C285.773 256.841 286.375 256.239 287.116 256.239L301.886 256.239L301.886 258.925L288.459 258.925L288.459 264.296L285.773 264.296Z" fill="#222224"/>
<path d="M273.689 252.213L283.088 252.213L283.088 254.899L273.689 254.899L273.689 252.213Z" fill="#222224"/>
<path d="M313.97 266.981L323.369 266.981L323.369 269.666L313.97 269.666L313.97 266.981Z" fill="#222224"/>
<path d="M307.257 257.585L309.942 257.585L309.942 269.669L307.257 269.669L307.257 257.585Z" fill="#222224"/>
<path d="M301.886 250.871L307.257 250.871L307.257 253.557L301.886 253.557L301.886 250.871Z" fill="#222224"/>
<path d="M287.116 237.441L280.403 237.441L280.403 234.755L285.774 234.755L285.774 226.699L288.459 226.699L288.459 236.098C288.459 236.839 287.857 237.441 287.116 237.441Z" fill="#222224"/>
<path d="M276.375 229.386L283.088 229.386L283.088 232.071L276.375 232.071L276.375 229.386Z" fill="#222224"/>
<path d="M273.689 215.962L277.717 215.962L277.717 218.648L273.689 218.648L273.689 215.962Z" fill="#222224"/>
<path d="M268.318 215.962L271.004 215.962L271.004 222.676L268.318 222.676L268.318 215.962Z" fill="#222224"/>
<path d="M275.031 222.672L277.717 222.672L277.717 225.357L275.031 225.357L275.031 222.672Z" fill="#222224"/>
<path d="M297.858 211.93L292.487 211.93C291.746 211.93 291.144 211.328 291.144 210.587L291.144 193.131L293.829 193.131L293.829 209.244L297.858 209.244L297.858 211.93Z" fill="#222224"/>
<path d="M317.999 195.817L297.858 195.817L297.858 193.131L319.342 193.131C320.083 193.131 320.685 193.733 320.685 194.474L320.685 201.188L317.999 201.188L317.999 195.817Z" fill="#222224"/>
<path d="M316.657 221.329L307.257 221.329C306.516 221.329 305.915 220.727 305.915 219.986L305.915 209.244L308.6 209.244L308.6 218.643L316.657 218.643L316.657 221.329Z" fill="#222224"/>
<path d="M301.886 219.985L304.572 219.985L304.572 225.356L301.886 225.356L301.886 219.985Z" fill="#222224"/>
<path d="M292.487 261.61L301.886 261.609L301.886 264.295L292.487 264.295L292.487 261.61Z" fill="#222224"/>
<path d="M289.801 266.981L301.886 266.981L301.886 269.666L289.801 269.666L289.801 266.981Z" fill="#222224"/>
<path d="M283.088 266.984L285.773 266.984L285.773 269.669L281.745 269.669C281.004 269.669 280.402 269.068 280.402 268.326L280.402 257.585L283.088 257.585L283.088 266.984Z" fill="#222224"/>
<path d="M326.055 245.501L328.741 245.501L328.741 248.187L326.055 248.187L326.055 245.501Z" fill="#222224"/>
<path d="M292.487 245.501L297.858 245.501L297.858 248.187L292.487 248.187L292.487 245.501Z" fill="#222224"/>
<path d="M285.774 240.13L288.459 240.13L288.459 244.158L285.774 244.158L285.774 240.13Z" fill="#222224"/>
<path d="M287.116 246.843L289.801 246.843L289.801 249.529L287.116 249.529L287.116 246.843Z" fill="#222224"/>
<path d="M293.829 250.871L297.858 250.871L297.858 253.557L293.829 253.557L293.829 250.871Z" fill="#222224"/>
<path d="M280.403 240.13L283.088 240.13L283.088 242.815L280.403 242.815L280.403 240.13Z" fill="#222224"/>
<path d="M273.689 234.76L277.717 234.76L277.717 237.445L273.689 237.445L273.689 234.76Z" fill="#222224"/>
<path d="M296.515 234.76L303.228 234.76L303.228 237.445L296.515 237.445L296.515 234.76Z" fill="#222224"/>
<path d="M301.886 228.046L304.572 228.046L304.572 232.074L301.886 232.074L301.886 228.046Z" fill="#222224"/>
</g>
<path d="M338.264 141.767V151.477H329.039" stroke="#007BFE" stroke-width="2.91302" stroke-linecap="round"/>
<path d="M277.642 100.014V90.3037H286.866" stroke="#007BFE" stroke-width="2.91302" stroke-linecap="round"/>
<path d="M338.33 100.014V90.3037H329.105" stroke="#007BFE" stroke-width="2.91302" stroke-linecap="round"/>
<path d="M278.127 141.767V151.477H287.352" stroke="#007BFE" stroke-width="2.91302" stroke-linecap="round"/>
<rect x="284.381" y="98.0802" width="45.6209" height="45.6209" rx="12.4421" fill="#007BFE"/>
<path d="M307.258 106.375L295.268 110.556V119.677L306.311 123.596C307.537 124.031 307.778 125.659 306.731 126.431C306.331 126.726 305.817 126.821 305.338 126.689L296.428 124.237C297.846 127.911 301.998 135.183 307.258 134.879C312.517 134.575 317.184 126.138 318.86 121.957L306.875 117.583C305.983 117.257 305.464 116.329 305.653 115.399C305.887 114.25 307.088 113.578 308.19 113.98L319.634 118.157V109.796L307.258 106.375Z" fill="white"/>
<path fill-rule="evenodd" clip-rule="evenodd" d="M0 486.107V721.113C7.17528 711.567 20.3855 694.668 36.7985 673.672C99.0145 594.084 207.252 455.625 207.252 435.59V320.723C207.252 287.302 199.96 254.282 185.886 223.968L201.5 173.841C239.3 80.1605 193.282 75.23 193.282 75.23L173.56 124.536L104.532 239.582L97.958 374.35L0 486.107Z" fill="#FFD0D0"/>
<defs>
<filter id="filter0_d" x="246.083" y="174.781" width="122.348" height="122.347" filterUnits="userSpaceOnUse" color-interpolation-filters="sRGB">
<feFlood flood-opacity="0" result="BackgroundImageFix"/>
<feColorMatrix in="SourceAlpha" type="matrix" values="0 0 0 0 0 0 0 0 0 0 0 0 0 0 0 0 0 0 127 0" result="hardAlpha"/>
<feOffset dy="3.88403"/>
<feGaussianBlur stdDeviation="1.94201"/>
<feComposite in2="hardAlpha" operator="out"/>
<feColorMatrix type="matrix" values="0 0 0 0 0 0 0 0 0 0 0 0 0 0 0 0 0 0 0.12 0"/>
<feBlend mode="normal" in2="BackgroundImageFix" result="effect1_dropShadow"/>
<feBlend mode="normal" in="SourceGraphic" in2="effect1_dropShadow" result="shape"/>
</filter>
</defs>
</svg>
