<svg width="760" height="431" viewBox="0 0 760 431" fill="none" xmlns="http://www.w3.org/2000/svg">
<g clip-path="url(#clip0)">
<path d="M379.163 402.092C385.705 412.46 393.676 421.854 402.839 429.998C403.048 430.189 403.263 430.372 403.478 430.56L423.042 418.935C422.897 418.739 422.738 418.518 422.566 418.277C412.351 404.056 366.218 309.445 365.936 288.494C365.901 290.228 349.333 355.344 379.163 402.092Z" fill="#C1DFFF"/>
<path d="M399.064 432.241C399.366 432.377 399.675 432.509 399.985 432.635L414.663 423.914C414.433 423.782 414.166 423.626 413.859 423.45C408.835 420.515 393.885 411.696 379.165 402.091C363.348 391.768 347.789 380.544 345.089 374.74C345.651 376.076 363.065 416.665 399.064 432.241Z" fill="#C1DFFF"/>
<path d="M704.798 393.163C704.47 405.418 702.417 417.565 698.7 429.248C698.617 429.519 698.526 429.786 698.437 430.057H675.681C675.705 429.814 675.729 429.543 675.753 429.248C677.27 411.804 668.602 306.903 658.143 288.747C659.059 290.22 706.563 337.737 704.798 393.163Z" fill="#C1DFFF"/>
<path d="M703.091 429.248C702.9 429.519 702.703 429.79 702.5 430.057H685.427C685.557 429.827 685.707 429.555 685.881 429.248C688.701 424.158 697.048 408.94 704.797 393.163C713.121 376.209 720.764 358.612 720.12 352.243C720.319 353.679 726.082 397.468 703.091 429.248Z" fill="#C1DFFF"/>
<path d="M236.682 9.92232C237.788 9.92232 238.684 9.02625 238.684 7.92088C238.684 6.81551 237.788 5.91943 236.682 5.91943C235.577 5.91943 234.681 6.81551 234.681 7.92088C234.681 9.02625 235.577 9.92232 236.682 9.92232Z" fill="white"/>
<path d="M765.918 431.45H-77.6424C-77.9293 431.45 -78.2045 431.332 -78.4075 431.121C-78.6104 430.91 -78.7244 430.624 -78.7244 430.326C-78.7244 430.028 -78.6104 429.741 -78.4075 429.531C-78.2045 429.32 -77.9293 429.201 -77.6424 429.201H765.918C766.205 429.201 766.48 429.32 766.683 429.531C766.886 429.741 767 430.028 767 430.326C767 430.624 766.886 430.91 766.683 431.121C766.48 431.332 766.205 431.45 765.918 431.45Z" fill="#C8C8C8"/>
<path d="M363.375 117.55H480.297C485.939 117.55 491.414 119.47 495.82 122.993C500.227 126.517 503.303 131.435 504.544 136.939L563.623 398.987C564.267 401.845 564.279 404.81 563.656 407.673C563.034 410.536 561.792 413.228 560.02 415.561C558.247 417.894 555.985 419.81 553.393 421.176C550.801 422.542 547.941 423.325 545.015 423.469L424.818 429.391C418.381 429.709 412.05 427.673 407.004 423.665C401.958 419.657 398.543 413.949 397.396 407.608L363.883 222.338L357.544 187.293L348.189 135.577C347.789 133.362 347.881 131.086 348.461 128.911C349.041 126.736 350.094 124.715 351.544 122.994C352.994 121.272 354.806 119.892 356.851 118.951C358.896 118.01 361.124 117.531 363.375 117.55Z" fill="#374A5E"/>
<path d="M464.905 123.199H478.553C482.473 123.199 486.275 124.54 489.327 126.998C492.38 129.457 494.5 132.885 495.336 136.715L552.043 396.625C552.37 398.121 552.369 399.67 552.042 401.167C551.715 402.663 551.069 404.071 550.148 405.295C549.227 406.518 548.052 407.529 546.705 408.257C545.357 408.985 543.869 409.414 542.34 409.514L422.532 417.366C419.152 417.588 415.809 416.557 413.14 414.471C410.472 412.385 408.665 409.389 408.064 406.055L359.675 137.413C359.362 135.674 359.434 133.888 359.887 132.18C360.34 130.472 361.161 128.885 362.295 127.529C363.428 126.174 364.844 125.083 366.445 124.335C368.046 123.587 369.791 123.199 371.557 123.199H384.505C385.758 123.199 386.977 123.612 387.971 124.375C388.966 125.137 389.681 126.206 390.007 127.416C390.295 128.484 390.927 129.428 391.805 130.101C392.683 130.774 393.758 131.138 394.865 131.138H456.332C458.498 131.138 460.585 130.321 462.174 128.849C463.764 127.377 464.739 125.359 464.905 123.199V123.199Z" fill="#F4F8FB"/>
<path d="M525.374 206.513C525.757 206.761 526.119 207.039 526.459 207.343L566.063 197.247L568.765 187.693L583.717 189.886L580.578 207.265C580.324 208.669 579.622 209.953 578.577 210.924C577.531 211.895 576.199 212.5 574.78 212.65L528.538 217.519C527.784 219.106 526.565 220.426 525.043 221.303C523.521 222.181 521.768 222.574 520.017 222.43C518.266 222.287 516.6 221.614 515.241 220.5C513.882 219.387 512.894 217.886 512.409 216.198C511.924 214.51 511.964 212.714 512.524 211.049C513.084 209.384 514.138 207.929 515.546 206.877C516.953 205.826 518.647 205.228 520.403 205.163C522.159 205.098 523.892 205.569 525.374 206.513H525.374Z" fill="#FFC7C7"/>
<path d="M586.39 198.558L576.188 207.36L561.913 219.664L555.609 187.408L554.95 184.053L554.43 181.391L568.894 156.198L580.951 156.89L581.775 156.939L581.792 157.121L581.981 158.81L584.454 181.045L584.511 181.581L586.39 198.558Z" fill="#374A5E"/>
<g filter="url(#filter0_d)">
<rect x="401.276" y="196.72" width="91.6968" height="91.6968" rx="14.1933" transform="rotate(-8.09142 401.276 196.72)" fill="white"/>
<path d="M460.068 224.886L457.964 225.212L458.78 230.471L460.884 230.145L460.068 224.886Z" fill="#212734"/>
<path d="M464.276 224.233L462.172 224.559L462.988 229.819L465.092 229.492L464.276 224.233Z" fill="#212734"/>
<path d="M461.211 232.249L459.107 232.575L459.433 234.679L461.537 234.353L461.211 232.249Z" fill="#212734"/>
<path d="M465.418 231.596L463.314 231.922L463.641 234.026L465.744 233.7L465.418 231.596Z" fill="#212734"/>
<path d="M454.5 237.599L452.396 237.925L452.723 240.029L454.826 239.703L454.5 237.599Z" fill="#212734"/>
<path d="M452.504 259.453L450.401 259.78L450.727 261.884L452.831 261.557L452.504 259.453Z" fill="#212734"/>
<path d="M466.071 235.803L463.967 236.13L464.293 238.233L466.397 237.907L466.071 235.803Z" fill="#212734"/>
<path d="M462.516 240.664L460.412 240.99L460.738 243.094L462.842 242.768L462.516 240.664Z" fill="#212734"/>
<path d="M466.724 240.012L464.62 240.338L464.946 242.442L467.05 242.116L466.724 240.012Z" fill="#212734"/>
<path d="M416.668 208.998L419.824 208.508L419.497 206.404L415.29 207.057C414.709 207.147 414.311 207.692 414.401 208.272L415.054 212.48L417.158 212.154L416.668 208.998Z" fill="#212734"/>
<path d="M480.508 196.938L476.301 197.591L476.627 199.694L479.783 199.205L480.272 202.361L482.376 202.034L481.723 197.826C481.633 197.246 481.089 196.848 480.508 196.938Z" fill="#212734"/>
<path d="M425.971 268.956L423.867 269.282L424.52 273.49C424.61 274.071 425.154 274.469 425.735 274.379L429.942 273.726L429.616 271.622L426.46 272.112L425.971 268.956Z" fill="#212734"/>
<path d="M489.575 262.32L486.419 262.809L486.746 264.913L490.953 264.26C491.534 264.17 491.932 263.626 491.842 263.045L491.189 258.838L489.085 259.164L489.575 262.32Z" fill="#212734"/>
<path d="M419.261 211.826L421.22 224.449C421.31 225.029 421.854 225.428 422.435 225.338L435.058 223.379C435.638 223.289 436.037 222.745 435.947 222.164L433.988 209.541C433.898 208.96 433.354 208.562 432.773 208.652L420.15 210.611C419.569 210.701 419.171 211.245 419.261 211.826ZM421.528 212.551L432.048 210.919L433.68 221.438L423.16 223.07L421.528 212.551Z" fill="#212734"/>
<path d="M429.218 213.513L425.011 214.166C424.43 214.256 424.032 214.8 424.122 215.381L424.775 219.589C424.865 220.169 425.409 220.567 425.99 220.477L430.197 219.825C430.778 219.734 431.176 219.19 431.086 218.609L430.433 214.402C430.343 213.821 429.799 213.423 429.218 213.513ZM428.819 217.884L426.715 218.21L426.389 216.107L428.493 215.78L428.819 217.884Z" fill="#212734"/>
<path d="M466.615 218.484L479.238 216.525C479.819 216.435 480.217 215.891 480.127 215.31L478.169 202.687C478.079 202.106 477.534 201.708 476.954 201.798L464.331 203.757C463.75 203.847 463.352 204.391 463.442 204.972L465.4 217.595C465.49 218.175 466.035 218.574 466.615 218.484ZM465.709 205.697L476.228 204.065L477.86 214.584L467.341 216.216L465.709 205.697Z" fill="#212734"/>
<path d="M473.399 206.658L469.191 207.311C468.61 207.401 468.212 207.946 468.302 208.526L468.955 212.734C469.045 213.315 469.59 213.713 470.17 213.623L474.378 212.97C474.958 212.88 475.357 212.335 475.267 211.755L474.614 207.547C474.524 206.966 473.979 206.568 473.399 206.658ZM472.999 211.029L470.896 211.356L470.569 209.252L472.673 208.925L472.999 211.029Z" fill="#212734"/>
<path d="M439.628 252.833L427.005 254.792C426.424 254.882 426.026 255.426 426.116 256.007L428.074 268.63C428.164 269.21 428.709 269.609 429.289 269.518L441.912 267.56C442.493 267.47 442.891 266.926 442.801 266.345L440.843 253.722C440.753 253.141 440.208 252.743 439.628 252.833ZM440.534 265.619L430.015 267.251L428.383 256.732L438.902 255.1L440.534 265.619Z" fill="#212734"/>
<path d="M432.844 264.658L437.052 264.005C437.633 263.915 438.031 263.371 437.941 262.79L437.288 258.582C437.198 258.002 436.653 257.603 436.073 257.694L431.865 258.346C431.284 258.436 430.886 258.981 430.976 259.561L431.629 263.769C431.719 264.35 432.264 264.748 432.844 264.658ZM433.243 260.287L435.347 259.961L435.674 262.064L433.57 262.391L433.243 260.287Z" fill="#212734"/>
<path d="M463.623 220.025L456.259 221.167L454.301 208.544L452.197 208.871L454.319 222.546C454.409 223.126 454.953 223.525 455.534 223.434L463.949 222.129L463.623 220.025Z" fill="#212734"/>
<path d="M446.702 215.11L439.339 216.252L439.665 218.356L447.028 217.214L446.702 215.11Z" fill="#212734"/>
<path d="M450.257 210.25L442.893 211.392L443.22 213.496L450.583 212.354L450.257 210.25Z" fill="#212734"/>
<path d="M423.65 226.227L421.546 226.553L423.015 236.021L425.119 235.694L423.65 226.227Z" fill="#212734"/>
<path d="M437.252 230.58L426.733 232.212L427.06 234.315L436.527 232.847L437.18 237.054L439.284 236.728L438.468 231.468C438.377 230.888 437.833 230.49 437.252 230.58Z" fill="#212734"/>
<path d="M429.073 226.462L426.969 226.789L427.296 228.893L429.399 228.566L429.073 226.462Z" fill="#212734"/>
<path d="M441.369 222.4L439.266 222.727L440.571 231.142L442.675 230.815L441.369 222.4Z" fill="#212734"/>
<path d="M450.365 231.777L440.897 233.246L441.224 235.35L450.691 233.881L450.365 231.777Z" fill="#212734"/>
<path d="M483.137 227.77L481.033 228.096L482.665 238.615L479.51 239.105L479.836 241.209L484.044 240.556C484.624 240.466 485.022 239.921 484.932 239.341L483.137 227.77Z" fill="#212734"/>
<path d="M446.629 221.584L444.525 221.91L444.851 224.014L446.955 223.688L446.629 221.584Z" fill="#212734"/>
<path d="M425.935 240.953L423.831 241.28L425.137 249.695L427.241 249.369L425.935 240.953Z" fill="#212734"/>
<path d="M434.767 249.278L425.3 250.747L425.626 252.851L435.093 251.382L434.767 249.278Z" fill="#212734"/>
<path d="M471.403 228.513L473.507 228.187L472.854 223.979C472.764 223.398 472.219 223 471.639 223.09L466.379 223.906L466.706 226.01L470.913 225.357L471.403 228.513Z" fill="#212734"/>
<path d="M431.195 240.137L429.091 240.464L429.417 242.568L431.521 242.241L431.195 240.137Z" fill="#212734"/>
<path d="M442.602 237.291L440.498 237.617L441.804 246.032L443.908 245.706L442.602 237.291Z" fill="#212734"/>
<path d="M451.598 246.667L442.13 248.136L442.457 250.24L451.924 248.771L451.598 246.667Z" fill="#212734"/>
<path d="M438.322 244.418L428.855 245.886L429.181 247.99L438.648 246.521L438.322 244.418Z" fill="#212734"/>
<path d="M446.918 258.166L444.814 258.492L445.467 262.7L447.571 262.373L446.918 258.166Z" fill="#212734"/>
<path d="M452.577 252.979L443.11 254.448L443.436 256.551L452.903 255.083L452.577 252.979Z" fill="#212734"/>
<path d="M459.288 247.628L458.472 242.369C458.382 241.788 457.837 241.39 457.257 241.48L446.737 243.112L447.064 245.216L456.531 243.747L457.184 247.955L459.288 247.628Z" fill="#212734"/>
<path d="M448.914 236.311L446.81 236.638L447.136 238.742L449.24 238.415L448.914 236.311Z" fill="#212734"/>
<path d="M437.669 240.21L435.565 240.537L435.892 242.64L437.996 242.314L437.669 240.21Z" fill="#212734"/>
<path d="M487.054 253.016L484.95 253.342L486.093 260.705L488.196 260.379L487.054 253.016Z" fill="#212734"/>
<path d="M483.662 258.928L480.507 259.418L480.833 261.522L483.989 261.032L483.662 258.928Z" fill="#212734"/>
<path d="M481.631 252.78L479.527 253.106L480.18 257.314L482.284 256.987L481.631 252.78Z" fill="#212734"/>
<path d="M485.585 243.548C485.495 242.968 484.951 242.57 484.37 242.66L472.799 244.455L473.125 246.559L483.645 244.927L484.624 251.238L486.728 250.912L485.585 243.548Z" fill="#212734"/>
<path d="M473.869 258.293L473.053 253.033C472.963 252.453 472.418 252.054 471.838 252.144L460.267 253.94L460.593 256.044L471.112 254.412L471.765 258.619L473.869 258.293Z" fill="#212734"/>
<path d="M481.867 247.357L474.504 248.499L474.83 250.603L482.194 249.461L481.867 247.357Z" fill="#212734"/>
<path d="M452.105 263.824L444.742 264.967L445.068 267.07L452.431 265.928L452.105 263.824Z" fill="#212734"/>
<path d="M456.222 255.645L454.118 255.971L455.587 265.438L457.691 265.112L456.222 255.645Z" fill="#212734"/>
<path d="M459.614 249.732L455.406 250.385L455.732 252.489L459.94 251.836L459.614 249.732Z" fill="#212734"/>
<path d="M469.553 237.418L474.813 236.602L474.486 234.498L470.278 235.151L469.299 228.84L467.195 229.166L468.338 236.529C468.428 237.11 468.972 237.508 469.553 237.418Z" fill="#212734"/>
<path d="M476.989 229.801L471.729 230.617L472.056 232.721L477.315 231.905L476.989 229.801Z" fill="#212734"/>
<path d="M477.461 218.956L474.305 219.445L474.632 221.549L477.787 221.06L477.461 218.956Z" fill="#212734"/>
<path d="M481.669 218.302L479.565 218.629L480.381 223.888L482.485 223.562L481.669 218.302Z" fill="#212734"/>
<path d="M477.225 224.378L475.121 224.705L475.448 226.808L477.552 226.482L477.225 224.378Z" fill="#212734"/>
<path d="M458.037 218.738L462.244 218.085C462.825 217.995 463.223 217.45 463.133 216.87L461.012 203.195L458.908 203.521L460.866 216.144L457.71 216.634L458.037 218.738Z" fill="#212734"/>
<path d="M440.3 208.562L456.078 206.114L455.752 204.01L438.921 206.621C438.341 206.711 437.943 207.256 438.033 207.836L438.849 213.096L440.953 212.77L440.3 208.562Z" fill="#212734"/>
<path d="M444.452 228.386L451.816 227.244C452.396 227.153 452.795 226.609 452.704 226.028L451.399 217.613L449.295 217.939L450.437 225.303L444.126 226.282L444.452 228.386Z" fill="#212734"/>
<path d="M455.86 225.539L453.756 225.865L454.409 230.073L456.513 229.746L455.86 225.539Z" fill="#212734"/>
<path d="M468.283 257.005L460.92 258.147L461.246 260.251L468.609 259.109L468.283 257.005Z" fill="#212734"/>
<path d="M471.039 260.887L461.572 262.355L461.899 264.459L471.366 262.99L471.039 260.887Z" fill="#212734"/>
<path d="M476.299 260.07L474.195 260.397L474.522 262.501L477.677 262.011C478.258 261.921 478.656 261.377 478.566 260.796L477.26 252.381L475.157 252.707L476.299 260.07Z" fill="#212734"/>
<path d="M440.027 248.462L437.923 248.789L438.249 250.892L440.353 250.566L440.027 248.462Z" fill="#212734"/>
<path d="M466.325 244.382L462.117 245.035L462.443 247.139L466.651 246.486L466.325 244.382Z" fill="#212734"/>
<path d="M470.931 239.358L468.828 239.685L469.317 242.84L471.421 242.514L470.931 239.358Z" fill="#212734"/>
<path d="M470.695 244.781L468.592 245.107L468.918 247.211L471.022 246.885L470.695 244.781Z" fill="#212734"/>
<path d="M465.926 248.753L462.77 249.243L463.096 251.347L466.252 250.857L465.926 248.753Z" fill="#212734"/>
<path d="M475.139 238.706L473.035 239.032L473.361 241.136L475.465 240.81L475.139 238.706Z" fill="#212734"/>
<path d="M479.746 233.682L476.59 234.172L476.916 236.275L480.072 235.786L479.746 233.682Z" fill="#212734"/>
<path d="M461.863 236.456L456.604 237.272L456.93 239.376L462.19 238.56L461.863 236.456Z" fill="#212734"/>
<path d="M456.839 231.85L454.735 232.176L455.225 235.332L457.329 235.006L456.839 231.85Z" fill="#212734"/>
</g>
<path d="M519.703 419.158L509.599 419.157L504.792 380.185L519.705 380.186L519.703 419.158Z" fill="#FFC7C7"/>
<path d="M522.28 428.951L489.701 428.95V428.538C489.701 425.175 491.037 421.95 493.415 419.572C495.793 417.194 499.018 415.858 502.381 415.858H502.382L522.28 415.859L522.28 428.951Z" fill="#222222"/>
<path d="M625.192 419.982L615.088 419.981L610.281 381.01L625.194 381.011L625.192 419.982Z" fill="#FFC7C7"/>
<path d="M627.769 429.776L595.19 429.775V429.363C595.19 426 596.526 422.774 598.904 420.396C601.282 418.018 604.507 416.682 607.87 416.682H607.871L627.769 416.683L627.769 429.776Z" fill="#222222"/>
<path d="M633.267 402.82L606.071 406.941L566.505 273.036L524.482 407.765L493.989 403.644L533.547 247.059V234.697L538.904 216.154L538.344 211.135L534.445 176.035L532.756 160.813L532.647 159.83C532.555 159.005 532.773 158.175 533.26 157.502C533.746 156.829 534.466 156.361 535.278 156.19L547.97 153.52H568.713L580.951 156.89L581.792 157.121L582.171 157.228L581.982 158.81L579.114 182.859L578.957 184.177L576.188 207.36L575.578 212.445C599.478 229.752 600.302 247.059 600.302 247.059L633.267 402.82Z" fill="#222222"/>
<path d="M555.834 143.093C567.014 143.093 576.076 134.031 576.076 122.851C576.076 111.672 567.014 102.61 555.834 102.61C544.655 102.61 535.593 111.672 535.593 122.851C535.593 134.031 544.655 143.093 555.834 143.093Z" fill="#FFC7C7"/>
<path d="M577.095 207.794L537.053 213.03L537.801 218.751L577.843 213.514L577.095 207.794Z" fill="#374A5E"/>
<path d="M483.343 214.755C483.726 215.002 484.088 215.28 484.428 215.585L524.033 205.489L526.735 195.934L541.687 198.127L538.548 215.506C538.294 216.91 537.592 218.194 536.547 219.165C535.501 220.136 534.169 220.742 532.75 220.891L486.507 225.761C485.753 227.348 484.534 228.668 483.012 229.545C481.49 230.422 479.737 230.815 477.986 230.672C476.235 230.528 474.569 229.855 473.21 228.742C471.851 227.629 470.863 226.128 470.378 224.44C469.893 222.751 469.933 220.955 470.493 219.29C471.054 217.625 472.108 216.17 473.515 215.119C474.922 214.067 476.617 213.469 478.372 213.404C480.128 213.339 481.861 213.81 483.343 214.755H483.343Z" fill="#FFC7C7"/>
<path d="M544.261 161.349L537.256 155.992C535.362 155.274 532.766 157.315 532.311 159.288L522.421 199.671L543.025 214.505L545.909 209.973L544.261 161.349Z" fill="#374A5E"/>
<g opacity="0.2">
<path opacity="0.2" d="M584.454 181.046C582.705 181.74 580.923 182.345 579.113 182.859C578.537 183.032 577.943 183.197 577.358 183.353C573.501 184.423 569.538 185.065 565.54 185.265C563.819 185.338 562.095 185.291 560.381 185.125C558.541 184.942 556.722 184.583 554.95 184.054C554.892 184.037 554.826 184.021 554.769 184.004C551.084 182.958 547.705 181.038 544.92 178.408C544.298 177.802 543.717 177.155 543.181 176.472C541.642 174.587 540.513 172.402 539.866 170.056C539.219 167.711 539.068 165.256 539.423 162.849C539.492 162.412 539.586 161.98 539.704 161.555C540.014 160.395 540.425 159.264 540.931 158.176C541.154 157.665 541.401 157.162 541.665 156.668L550.977 153.52H568.713L580.951 156.89L581.775 156.94L581.792 157.121L582.171 157.228L581.981 158.81L584.454 181.046Z" fill="#212734"/>
</g>
<path d="M540.324 106.094C536.539 105.63 532.384 105.958 529.434 108.374C526.483 110.791 525.531 115.814 528.325 118.411C530.798 120.709 534.665 120.169 537.977 120.822C540.831 121.462 543.388 123.04 545.238 125.305C547.088 127.57 548.125 130.39 548.183 133.313C548.134 141.698 540.087 148.048 538.641 156.307C537.655 161.944 540.032 167.877 544.142 171.859C548.253 175.84 553.903 177.992 559.596 178.575C565.289 179.158 571.045 178.268 576.578 176.805C582.133 175.336 587.603 173.253 592.264 169.892C596.926 166.532 600.747 161.795 602.244 156.247C603.741 150.698 602.666 144.337 598.809 140.077C594.393 135.199 587.045 133.522 583.225 128.164C578.942 122.158 580.527 113.604 577.061 107.093C574.747 102.746 570.365 99.7803 565.695 98.2182C561.024 96.6561 556.037 96.3478 551.114 96.1966C548.527 96.117 545.86 96.0905 543.449 97.0339C541.039 97.9772 538.92 100.127 538.795 102.713C538.67 105.298 540.324 106.094 540.324 106.094Z" fill="#222222"/>
<path d="M89.6469 313.107L88.0369 313.445C87.352 313.588 71.1696 316.854 63.058 308.487C59.2041 304.51 56.6689 299.665 55.9022 294.85C55.1048 289.703 56.4133 285.179 59.5823 282.107C62.7513 279.036 67.3157 277.87 72.4321 278.826C77.2214 279.72 81.9851 282.404 85.839 286.386C93.9455 294.753 90.1734 310.828 90.0098 311.508L89.6469 313.107ZM65.8641 284.234C64.8787 284.576 63.979 285.127 63.2267 285.849C61.3048 287.715 60.5381 290.628 61.0646 294.058C61.6473 297.814 63.6816 301.653 66.7944 304.868C71.6348 309.862 81.382 309.146 85.2921 308.62C85.9413 304.73 86.9635 295.008 82.1231 290.015C79.0103 286.805 75.2382 284.648 71.4968 283.953C69.6271 283.549 67.6843 283.646 65.8641 284.234Z" fill="#1385FF"/>
<path d="M87.2548 313.176L86.897 311.571C86.7436 310.887 83.2475 294.75 91.4971 286.526C95.4226 282.616 100.227 280.014 105.032 279.202C110.143 278.333 114.708 279.575 117.81 282.703C120.913 285.831 122.155 290.37 121.27 295.481C120.442 300.281 117.825 305.08 113.9 308.99C105.65 317.214 89.5242 313.667 88.8546 313.514L87.2548 313.176ZM111.533 284.691C109.725 284.072 107.786 283.939 105.911 284.308C102.159 284.942 98.3514 287.032 95.1773 290.186C90.25 295.098 91.0882 304.83 91.6863 308.735C95.5862 309.328 105.323 310.212 110.245 305.305C113.414 302.146 115.51 298.343 116.159 294.571C116.747 291.152 116.031 288.223 114.14 286.327C113.399 285.601 112.51 285.043 111.533 284.691Z" fill="#1385FF"/>
<path d="M156.249 318.371H19.1897V429.608H156.249V318.371Z" fill="#73899D"/>
<path d="M100.629 338.232H74.8069V429.602H100.629V338.232Z" fill="#1385FF"/>
<path d="M164.197 310.424H11.2463V338.234H164.197V310.424Z" fill="#73899D"/>
<path d="M100.629 310.424H74.8069V338.234H100.629V310.424Z" fill="#1385FF"/>
<path d="M209.753 355.702L208.725 355.917C208.287 356.009 197.956 358.094 192.777 352.752C190.316 350.213 188.698 347.12 188.208 344.046C187.699 340.759 188.535 337.871 190.558 335.91C192.581 333.949 195.495 333.205 198.762 333.815C201.82 334.386 204.861 336.099 207.322 338.641C212.497 343.984 210.089 354.247 209.984 354.681L209.753 355.702ZM194.569 337.268C193.939 337.486 193.365 337.838 192.885 338.299C191.658 339.49 191.168 341.35 191.504 343.54C191.876 345.938 193.175 348.389 195.162 350.442C198.253 353.63 204.476 353.173 206.972 352.837C207.387 350.354 208.039 344.147 204.949 340.958C202.962 338.909 200.553 337.532 198.165 337.088C196.971 336.831 195.731 336.893 194.569 337.268Z" fill="#1385FF"/>
<path d="M208.226 355.746L207.997 354.722C207.899 354.284 205.667 343.982 210.934 338.731C213.44 336.235 216.508 334.574 219.575 334.055C222.839 333.5 225.753 334.293 227.734 336.29C229.714 338.288 230.507 341.185 229.943 344.449C229.414 347.513 227.743 350.577 225.237 353.074C219.97 358.324 209.675 356.059 209.247 355.962L208.226 355.746ZM223.726 337.56C222.572 337.164 221.334 337.08 220.137 337.315C217.741 337.72 215.31 339.054 213.284 341.068C210.138 344.204 210.673 350.417 211.055 352.91C213.545 353.289 219.761 353.853 222.904 350.721C224.927 348.704 226.265 346.276 226.68 343.868C227.055 341.685 226.598 339.815 225.391 338.604C224.917 338.141 224.35 337.784 223.726 337.56Z" fill="#1385FF"/>
<path d="M252.275 359.063H164.769V430.082H252.275V359.063Z" fill="#73899D"/>
<path d="M216.764 371.743H200.278V430.078H216.764V371.743Z" fill="#1385FF"/>
<path d="M257.349 353.989H159.698V371.745H257.349V353.989Z" fill="#73899D"/>
<path d="M216.764 353.989H200.278V371.745H216.764V353.989Z" fill="#1385FF"/>
<path d="M254.296 330.898C255.217 328.675 256.532 326.638 258.179 324.883L242.092 286.071C241.998 285.845 241.95 285.604 241.95 285.36C241.95 285.116 241.998 284.874 242.091 284.649C242.185 284.423 242.321 284.219 242.494 284.046C242.666 283.874 242.871 283.737 243.096 283.643L252.705 279.661C252.93 279.567 253.171 279.519 253.415 279.519C253.659 279.519 253.901 279.567 254.126 279.661C254.352 279.754 254.556 279.891 254.729 280.063C254.901 280.235 255.038 280.44 255.132 280.666L270.91 318.734C274.861 318.446 278.802 319.41 282.174 321.489C285.546 323.567 288.178 326.655 289.696 330.314L324.205 413.572C325.044 415.596 325.045 417.87 324.207 419.893C323.369 421.917 321.762 423.525 319.738 424.364L299.157 432.895C297.143 433.73 294.879 433.73 292.865 432.896C290.85 432.062 289.25 430.462 288.415 428.448L254.298 346.136C253.293 343.722 252.776 341.132 252.776 338.517C252.775 335.902 253.292 333.313 254.296 330.898Z" fill="#374A5E"/>
<path d="M254.809 347.371L290.615 332.53L310.219 379.828L274.414 394.669L254.809 347.371Z" fill="#1385FF"/>
<path d="M241.706 287.327L242.48 287.006L242.092 286.07C241.998 285.844 241.95 285.603 241.95 285.359C241.95 285.115 241.998 284.873 242.092 284.648C242.185 284.423 242.322 284.218 242.494 284.045C242.666 283.873 242.871 283.736 243.097 283.643L252.705 279.66C252.93 279.567 253.172 279.519 253.416 279.518C253.66 279.518 253.901 279.566 254.126 279.66C254.352 279.753 254.557 279.89 254.729 280.062C254.902 280.235 255.039 280.439 255.132 280.665L255.52 281.601L256.294 281.28L257.943 285.259L257.169 285.579L265.597 305.913L252.557 311.318L244.129 290.984L243.355 291.305L241.706 287.327Z" fill="#1385FF"/>
<g style="mix-blend-mode:multiply">
<path d="M58 429.716L355 146.716L412 429.716H233H58Z" fill="#C2D8F0" fill-opacity="0.5"/>
</g>
<g style="mix-blend-mode:multiply" filter="url(#filter1_f)">
<path d="M3.37378 430.312L361.855 144.669L353 283.716L3.37378 430.312Z" fill="#C2D8F0" fill-opacity="0.05"/>
</g>
<path d="M141.236 410.257H140.65V411.722H141.236V410.257Z" fill="white"/>
<path d="M142.408 410.257H141.822V411.722H142.408V410.257Z" fill="white"/>
<path d="M141.236 412.308H140.65V412.894H141.236V412.308Z" fill="white"/>
<path d="M142.408 412.308H141.822V412.894H142.408V412.308Z" fill="white"/>
<path d="M139.185 413.48H138.599V414.066H139.185V413.48Z" fill="white"/>
<path d="M137.72 419.339H137.135V419.925H137.72V419.339Z" fill="white"/>
<path d="M142.408 413.48H141.822V414.066H142.408V413.48Z" fill="white"/>
<path d="M141.236 414.652H140.65V415.238H141.236V414.652Z" fill="white"/>
<path d="M142.408 414.652H141.822V415.238H142.408V414.652Z" fill="white"/>
<path d="M130.103 404.105H130.982V403.519H129.81C129.649 403.519 129.517 403.65 129.517 403.812V404.984H130.103V404.105Z" fill="white"/>
<path d="M147.974 403.519H146.802V404.105H147.681V404.984H148.267V403.812C148.267 403.65 148.136 403.519 147.974 403.519Z" fill="white"/>
<path d="M130.103 420.804H129.517V421.976C129.517 422.138 129.649 422.269 129.81 422.269H130.982V421.683H130.103V420.804Z" fill="white"/>
<path d="M147.681 421.683H146.802V422.269H147.974C148.136 422.269 148.267 422.138 148.267 421.976V420.804H147.681V421.683Z" fill="white"/>
<path d="M130.689 404.984V408.5C130.689 408.661 130.82 408.792 130.982 408.792H134.498C134.66 408.792 134.791 408.661 134.791 408.5V404.984C134.791 404.822 134.66 404.691 134.498 404.691H130.982C130.82 404.691 130.689 404.822 130.689 404.984ZM131.275 405.277H134.205V408.207H131.275V405.277Z" fill="white"/>
<path d="M133.326 405.863H132.154C131.992 405.863 131.861 405.994 131.861 406.156V407.328C131.861 407.489 131.992 407.621 132.154 407.621H133.326C133.488 407.621 133.619 407.489 133.619 407.328V406.156C133.619 405.994 133.488 405.863 133.326 405.863ZM133.033 407.035H132.447V406.449H133.033V407.035Z" fill="white"/>
<path d="M143.287 408.792H146.802C146.964 408.792 147.095 408.661 147.095 408.5V404.984C147.095 404.822 146.964 404.691 146.802 404.691H143.287C143.125 404.691 142.994 404.822 142.994 404.984V408.5C142.994 408.661 143.125 408.792 143.287 408.792ZM143.58 405.277H146.51V408.207H143.58V405.277Z" fill="white"/>
<path d="M145.631 405.863H144.459C144.297 405.863 144.166 405.994 144.166 406.156V407.328C144.166 407.489 144.297 407.621 144.459 407.621H145.631C145.792 407.621 145.924 407.489 145.924 407.328V406.156C145.924 405.994 145.792 405.863 145.631 405.863ZM145.338 407.035H144.752V406.449H145.338V407.035Z" fill="white"/>
<path d="M134.498 416.996H130.982C130.82 416.996 130.689 417.127 130.689 417.289V420.804C130.689 420.966 130.82 421.097 130.982 421.097H134.498C134.66 421.097 134.791 420.966 134.791 420.804V417.289C134.791 417.127 134.66 416.996 134.498 416.996ZM134.205 420.511H131.275V417.582H134.205V420.511Z" fill="white"/>
<path d="M132.154 419.925H133.326C133.488 419.925 133.619 419.794 133.619 419.632V418.46C133.619 418.299 133.488 418.167 133.326 418.167H132.154C131.992 418.167 131.861 418.299 131.861 418.46V419.632C131.861 419.794 131.992 419.925 132.154 419.925ZM132.447 418.753H133.033V419.339H132.447V418.753Z" fill="white"/>
<path d="M142.408 409.085H140.357V405.57H139.771V409.378C139.771 409.54 139.902 409.671 140.064 409.671H142.408V409.085Z" fill="white"/>
<path d="M138.013 407.035H135.963V407.621H138.013V407.035Z" fill="white"/>
<path d="M139.185 405.863H137.135V406.449H139.185V405.863Z" fill="white"/>
<path d="M131.275 409.085H130.689V411.722H131.275V409.085Z" fill="white"/>
<path d="M134.791 410.843H131.861V411.429H134.498V412.601H135.084V411.136C135.084 410.975 134.952 410.843 134.791 410.843Z" fill="white"/>
<path d="M132.74 409.378H132.154V409.964H132.74V409.378Z" fill="white"/>
<path d="M136.256 408.792H135.67V411.136H136.256V408.792Z" fill="white"/>
<path d="M138.306 411.722H135.67V412.308H138.306V411.722Z" fill="white"/>
<path d="M147.388 412.015H146.802V414.945H145.924V415.531H147.095C147.257 415.531 147.388 415.4 147.388 415.238V412.015Z" fill="white"/>
<path d="M137.72 408.792H137.135V409.378H137.72V408.792Z" fill="white"/>
<path d="M131.275 413.187H130.689V415.531H131.275V413.187Z" fill="white"/>
<path d="M133.326 415.824H130.689V416.41H133.326V415.824Z" fill="white"/>
<path d="M144.166 411.722H144.752V410.55C144.752 410.389 144.62 410.257 144.459 410.257H142.994V410.843H144.166V411.722Z" fill="white"/>
<path d="M132.74 413.187H132.154V413.773H132.74V413.187Z" fill="white"/>
<path d="M135.963 412.894H135.377V415.238H135.963V412.894Z" fill="white"/>
<path d="M138.013 415.824H135.377V416.41H138.013V415.824Z" fill="white"/>
<path d="M134.498 414.652H131.861V415.238H134.498V414.652Z" fill="white"/>
<path d="M136.256 418.753H135.67V419.925H136.256V418.753Z" fill="white"/>
<path d="M138.013 417.582H135.377V418.167H138.013V417.582Z" fill="white"/>
<path d="M140.064 416.41V414.945C140.064 414.783 139.933 414.652 139.771 414.652H136.842V415.238H139.478V416.41H140.064Z" fill="white"/>
<path d="M137.72 412.894H137.135V413.48H137.72V412.894Z" fill="white"/>
<path d="M134.498 413.48H133.912V414.066H134.498V413.48Z" fill="white"/>
<path d="M147.388 419.046H146.802V421.097H147.388V419.046Z" fill="white"/>
<path d="M146.217 420.511H145.338V421.097H146.217V420.511Z" fill="white"/>
<path d="M145.924 418.753H145.338V419.925H145.924V418.753Z" fill="white"/>
<path d="M147.388 416.41C147.388 416.248 147.257 416.117 147.095 416.117H143.873V416.703H146.802V418.46H147.388V416.41Z" fill="white"/>
<path d="M143.58 419.925V418.46C143.58 418.299 143.449 418.167 143.287 418.167H140.064V418.753H142.994V419.925H143.58Z" fill="white"/>
<path d="M146.217 417.289H144.166V417.875H146.217V417.289Z" fill="white"/>
<path d="M137.427 420.511H135.377V421.097H137.427V420.511Z" fill="white"/>
<path d="M138.892 418.46H138.306V421.097H138.892V418.46Z" fill="white"/>
<path d="M140.064 416.996H138.892V417.582H140.064V416.996Z" fill="white"/>
<path d="M143.287 414.066H144.752V413.48H143.58V411.722H142.994V413.773C142.994 413.935 143.125 414.066 143.287 414.066Z" fill="white"/>
<path d="M145.631 412.308H144.166V412.894H145.631V412.308Z" fill="white"/>
<path d="M146.217 409.378H145.338V409.964H146.217V409.378Z" fill="white"/>
<path d="M147.388 409.378H146.802V410.843H147.388V409.378Z" fill="white"/>
<path d="M145.924 410.843H145.338V411.429H145.924V410.843Z" fill="white"/>
<path d="M140.943 408.5H142.115C142.277 408.5 142.408 408.368 142.408 408.207V404.398H141.822V407.914H140.943V408.5Z" fill="white"/>
<path d="M136.549 404.984H140.943V404.398H136.256C136.094 404.398 135.963 404.529 135.963 404.691V406.156H136.549V404.984Z" fill="white"/>
<path d="M136.842 410.55H138.892C139.054 410.55 139.185 410.419 139.185 410.257V407.914H138.599V409.964H136.842V410.55Z" fill="white"/>
<path d="M140.064 410.257H139.478V411.429H140.064V410.257Z" fill="white"/>
<path d="M142.115 419.339H140.064V419.925H142.115V419.339Z" fill="white"/>
<path d="M142.701 420.511H140.064V421.097H142.701V420.511Z" fill="white"/>
<path d="M144.166 420.511H143.58V421.097H144.459C144.62 421.097 144.752 420.966 144.752 420.804V418.46H144.166V420.511Z" fill="white"/>
<path d="M134.791 415.824H134.205V416.41H134.791V415.824Z" fill="white"/>
<path d="M142.115 415.824H140.943V416.41H142.115V415.824Z" fill="white"/>
<path d="M143.58 414.652H142.994V415.531H143.58V414.652Z" fill="white"/>
<path d="M143.287 416.117H142.701V416.703H143.287V416.117Z" fill="white"/>
<path d="M141.822 416.996H140.943V417.582H141.822V416.996Z" fill="white"/>
<path d="M144.752 414.652H144.166V415.238H144.752V414.652Z" fill="white"/>
<path d="M146.217 413.48H145.338V414.066H146.217V413.48Z" fill="white"/>
<path d="M141.236 413.48H139.771V414.066H141.236V413.48Z" fill="white"/>
<path d="M140.064 412.015H139.478V412.894H140.064V412.015Z" fill="white"/>
<path d="M240.11 414.932H239.688V415.987H240.11V414.932Z" fill="white"/>
<path d="M240.954 414.932H240.532V415.987H240.954V414.932Z" fill="white"/>
<path d="M240.11 416.408H239.688V416.83H240.11V416.408Z" fill="white"/>
<path d="M240.954 416.408H240.532V416.83H240.954V416.408Z" fill="white"/>
<path d="M238.633 417.252H238.211V417.674H238.633V417.252Z" fill="white"/>
<path d="M237.579 421.471H237.157V421.893H237.579V421.471Z" fill="white"/>
<path d="M240.954 417.252H240.532V417.674H240.954V417.252Z" fill="white"/>
<path d="M240.11 418.096H239.688V418.518H240.11V418.096Z" fill="white"/>
<path d="M240.954 418.096H240.532V418.518H240.954V418.096Z" fill="white"/>
<path d="M232.094 410.502H232.727V410.08H231.883C231.767 410.08 231.672 410.175 231.672 410.291V411.135H232.094V410.502Z" fill="white"/>
<path d="M244.961 410.08H244.118V410.502H244.75V411.135H245.172V410.291C245.172 410.175 245.078 410.08 244.961 410.08Z" fill="white"/>
<path d="M232.094 422.526H231.672V423.369C231.672 423.486 231.767 423.58 231.883 423.58H232.727V423.158H232.094V422.526Z" fill="white"/>
<path d="M244.75 423.158H244.118V423.58H244.961C245.078 423.58 245.172 423.486 245.172 423.369V422.526H244.75V423.158Z" fill="white"/>
<path d="M232.516 411.135V413.666C232.516 413.783 232.611 413.877 232.727 413.877H235.258C235.375 413.877 235.469 413.783 235.469 413.666V411.135C235.469 411.019 235.375 410.924 235.258 410.924H232.727C232.611 410.924 232.516 411.019 232.516 411.135ZM232.938 411.346H235.047V413.455H232.938V411.346Z" fill="white"/>
<path d="M234.415 411.768H233.571C233.454 411.768 233.36 411.862 233.36 411.979V412.823C233.36 412.939 233.454 413.033 233.571 413.033H234.415C234.531 413.033 234.625 412.939 234.625 412.823V411.979C234.625 411.862 234.531 411.768 234.415 411.768ZM234.204 412.612H233.782V412.19H234.204V412.612Z" fill="white"/>
<path d="M241.586 413.877H244.118C244.234 413.877 244.329 413.783 244.329 413.666V411.135C244.329 411.019 244.234 410.924 244.118 410.924H241.586C241.47 410.924 241.375 411.019 241.375 411.135V413.666C241.375 413.783 241.47 413.877 241.586 413.877ZM241.797 411.346H243.907V413.455H241.797V411.346Z" fill="white"/>
<path d="M243.274 411.768H242.43C242.314 411.768 242.219 411.862 242.219 411.979V412.823C242.219 412.939 242.314 413.033 242.43 413.033H243.274C243.39 413.033 243.485 412.939 243.485 412.823V411.979C243.485 411.862 243.39 411.768 243.274 411.768ZM243.063 412.612H242.641V412.19H243.063V412.612Z" fill="white"/>
<path d="M235.258 419.783H232.727C232.611 419.783 232.516 419.878 232.516 419.994V422.526C232.516 422.642 232.611 422.737 232.727 422.737H235.258C235.375 422.737 235.469 422.642 235.469 422.526V419.994C235.469 419.878 235.375 419.783 235.258 419.783ZM235.047 422.315H232.938V420.205H235.047V422.315Z" fill="white"/>
<path d="M233.571 421.893H234.415C234.531 421.893 234.625 421.798 234.625 421.682V420.838C234.625 420.722 234.531 420.627 234.415 420.627H233.571C233.454 420.627 233.36 420.722 233.36 420.838V421.682C233.36 421.798 233.454 421.893 233.571 421.893ZM233.782 421.049H234.204V421.471H233.782V421.049Z" fill="white"/>
<path d="M240.954 414.088H239.477V411.557H239.055V414.299C239.055 414.416 239.15 414.51 239.266 414.51H240.954V414.088Z" fill="white"/>
<path d="M237.79 412.612H236.313V413.033H237.79V412.612Z" fill="white"/>
<path d="M238.633 411.768H237.157V412.19H238.633V411.768Z" fill="white"/>
<path d="M232.938 414.088H232.516V415.987H232.938V414.088Z" fill="white"/>
<path d="M235.469 415.354H233.36V415.776H235.258V416.619H235.68V415.565C235.68 415.448 235.586 415.354 235.469 415.354Z" fill="white"/>
<path d="M233.993 414.299H233.571V414.721H233.993V414.299Z" fill="white"/>
<path d="M236.524 413.877H236.102V415.565H236.524V413.877Z" fill="white"/>
<path d="M238 415.987H236.102V416.408H238V415.987Z" fill="white"/>
<path d="M244.54 416.198H244.118V418.307H243.485V418.729H244.329C244.445 418.729 244.54 418.634 244.54 418.518V416.198Z" fill="white"/>
<path d="M237.579 413.877H237.157V414.299H237.579V413.877Z" fill="white"/>
<path d="M232.938 417.041H232.516V418.729H232.938V417.041Z" fill="white"/>
<path d="M234.415 418.94H232.516V419.362H234.415V418.94Z" fill="white"/>
<path d="M242.219 415.987H242.641V415.143C242.641 415.026 242.547 414.932 242.43 414.932H241.375V415.354H242.219V415.987Z" fill="white"/>
<path d="M233.993 417.041H233.571V417.463H233.993V417.041Z" fill="white"/>
<path d="M236.313 416.83H235.891V418.518H236.313V416.83Z" fill="white"/>
<path d="M237.79 418.94H235.891V419.362H237.79V418.94Z" fill="white"/>
<path d="M235.258 418.096H233.36V418.518H235.258V418.096Z" fill="white"/>
<path d="M236.524 421.049H236.102V421.893H236.524V421.049Z" fill="white"/>
<path d="M237.79 420.205H235.891V420.627H237.79V420.205Z" fill="white"/>
<path d="M239.266 419.362V418.307C239.266 418.19 239.172 418.096 239.055 418.096H236.946V418.518H238.844V419.362H239.266Z" fill="white"/>
<path d="M237.579 416.83H237.157V417.252H237.579V416.83Z" fill="white"/>
<path d="M235.258 417.252H234.836V417.674H235.258V417.252Z" fill="white"/>
<path d="M244.54 421.26H244.118V422.737H244.54V421.26Z" fill="white"/>
<path d="M243.696 422.315H243.063V422.737H243.696V422.315Z" fill="white"/>
<path d="M243.485 421.049H243.063V421.893H243.485V421.049Z" fill="white"/>
<path d="M244.54 419.362C244.54 419.245 244.445 419.151 244.329 419.151H242.008V419.573H244.118V420.838H244.54V419.362Z" fill="white"/>
<path d="M241.797 421.893V420.838C241.797 420.722 241.703 420.627 241.586 420.627H239.266V421.049H241.375V421.893H241.797Z" fill="white"/>
<path d="M243.696 419.994H242.219V420.416H243.696V419.994Z" fill="white"/>
<path d="M237.368 422.315H235.891V422.737H237.368V422.315Z" fill="white"/>
<path d="M238.422 420.838H238V422.737H238.422V420.838Z" fill="white"/>
<path d="M239.266 419.783H238.422V420.205H239.266V419.783Z" fill="white"/>
<path d="M241.586 417.674H242.641V417.252H241.797V415.987H241.375V417.463C241.375 417.58 241.47 417.674 241.586 417.674Z" fill="white"/>
<path d="M243.274 416.408H242.219V416.83H243.274V416.408Z" fill="white"/>
<path d="M243.696 414.299H243.063V414.721H243.696V414.299Z" fill="white"/>
<path d="M244.54 414.299H244.118V415.354H244.54V414.299Z" fill="white"/>
<path d="M243.485 415.354H243.063V415.776H243.485V415.354Z" fill="white"/>
<path d="M239.899 413.666H240.743C240.859 413.666 240.954 413.572 240.954 413.455V410.713H240.532V413.244H239.899V413.666Z" fill="white"/>
<path d="M236.735 411.135H239.899V410.713H236.524C236.407 410.713 236.313 410.808 236.313 410.924V411.979H236.735V411.135Z" fill="white"/>
<path d="M236.946 415.143H238.422C238.539 415.143 238.633 415.048 238.633 414.932V413.244H238.211V414.721H236.946V415.143Z" fill="white"/>
<path d="M239.266 414.932H238.844V415.776H239.266V414.932Z" fill="white"/>
<path d="M240.743 421.471H239.266V421.893H240.743V421.471Z" fill="white"/>
<path d="M241.165 422.315H239.266V422.737H241.165V422.315Z" fill="white"/>
<path d="M242.219 422.315H241.797V422.737H242.43C242.547 422.737 242.641 422.642 242.641 422.526V420.838H242.219V422.315Z" fill="white"/>
<path d="M235.469 418.94H235.047V419.362H235.469V418.94Z" fill="white"/>
<path d="M240.743 418.94H239.899V419.362H240.743V418.94Z" fill="white"/>
<path d="M241.797 418.096H241.375V418.729H241.797V418.096Z" fill="white"/>
<path d="M241.586 419.151H241.165V419.573H241.586V419.151Z" fill="white"/>
<path d="M240.532 419.783H239.899V420.205H240.532V419.783Z" fill="white"/>
<path d="M242.641 418.096H242.219V418.518H242.641V418.096Z" fill="white"/>
<path d="M243.696 417.252H243.063V417.674H243.696V417.252Z" fill="white"/>
<path d="M240.11 417.252H239.055V417.674H240.11V417.252Z" fill="white"/>
<path d="M239.266 416.198H238.844V416.83H239.266V416.198Z" fill="white"/>
<g clip-path="url(#clip1)">
<rect width="24" height="24" rx="3.75" transform="matrix(0.934551 -0.355829 0.355826 0.934552 267.343 357.573)" fill="white"/>
<path d="M284.03 361.351L283.504 361.551L284.005 362.865L284.53 362.665L284.03 361.351Z" fill="#212734"/>
<path d="M285.081 360.951L284.556 361.151L285.056 362.465L285.582 362.265L285.081 360.951Z" fill="#212734"/>
<path d="M284.731 363.191L284.205 363.391L284.405 363.917L284.931 363.716L284.731 363.191Z" fill="#212734"/>
<path d="M285.782 362.791L285.256 362.991L285.456 363.516L285.982 363.316L285.782 362.791Z" fill="#212734"/>
<path d="M283.291 364.943L282.765 365.143L282.965 365.669L283.491 365.468L283.291 364.943Z" fill="#212734"/>
<path d="M283.978 370.7L283.453 370.9L283.653 371.426L284.178 371.226L283.978 370.7Z" fill="#212734"/>
<path d="M286.182 363.842L285.656 364.042L285.857 364.568L286.382 364.368L286.182 363.842Z" fill="#212734"/>
<path d="M285.531 365.293L285.005 365.494L285.206 366.019L285.731 365.819L285.531 365.293Z" fill="#212734"/>
<path d="M286.582 364.893L286.057 365.094L286.257 365.619L286.783 365.419L286.582 364.893Z" fill="#212734"/>
<path d="M271.94 359.634L272.729 359.334L272.529 358.808L271.477 359.209C271.332 359.264 271.259 359.426 271.315 359.571L271.715 360.623L272.241 360.423L271.94 359.634Z" fill="#212734"/>
<path d="M287.774 353.004L286.722 353.404L286.922 353.93L287.711 353.63L288.011 354.418L288.537 354.218L288.136 353.167C288.081 353.021 287.919 352.949 287.774 353.004Z" fill="#212734"/>
<path d="M277.645 374.616L277.119 374.816L277.519 375.868C277.575 376.013 277.737 376.086 277.882 376.031L278.934 375.63L278.733 375.105L277.945 375.405L277.645 374.616Z" fill="#212734"/>
<path d="M293.715 369.4L292.927 369.7L293.127 370.226L294.178 369.826C294.324 369.771 294.396 369.608 294.341 369.463L293.941 368.411L293.415 368.612L293.715 369.4Z" fill="#212734"/>
<path d="M272.766 360.223L273.967 363.377C274.022 363.522 274.185 363.595 274.33 363.539L277.484 362.339C277.629 362.283 277.702 362.121 277.647 361.976L276.446 358.821C276.391 358.676 276.228 358.603 276.083 358.659L272.929 359.86C272.784 359.915 272.711 360.077 272.766 360.223ZM273.392 360.285L276.02 359.284L277.021 361.913L274.393 362.914L273.392 360.285Z" fill="#212734"/>
<path d="M275.432 360.11L274.381 360.511C274.236 360.566 274.163 360.729 274.218 360.874L274.618 361.925C274.673 362.07 274.836 362.143 274.981 362.088L276.032 361.688C276.178 361.632 276.25 361.47 276.195 361.325L275.795 360.273C275.74 360.128 275.577 360.055 275.432 360.11ZM275.569 361.262L275.044 361.462L274.844 360.936L275.369 360.736L275.569 361.262Z" fill="#212734"/>
<path d="M285.369 359.336L288.524 358.135C288.669 358.08 288.742 357.917 288.686 357.772L287.485 354.618C287.43 354.473 287.268 354.4 287.123 354.455L283.968 355.656C283.823 355.712 283.75 355.874 283.806 356.019L285.007 359.173C285.062 359.318 285.224 359.391 285.369 359.336ZM284.431 356.082L287.06 355.081L288.061 357.71L285.432 358.71L284.431 356.082Z" fill="#212734"/>
<path d="M286.471 355.907L285.42 356.307C285.275 356.363 285.202 356.525 285.257 356.67L285.658 357.722C285.713 357.867 285.875 357.94 286.021 357.884L287.072 357.484C287.217 357.429 287.29 357.266 287.235 357.121L286.834 356.07C286.779 355.925 286.617 355.852 286.471 355.907ZM286.609 357.059L286.083 357.259L285.883 356.733L286.409 356.533L286.609 357.059Z" fill="#212734"/>
<path d="M280.286 369.698L277.132 370.899C276.987 370.954 276.914 371.117 276.969 371.262L278.17 374.416C278.226 374.561 278.388 374.634 278.533 374.579L281.687 373.378C281.832 373.323 281.905 373.16 281.85 373.015L280.649 369.861C280.594 369.716 280.431 369.643 280.286 369.698ZM281.224 372.952L278.596 373.953L277.595 371.325L280.224 370.324L281.224 372.952Z" fill="#212734"/>
<path d="M279.184 373.127L280.236 372.727C280.381 372.672 280.454 372.509 280.398 372.364L279.998 371.313C279.943 371.167 279.78 371.095 279.635 371.15L278.584 371.55C278.439 371.605 278.366 371.768 278.421 371.913L278.821 372.964C278.877 373.109 279.039 373.182 279.184 373.127ZM279.047 371.976L279.573 371.776L279.773 372.301L279.247 372.501L279.047 371.976Z" fill="#212734"/>
<path d="M284.681 359.899L282.841 360.6L281.64 357.446L281.115 357.646L282.415 361.063C282.471 361.208 282.633 361.281 282.778 361.225L284.881 360.425L284.681 359.899Z" fill="#212734"/>
<path d="M280.038 359.56L278.198 360.261L278.398 360.787L280.238 360.086L280.038 359.56Z" fill="#212734"/>
<path d="M280.689 358.109L278.849 358.809L279.049 359.335L280.889 358.634L280.689 358.109Z" fill="#212734"/>
<path d="M274.693 363.702L274.167 363.902L275.068 366.268L275.594 366.068L274.693 363.702Z" fill="#212734"/>
<path d="M278.448 364.078L275.819 365.079L276.019 365.605L278.385 364.704L278.785 365.755L279.311 365.555L278.81 364.241C278.755 364.096 278.593 364.023 278.448 364.078Z" fill="#212734"/>
<path d="M276.107 363.465L275.582 363.665L275.782 364.19L276.307 363.99L276.107 363.465Z" fill="#212734"/>
<path d="M279.061 361.738L278.536 361.938L279.336 364.041L279.862 363.841L279.061 361.738Z" fill="#212734"/>
<path d="M281.902 363.666L279.536 364.567L279.736 365.092L282.102 364.192L281.902 363.666Z" fill="#212734"/>
<path d="M290.15 360.826L289.624 361.026L290.625 363.655L289.837 363.955L290.037 364.481L291.088 364.08C291.233 364.025 291.306 363.863 291.251 363.718L290.15 360.826Z" fill="#212734"/>
<path d="M280.375 361.238L279.85 361.438L280.05 361.963L280.576 361.763L280.375 361.238Z" fill="#212734"/>
<path d="M276.094 367.382L275.568 367.582L276.369 369.685L276.895 369.485L276.094 367.382Z" fill="#212734"/>
<path d="M278.835 369.047L276.469 369.948L276.669 370.473L279.035 369.573L278.835 369.047Z" fill="#212734"/>
<path d="M287.159 361.664L287.684 361.464L287.284 360.413C287.229 360.268 287.066 360.195 286.921 360.25L285.607 360.75L285.807 361.276L286.859 360.876L287.159 361.664Z" fill="#212734"/>
<path d="M277.408 366.882L276.883 367.082L277.083 367.607L277.608 367.407L277.408 366.882Z" fill="#212734"/>
<path d="M280.2 365.518L279.674 365.718L280.474 367.821L281 367.621L280.2 365.518Z" fill="#212734"/>
<path d="M283.04 367.446L280.675 368.346L280.875 368.872L283.24 367.971L283.04 367.446Z" fill="#212734"/>
<path d="M279.486 367.595L277.12 368.496L277.32 369.022L279.686 368.121L279.486 367.595Z" fill="#212734"/>
<path d="M282.464 370.675L281.938 370.875L282.338 371.926L282.864 371.726L282.464 370.675Z" fill="#212734"/>
<path d="M283.641 369.023L281.275 369.924L281.475 370.449L283.841 369.549L283.641 369.023Z" fill="#212734"/>
<path d="M285.08 367.271L284.58 365.957C284.525 365.812 284.362 365.739 284.217 365.794L281.589 366.795L281.789 367.32L284.154 366.42L284.555 367.471L285.08 367.271Z" fill="#212734"/>
<path d="M281.777 364.918L281.251 365.118L281.451 365.643L281.977 365.443L281.777 364.918Z" fill="#212734"/>
<path d="M279.085 366.544L278.56 366.744L278.76 367.27L279.286 367.07L279.085 366.544Z" fill="#212734"/>
<path d="M292.552 367.135L292.026 367.335L292.727 369.175L293.252 368.974L292.552 367.135Z" fill="#212734"/>
<path d="M292.001 368.849L291.212 369.149L291.413 369.675L292.201 369.375L292.001 368.849Z" fill="#212734"/>
<path d="M291.138 367.372L290.612 367.572L291.012 368.624L291.538 368.423L291.138 367.372Z" fill="#212734"/>
<path d="M291.651 364.769C291.596 364.624 291.433 364.551 291.288 364.606L288.397 365.707L288.597 366.233L291.226 365.232L291.826 366.809L292.352 366.609L291.651 364.769Z" fill="#212734"/>
<path d="M289.435 369.224L288.935 367.91C288.88 367.765 288.717 367.692 288.572 367.747L285.681 368.848L285.881 369.374L288.509 368.373L288.91 369.424L289.435 369.224Z" fill="#212734"/>
<path d="M290.9 365.958L289.06 366.658L289.26 367.184L291.1 366.484L290.9 365.958Z" fill="#212734"/>
<path d="M284.116 371.851L282.276 372.552L282.476 373.078L284.316 372.377L284.116 371.851Z" fill="#212734"/>
<path d="M284.729 369.511L284.204 369.711L285.104 372.077L285.63 371.877L284.729 369.511Z" fill="#212734"/>
<path d="M285.28 367.797L284.229 368.197L284.429 368.723L285.481 368.322L285.28 367.797Z" fill="#212734"/>
<path d="M287.171 364.067L288.485 363.567L288.285 363.041L287.234 363.442L286.633 361.865L286.107 362.065L286.808 363.905C286.863 364.05 287.026 364.123 287.171 364.067Z" fill="#212734"/>
<path d="M288.673 361.69L287.359 362.19L287.559 362.716L288.873 362.215L288.673 361.69Z" fill="#212734"/>
<path d="M288.198 358.861L287.41 359.161L287.61 359.687L288.398 359.387L288.198 358.861Z" fill="#212734"/>
<path d="M289.249 358.461L288.724 358.661L289.224 359.975L289.75 359.775L289.249 358.461Z" fill="#212734"/>
<path d="M288.436 360.275L287.91 360.476L288.11 361.001L288.636 360.801L288.436 360.275Z" fill="#212734"/>
<path d="M283.167 359.874L284.218 359.474C284.363 359.418 284.436 359.256 284.381 359.111L283.08 355.694L282.554 355.894L283.755 359.048L282.967 359.348L283.167 359.874Z" fill="#212734"/>
<path d="M278.023 358.221L281.966 356.72L281.766 356.194L277.56 357.795C277.415 357.851 277.342 358.013 277.397 358.158L277.898 359.473L278.423 359.272L278.023 358.221Z" fill="#212734"/>
<path d="M280.187 363.115L282.027 362.414C282.172 362.359 282.245 362.196 282.19 362.051L281.389 359.949L280.864 360.149L281.564 361.989L279.987 362.589L280.187 363.115Z" fill="#212734"/>
<path d="M282.979 361.751L282.453 361.951L282.853 363.003L283.379 362.803L282.979 361.751Z" fill="#212734"/>
<path d="M287.921 369.199L286.081 369.899L286.281 370.425L288.121 369.725L287.921 369.199Z" fill="#212734"/>
<path d="M288.847 370.05L286.481 370.951L286.681 371.476L289.047 370.576L288.847 370.05Z" fill="#212734"/>
<path d="M290.161 369.55L289.635 369.75L289.836 370.275L290.624 369.975C290.769 369.92 290.842 369.757 290.787 369.612L289.986 367.51L289.46 367.71L290.161 369.55Z" fill="#212734"/>
<path d="M280.149 368.547L279.623 368.747L279.823 369.273L280.349 369.072L280.149 368.547Z" fill="#212734"/>
<path d="M286.72 366.045L285.669 366.445L285.869 366.971L286.92 366.57L286.72 366.045Z" fill="#212734"/>
<path d="M287.634 364.493L287.108 364.693L287.408 365.482L287.934 365.281L287.634 364.493Z" fill="#212734"/>
<path d="M287.871 365.907L287.346 366.107L287.546 366.633L288.072 366.433L287.871 365.907Z" fill="#212734"/>
<path d="M286.857 367.196L286.069 367.496L286.269 368.022L287.058 367.722L286.857 367.196Z" fill="#212734"/>
<path d="M288.685 364.093L288.16 364.293L288.36 364.818L288.885 364.618L288.685 364.093Z" fill="#212734"/>
<path d="M289.599 362.541L288.811 362.841L289.011 363.367L289.799 363.067L289.599 362.541Z" fill="#212734"/>
<path d="M285.131 364.242L283.817 364.743L284.017 365.268L285.331 364.768L285.131 364.242Z" fill="#212734"/>
<path d="M283.579 363.328L283.053 363.528L283.354 364.317L283.879 364.117L283.579 363.328Z" fill="#212734"/>
</g>
<rect x="646" y="39.7158" width="30" height="28" fill="#007BFE"/>
<rect x="628" y="25.7158" width="30" height="28" fill="#C1DFFF"/>
<rect width="30" height="28" transform="matrix(-1 0 0 1 185 175.716)" fill="#C1DFFF"/>
<rect width="30" height="28" transform="matrix(-1 0 0 1 175 189.716)" fill="#007BFE"/>
<circle cx="464" cy="282.716" r="8" fill="#51F34E"/>
<path d="M461 282.778L462.969 284.747L468 279.716" stroke="white" stroke-width="1.5"/>
<path d="M485.636 325.241L486.188 329.679L481.972 330.204" stroke="#007BFE" stroke-width="1.34168" stroke-linecap="round"/>
<path d="M455.552 309.607L455 305.169L459.216 304.644" stroke="#007BFE" stroke-width="1.34168" stroke-linecap="round"/>
<path d="M483.29 306.154L482.738 301.716L478.521 302.241" stroke="#007BFE" stroke-width="1.34168" stroke-linecap="round"/>
<path d="M458.15 328.663L458.703 333.101L462.919 332.576" stroke="#007BFE" stroke-width="1.34168" stroke-linecap="round"/>
<rect x="458.523" y="308.34" width="21.0121" height="21.0121" rx="5.73057" transform="rotate(-7.09632 458.523 308.34)" fill="#007BFE"/>
<path d="M469.45 310.829L464.208 313.422L464.727 317.591L469.998 318.754C470.583 318.883 470.786 319.613 470.351 320.025C470.185 320.183 469.956 320.256 469.729 320.223L465.517 319.609C466.374 321.208 468.685 324.295 471.072 323.857C473.459 323.419 475.112 319.297 475.64 317.291L469.913 315.973C469.487 315.875 469.197 315.48 469.23 315.045C469.272 314.506 469.783 314.131 470.309 314.252L475.777 315.51L475.302 311.688L469.45 310.829Z" fill="white"/>
</g>
<defs>
<filter id="filter0_d" x="397.276" y="183.813" width="111.691" height="111.691" filterUnits="userSpaceOnUse" color-interpolation-filters="sRGB">
<feFlood flood-opacity="0" result="BackgroundImageFix"/>
<feColorMatrix in="SourceAlpha" type="matrix" values="0 0 0 0 0 0 0 0 0 0 0 0 0 0 0 0 0 0 127 0" result="hardAlpha"/>
<feOffset dy="4"/>
<feGaussianBlur stdDeviation="2"/>
<feComposite in2="hardAlpha" operator="out"/>
<feColorMatrix type="matrix" values="0 0 0 0 0 0 0 0 0 0 0 0 0 0 0 0 0 0 0.15 0"/>
<feBlend mode="normal" in2="BackgroundImageFix" result="effect1_dropShadow"/>
<feBlend mode="normal" in="SourceGraphic" in2="effect1_dropShadow" result="shape"/>
</filter>
<filter id="filter1_f" x="-14.6262" y="126.669" width="394.482" height="321.643" filterUnits="userSpaceOnUse" color-interpolation-filters="sRGB">
<feFlood flood-opacity="0" result="BackgroundImageFix"/>
<feBlend mode="normal" in="SourceGraphic" in2="BackgroundImageFix" result="shape"/>
<feGaussianBlur stdDeviation="9" result="effect1_foregroundBlur"/>
</filter>
<clipPath id="clip0">
<rect width="767" height="430.095" fill="white" transform="translate(0 0.71582)"/>
</clipPath>
<clipPath id="clip1">
<rect width="24" height="24" rx="3.75" transform="matrix(0.934551 -0.355829 0.355826 0.934552 267.343 357.573)" fill="white"/>
</clipPath>
</defs>
</svg>
