<svg width="36" height="36" viewBox="0 0 36 36" fill="none" xmlns="http://www.w3.org/2000/svg">
<path d="M32.8321 14.2973C32.74 14.0306 32.5724 13.7963 32.3498 13.6228C32.1272 13.4494 31.8591 13.3443 31.5779 13.3202L23.28 12.1098L19.5612 4.57022C19.4418 4.32366 19.2554 4.11572 19.0232 3.97022C18.7911 3.82473 18.5227 3.74756 18.2487 3.74756C17.9748 3.74756 17.7063 3.82473 17.4742 3.97022C17.2421 4.11572 17.0556 4.32366 16.9362 4.57022L13.2175 12.0952L4.91956 13.3202C4.64965 13.3586 4.39591 13.4718 4.18711 13.6471C3.97832 13.8224 3.82283 14.0527 3.73831 14.3119C3.66094 14.5652 3.65399 14.8347 3.71822 15.0916C3.78246 15.3486 3.91544 15.5832 4.10289 15.7702L10.1258 21.6036L8.66747 29.8869C8.61541 30.1603 8.64267 30.4429 8.74604 30.7013C8.8494 30.9597 9.02455 31.1831 9.25081 31.3452C9.47133 31.5029 9.73144 31.5959 10.0019 31.614C10.2724 31.632 10.5426 31.5743 10.7821 31.4473L18.2487 27.5536L25.6862 31.4619C25.8909 31.5774 26.1221 31.6377 26.3571 31.6369C26.666 31.638 26.9672 31.541 27.2175 31.3598C27.4437 31.1977 27.6189 30.9743 27.7222 30.7159C27.8256 30.4575 27.8529 30.1749 27.8008 29.9015L26.3425 21.6181L32.3654 15.7848C32.5759 15.6064 32.7316 15.372 32.8142 15.1086C32.8968 14.8453 32.903 14.564 32.8321 14.2973ZM23.8633 20.1306C23.6923 20.2961 23.5643 20.5008 23.4906 20.7271C23.4169 20.9533 23.3996 21.1941 23.4404 21.4286L24.4904 27.539L19.0071 24.6223C18.7961 24.51 18.5607 24.4512 18.3216 24.4512C18.0826 24.4512 17.8472 24.51 17.6362 24.6223L12.1529 27.539L13.2029 21.4286C13.2436 21.1941 13.2264 20.9533 13.1527 20.7271C13.079 20.5008 12.951 20.2961 12.78 20.1306L8.40497 15.7556L14.5446 14.8661C14.7808 14.8332 15.0054 14.7429 15.1986 14.603C15.3918 14.4632 15.5478 14.2781 15.6529 14.064L18.2487 8.50772L20.9904 14.0786C21.0954 14.2927 21.2514 14.4778 21.4447 14.6176C21.6379 14.7575 21.8625 14.8478 22.0987 14.8806L28.2383 15.7702L23.8633 20.1306Z" fill="#007BFE"/>
</svg>
