<svg width="142" height="143" viewBox="0 0 142 143" fill="none" xmlns="http://www.w3.org/2000/svg">
<circle cx="71" cy="71.7158" r="71" fill="#F3F9FF"/>
<path d="M45.8159 49.4702L51.3572 50.4293L53.9227 80.9943C54.1278 83.4905 56.2138 85.406 58.718 85.398H87.7805C90.1701 85.4033 92.1975 83.645 92.5358 81.2793L95.064 63.8083C95.3464 61.8555 93.9904 60.044 92.0403 59.7616C91.8698 59.7376 52.247 59.7243 52.247 59.7243" stroke="#1385FF" stroke-width="3" stroke-linecap="round" stroke-linejoin="round"/>
<path d="M76.1198 69.5704H83.5072" stroke="#1385FF" stroke-width="3" stroke-linecap="round" stroke-linejoin="round"/>
<path fill-rule="evenodd" clip-rule="evenodd" d="M57.5494 94.6333C58.3512 94.6333 58.9986 95.2833 58.9986 96.0825C58.9986 96.8844 58.3512 97.5345 57.5494 97.5345C56.7475 97.5345 56.1001 96.8844 56.1001 96.0825C56.1001 95.2833 56.7475 94.6333 57.5494 94.6333Z" fill="#1385FF" stroke="#1385FF" stroke-width="3" stroke-linecap="round" stroke-linejoin="round"/>
<path fill-rule="evenodd" clip-rule="evenodd" d="M87.6009 94.6333C88.4028 94.6333 89.0528 95.2833 89.0528 96.0825C89.0528 96.8844 88.4028 97.5345 87.6009 97.5345C86.799 97.5345 86.1516 96.8844 86.1516 96.0825C86.1516 95.2833 86.799 94.6333 87.6009 94.6333Z" fill="#1385FF" stroke="#1385FF" stroke-width="3" stroke-linecap="round" stroke-linejoin="round"/>
</svg>
