<svg width="150" height="107" viewBox="0 0 150 107" fill="none" xmlns="http://www.w3.org/2000/svg">
<g clip-path="url(#clip0)">
<path d="M136.193 96.0105C137.498 98.3174 136.391 106.109 136.391 106.109C136.391 106.109 129.144 103.041 127.839 100.735C127.214 99.6276 127.054 98.3171 127.395 97.0917C127.735 95.8662 128.549 94.8262 129.656 94.2C130.763 93.5738 132.073 93.4128 133.299 93.7523C134.525 94.0918 135.565 94.904 136.193 96.0105V96.0105Z" fill="#C1DFFF"/>
<path d="M136.496 106.098L136.342 106.13C134.859 99.0851 129.681 94.3077 129.629 94.2603L129.735 94.1439C129.787 94.1917 135.002 99.0015 136.496 106.098Z" fill="white"/>
<path d="M148.05 98.6358C146.28 101.848 136.295 106.2 136.295 106.2C136.295 106.2 134.649 95.4338 136.419 92.2223C137.269 90.6799 138.698 89.5385 140.39 89.0492C142.082 88.5599 143.899 88.7628 145.441 89.6133C146.984 90.4638 148.125 91.8921 148.615 93.5842C149.104 95.2762 148.901 97.0933 148.05 98.6358Z" fill="#C1DFFF"/>
<path d="M136.383 106.317L136.233 106.16C143.458 99.2981 145.329 89.7282 145.347 89.6324L145.561 89.6726C145.542 89.7691 143.661 99.4061 136.383 106.317Z" fill="white"/>
<path d="M35.3018 74.3102C34.1592 74.3064 33.0216 74.1592 31.9156 73.8722L31.6976 73.8119L31.4954 73.7105C24.1845 70.045 18.0167 65.2034 13.1633 59.32C9.14575 54.4213 6.01345 48.8593 3.9073 42.8841C1.38867 35.7304 0.176964 28.182 0.330023 20.5994C0.333111 20.4403 0.335725 20.3174 0.335725 20.2327C0.335725 16.5467 2.38172 13.3126 5.54812 11.9932C7.97153 10.9835 29.9749 1.9458 31.5647 1.2928C34.5587 -0.207394 37.7528 1.04476 38.264 1.26372C39.4105 1.73248 59.7513 10.0521 64.1469 12.1452C68.677 14.3024 69.8857 18.1777 69.8857 20.1275C69.8857 28.9546 68.357 37.2042 65.3419 44.6473C62.9069 50.6719 59.4557 56.2337 55.1388 61.0906C46.8097 70.4637 38.4784 73.7866 38.398 73.8159C37.4023 74.1585 36.3547 74.3257 35.3018 74.3102ZM33.3426 69.4571C34.0649 69.619 35.7279 69.8619 36.8118 69.4665C38.1887 68.9643 45.1618 65.3484 51.6781 58.0154C60.6812 47.8837 65.2494 35.1473 65.2561 20.16C65.24 19.8564 65.0244 17.6908 62.1565 16.3252C57.8461 14.2726 36.7036 5.62745 36.4905 5.54032L36.4321 5.51555C35.989 5.32988 34.5789 4.9388 33.6069 5.44815L33.4123 5.53888C33.1767 5.63568 9.8198 15.2288 7.32878 16.2667C5.58624 16.9928 4.96538 18.7915 4.96538 20.2327C4.96538 20.338 4.96265 20.4912 4.9588 20.6892C4.75972 30.9441 7.13276 56.1781 33.3426 69.4571Z" fill="#3F3D56"/>
<path d="M32.5344 3.39893C32.5344 3.39893 8.96527 13.0791 6.44 14.1313C3.91473 15.1835 2.6521 17.7088 2.6521 20.234C2.6521 22.7593 0.758156 55.7106 32.5344 71.6425C32.5344 71.6425 35.4184 72.4405 37.6065 71.6425C39.7945 70.8446 67.5724 57.3765 67.5724 20.1288C67.5724 20.1288 67.5724 16.3409 63.1532 14.2365C58.734 12.1321 37.3679 3.39893 37.3679 3.39893C37.3679 3.39893 34.744 2.24151 32.5344 3.39893Z" fill="#007BFE"/>
<path opacity="0.1" d="M35.0598 10.9729V62.6132C35.0598 62.6132 11.2802 51.1667 11.4906 21.074L35.0598 10.9729Z" fill="black"/>
<path d="M35.3699 48.0879L27.7949 38.3481L32.2001 34.9219L35.7869 39.5335L47.9035 26.7427L51.9553 30.5816L35.3699 48.0879Z" fill="white"/>
<path d="M148.94 106.663H79.7232C79.675 106.663 79.6288 106.644 79.5947 106.61C79.5606 106.576 79.5415 106.53 79.5415 106.482C79.5415 106.433 79.5606 106.387 79.5947 106.353C79.6288 106.319 79.675 106.3 79.7232 106.3H148.94C148.988 106.3 149.035 106.319 149.069 106.353C149.103 106.387 149.122 106.433 149.122 106.482C149.122 106.53 149.103 106.576 149.069 106.61C149.035 106.644 148.988 106.663 148.94 106.663Z" fill="#CACACA"/>
<path d="M99.732 103.799L102.542 103.799L103.878 92.9619L99.7314 92.9621L99.732 103.799Z" fill="#FCCFCF"/>
<path d="M99.0151 102.881L104.548 102.881H104.549C105.484 102.881 106.381 103.253 107.042 103.914C107.703 104.575 108.075 105.472 108.075 106.407V106.522L99.0153 106.522L99.0151 102.881Z" fill="#212734"/>
<path d="M109.179 103.799L111.988 103.799L113.325 92.9619L109.178 92.9621L109.179 103.799Z" fill="#FCCFCF"/>
<path d="M108.462 102.881L113.995 102.881H113.995C114.931 102.881 115.828 103.253 116.489 103.914C117.15 104.575 117.522 105.472 117.522 106.407V106.522L108.462 106.522L108.462 102.881Z" fill="#212734"/>
<path d="M104.148 65.7408L104.822 100.122L99.3697 99.7841L95.5872 77.885L94.3926 62.9536L104.148 65.7408Z" fill="#212734"/>
<path d="M113.505 59.9688L114.269 100.669L107.91 100.487L106.537 76.2936L104.148 67.5339L94.3926 62.955L95.9852 52.0054L110.319 51.8063L113.505 59.9688Z" fill="#212734"/>
<path d="M102.542 23.5352C105.235 23.5352 107.418 21.3522 107.418 18.6594C107.418 15.9666 105.235 13.7836 102.542 13.7836C99.8495 13.7836 97.6665 15.9666 97.6665 18.6594C97.6665 21.3522 99.8495 23.5352 102.542 23.5352Z" fill="#FCCFCF"/>
<path d="M106.586 25.5895L107.333 26.721L109.324 32.2952L107.732 53.9952L98.3745 54.1945L97.1802 29.3089L99.6823 26.1812L106.586 25.5895Z" fill="#73899D"/>
<path d="M93.3971 29.9059L91.8045 29.7068C91.8045 29.7068 91.4063 29.9059 91.2072 31.2995C91.0081 32.693 88.6191 45.0362 88.6191 45.0362L91.8045 60.1666L95.388 55.3886L93.1981 47.0271L95.388 38.6656L93.3971 29.9059Z" fill="#212734"/>
<path d="M113.704 29.7068H114.898L117.885 45.8324L115.097 58.3746L112.31 53.7958L113.106 48.8187L112.708 44.4389L111.315 41.8507L113.704 29.7068Z" fill="#212734"/>
<path d="M105.423 18.6611L104.537 18.4394C104.537 18.4394 103.872 14.6718 102.32 15.115C100.769 15.5583 96.7798 16.0016 96.7798 14.2285C96.7798 12.4555 100.547 10.9042 102.764 11.1258C104.98 11.3474 107.81 12.0827 108.526 15.3367C109.673 20.553 106.159 21.8706 106.159 21.8706L106.218 21.6807C106.38 21.1533 106.392 20.5911 106.251 20.0575C106.111 19.5239 105.824 19.0402 105.423 18.6611Z" fill="#212734"/>
<path d="M92.0037 29.7065L98.3743 27.1184L99.8675 26.0235L104.347 45.8323L106.437 25.4262L114.699 29.7065L111.912 43.2442L111.514 48.4203L112.708 52.6011C112.708 52.6011 116.889 55.5874 115.496 58.7727C114.102 61.958 112.509 62.1571 112.509 62.1571C112.509 62.1571 105.74 55.7864 105.342 54.1938C104.944 52.6011 104.347 49.8139 104.347 49.8139C104.347 49.8139 100.962 62.5553 96.9808 62.3562C92.9991 62.1571 92.9991 57.9763 92.9991 57.9763L93.9945 53.5965L95.5872 49.0176L94.7909 41.4524L92.0037 29.7065Z" fill="#212734"/>
</g>
<defs>
<clipPath id="clip0">
<rect x="0.31958" y="0.56604" width="148.802" height="106.097" rx="15.9459" fill="white"/>
</clipPath>
</defs>
</svg>
