<svg width="137" height="138" viewBox="0 0 137 138" fill="none" xmlns="http://www.w3.org/2000/svg">
<g clip-path="url(#clip0)">
<path d="M84.3104 126.453L82.3872 125.228C82.2989 124.153 82.2713 123.073 82.3045 121.994L83.3021 122.249L82.3175 121.622C82.3719 120.288 82.4923 119.409 82.4923 119.409C82.4923 119.409 86.3807 121.935 88.8606 125.358L88.4377 128.253L89.4462 126.229C89.7041 126.642 89.9359 127.07 90.14 127.512C92.1832 131.976 92.3818 136.262 90.5834 137.085C88.7851 137.908 85.671 134.957 83.6278 130.493C83.0114 129.058 82.6188 127.536 82.4635 125.982L84.3104 126.453Z" fill="#E6E6E6"/>
<path d="M80.3595 130.763L78.0799 130.708C77.4483 129.833 76.8666 128.923 76.3375 127.982L77.3233 127.685L76.1561 127.657C75.5134 126.487 75.1619 125.672 75.1619 125.672C75.1619 125.672 79.796 125.824 83.6885 127.473L84.8231 130.17L84.6398 127.915C85.0741 128.136 85.4941 128.383 85.8973 128.656C89.9536 131.421 92.3389 134.987 91.225 136.621C90.1111 138.255 85.9197 137.339 81.8634 134.574C80.5937 133.663 79.4711 132.564 78.5347 131.313L80.3595 130.763Z" fill="#E6E6E6"/>
<path d="M93.8325 134.788L91.3437 134.788L90.4102 125.108L93.8329 125.189L93.8325 134.788Z" fill="#A0616A"/>
<path d="M94.4672 137.2L86.4426 137.2V137.098C86.4427 136.27 86.7718 135.476 87.3575 134.89C87.9433 134.304 88.7377 133.975 89.566 133.975H89.5662L94.4674 133.975L94.4672 137.2Z" fill="#212734"/>
<path d="M123.193 127.604L121.561 129.483L113.538 124.081L115.947 121.308L123.193 127.604Z" fill="#A0616A"/>
<path d="M125.431 128.706L120.168 134.763L120.091 134.697C119.466 134.153 119.082 133.384 119.024 132.557C118.966 131.731 119.238 130.916 119.782 130.29L119.782 130.29L122.996 126.59L125.431 128.706Z" fill="#212734"/>
<path d="M136.088 137.506H68.2277C68.1636 137.506 68.1021 137.48 68.0568 137.435C68.0114 137.389 67.986 137.328 67.986 137.264C67.986 137.2 68.0114 137.138 68.0568 137.093C68.1021 137.048 68.1636 137.022 68.2277 137.022H136.088C136.152 137.022 136.214 137.048 136.259 137.093C136.304 137.138 136.33 137.2 136.33 137.264C136.33 137.328 136.304 137.389 136.259 137.435C136.214 137.48 136.152 137.506 136.088 137.506Z" fill="#CACACA"/>
<path d="M99.3001 112.001L94.064 131.4H90.004L90.8958 110.184L93.2495 89.5137L101.799 89.0594L99.3001 112.001Z" fill="#212734"/>
<path d="M108.386 89.5142C108.386 89.5142 108.841 92.4671 107.023 95.6472C105.206 98.8272 106.342 109.503 106.342 109.503L121.672 124.905C121.672 124.905 119.289 129.038 118.154 128.81C117.018 128.583 99.0733 114.046 99.0733 114.046L93.2498 90.4228L108.386 89.5142Z" fill="#212734"/>
<path d="M99.9336 55.1286C102.819 55.1286 105.158 52.7896 105.158 49.9043C105.158 47.019 102.819 44.6799 99.9336 44.6799C97.0483 44.6799 94.7092 47.019 94.7092 49.9043C94.7092 52.7896 97.0483 55.1286 99.9336 55.1286Z" fill="#A0616A"/>
<path d="M100.154 58.1185C100.154 58.1185 106.244 55.8131 106.244 56.4945C106.244 57.1759 112.248 62.9378 110.885 70.4336C109.522 77.9294 107.932 81.5637 108.613 85.6523C109.295 89.741 108.841 90.6495 108.841 90.6495C108.841 90.6495 93.0225 92.0124 92.7954 90.4224C92.5682 88.8324 93.4552 86.4074 93.4552 85.7259C93.4552 85.0445 99.7317 59.872 100.154 58.1185Z" fill="#575A89"/>
<path opacity="0.2" d="M107.016 80.4577L101.004 90.3089H103.048L107.016 80.4577Z" fill="black"/>
<path d="M102.298 53.0434C101.875 52.8198 101.384 52.7737 100.926 52.6347C99.2881 52.1374 98.191 50.286 98.5413 48.6105C98.606 48.3956 98.635 48.1716 98.6273 47.9473C98.566 47.4511 98.0583 47.1309 97.5714 47.0172C97.0846 46.9035 96.5665 46.92 96.1012 46.7372C95.3827 46.4549 94.9054 45.7165 94.8019 44.9515C94.7276 44.177 94.9 43.3988 95.2946 42.7283L95.4705 43.2344C95.7387 43.0073 95.9378 42.7095 96.0451 42.3749C96.245 42.4085 96.4329 42.4928 96.5908 42.6198C96.7488 42.7469 96.8715 42.9123 96.9471 43.1003C97.2294 43.2667 97.2701 42.5831 97.5819 42.4823C97.7191 42.4652 97.8577 42.4994 97.9711 42.5783C98.5994 42.8713 99.3294 42.6208 100.003 42.4583C101.171 42.1784 102.387 42.177 103.555 42.4542C104.331 42.6392 105.099 42.9614 105.654 43.5341C106.088 44.0271 106.422 44.6002 106.636 45.2213C107.231 46.7198 107.624 48.3412 107.428 49.9416C107.264 51.2513 106.716 52.4831 105.853 53.4818C105.404 53.9997 103.937 55.8068 103.133 55.4987C102.122 55.1116 103.489 53.673 102.298 53.0434Z" fill="#212734"/>
<path opacity="0.2" d="M93.4355 98.36L93.1335 98.4752L99.1109 114.147L99.4128 114.032L93.4355 98.36Z" fill="black"/>
<path d="M30.6829 94.0309C29.9516 91.9301 28.7709 90.0141 27.2231 88.4166C25.6753 86.819 23.7976 85.5783 21.721 84.7809C19.6444 83.9836 17.4188 83.6488 15.1995 83.8C12.9803 83.9512 10.8207 84.5846 8.87135 85.6561C6.92203 86.7277 5.22992 88.2116 3.91301 90.0043C2.59609 91.797 1.68608 93.8553 1.24642 96.0359C0.80676 98.2164 0.84804 100.467 1.36738 102.63C1.88672 104.792 2.87162 106.816 4.2534 108.559C4.39067 108.732 4.53344 108.905 4.67901 109.073C4.69001 109.084 4.69818 109.095 4.70917 109.106C5.06702 109.518 5.44737 109.91 5.84847 110.281C5.95289 110.377 6.06268 110.476 6.17247 110.569C6.38105 110.756 6.59526 110.934 6.81765 111.104C6.90545 111.173 6.99058 111.241 7.0812 111.307C7.43254 111.574 7.79769 111.821 8.17384 112.057L8.19033 112.065C8.29731 112.131 8.40722 112.197 8.51701 112.26C8.7146 112.378 8.91782 112.491 9.1209 112.598L9.24999 112.664C9.54651 112.817 9.84853 112.963 10.1587 113.097C10.2219 113.125 10.2905 113.152 10.3536 113.18C10.3591 113.182 10.3618 113.182 10.3673 113.185C10.5129 113.246 10.6583 113.303 10.8066 113.358C11.2936 113.544 11.7903 113.704 12.2946 113.836C13.5815 114.179 14.9078 114.352 16.2397 114.352C16.7256 114.352 17.206 114.33 17.681 114.283C18.7662 114.183 19.8375 113.967 20.8766 113.638C20.8793 113.638 20.8821 113.635 20.8848 113.635C21.5412 113.426 22.1824 113.172 22.8038 112.875C22.8065 112.872 22.812 112.872 22.8148 112.869C22.9548 112.804 23.0894 112.732 23.2266 112.664C23.2486 112.653 23.2705 112.642 23.2925 112.631C23.4022 112.573 23.5122 112.515 23.6219 112.455C23.8965 112.304 24.1655 112.145 24.4317 111.975C24.5059 111.931 24.5773 111.884 24.6515 111.834C24.7557 111.766 24.86 111.694 24.9616 111.62C25.0961 111.527 25.2307 111.431 25.3625 111.332C25.4036 111.302 25.4476 111.272 25.4887 111.239C28.0608 109.287 29.9486 106.57 30.8817 103.479C31.8148 100.388 31.7452 97.0802 30.6829 94.0309H30.6829Z" fill="white"/>
<path d="M24.1658 110.601C22.8651 109.915 21.5075 109.344 20.1081 108.893L19.9297 106.919L12.693 106.139L11.7732 108.662L9.17615 109.637C9.08321 109.672 8.99475 109.718 8.91261 109.774H8.90979C8.76485 109.872 8.64141 109.999 8.54701 110.146C8.4526 110.293 8.38921 110.458 8.36072 110.631C8.33298 110.802 8.33955 110.978 8.38002 111.147L8.51729 111.71C8.71488 111.828 8.9181 111.94 9.12119 112.047L9.25028 112.113C9.54679 112.267 9.84882 112.413 10.159 112.547C10.2221 112.575 10.2908 112.602 10.3539 112.629C10.3594 112.632 10.3621 112.632 10.3676 112.635C10.5132 112.695 10.6586 112.753 10.8069 112.808C11.2939 112.994 11.7906 113.153 12.2948 113.286C13.5818 113.629 14.908 113.802 16.2399 113.802C16.7259 113.802 17.2063 113.78 17.6812 113.733C18.7665 113.633 19.8378 113.417 20.8769 113.088C20.8796 113.088 20.8824 113.085 20.885 113.085C21.5414 112.876 22.1827 112.622 22.8041 112.325C22.8068 112.322 22.8123 112.322 22.8151 112.319C22.9551 112.253 23.0896 112.182 23.2269 112.113C23.2489 112.102 23.2707 112.091 23.2927 112.08C23.4025 112.023 23.5124 111.965 23.6222 111.905C23.8968 111.754 24.1658 111.594 24.432 111.424C24.5061 111.38 24.5776 111.334 24.6517 111.284C24.756 111.216 24.8603 111.144 24.9619 111.07C24.7066 110.905 24.4403 110.749 24.1658 110.601Z" fill="#E4E4E4"/>
<path d="M10.5843 111.817L10.1314 109.772H8.94809C8.93615 109.772 8.92424 109.773 8.91243 109.775H8.90962C8.48439 109.811 8.07486 109.952 7.71817 110.187C7.47624 110.341 7.26112 110.534 7.0813 110.758C7.43264 111.024 7.7978 111.271 8.17395 111.507L8.19043 111.515C8.29741 111.581 8.40733 111.647 8.51712 111.71C8.71471 111.828 8.91793 111.941 9.12101 112.048L9.2501 112.114C9.54662 112.268 9.84864 112.413 10.1588 112.548C10.222 112.575 10.2906 112.603 10.3537 112.63C10.3592 112.633 10.3619 112.633 10.3674 112.635C10.513 112.696 10.6584 112.754 10.8067 112.808L10.5843 111.817Z" fill="#E4E4E4"/>
<path d="M16.0269 104.894C18.9054 104.894 21.2388 102.56 21.2388 99.6817C21.2388 96.8032 18.9054 94.4697 16.0269 94.4697C13.1484 94.4697 10.8149 96.8032 10.8149 99.6817C10.8149 102.56 13.1484 104.894 16.0269 104.894Z" fill="white"/>
<path d="M16.0197 105.098C15.1947 105.097 14.3809 104.907 13.6403 104.543C12.8998 104.18 12.2521 103.652 11.7467 102.999C11.2413 102.347 10.8916 101.588 10.7243 100.78C10.5569 99.9725 10.5764 99.1371 10.7811 98.3379C10.9858 97.5386 11.3704 96.7967 11.9056 96.1688C12.4407 95.5409 13.1122 95.0435 13.8689 94.7146C14.6256 94.3858 15.4473 94.2342 16.2715 94.2713C17.0957 94.3084 17.9005 94.5334 18.6245 94.929C19.679 95.5075 20.511 96.4205 20.9895 97.524C21.4679 98.6275 21.5656 99.8588 21.2672 101.024C20.9687 102.189 20.2911 103.222 19.341 103.959C18.391 104.697 17.2225 105.097 16.0197 105.098ZM16.0357 94.6722C14.8155 94.6707 13.6366 95.1147 12.7207 95.9209C11.8047 96.7271 11.2146 97.8401 11.0613 99.0506C10.908 100.261 11.202 101.486 11.8881 102.495C12.5742 103.504 13.6051 104.228 14.7872 104.531C15.9693 104.833 17.2213 104.694 18.3078 104.139C19.3944 103.584 20.2409 102.651 20.6882 101.515C21.1355 100.38 21.1528 99.1205 20.737 97.9733C20.3211 96.8261 19.5007 95.8702 18.4298 95.2852C17.6954 94.8843 16.8724 94.6736 16.0357 94.6722H16.0357Z" fill="#E4E4E4"/>
<path d="M12.5279 97.1428C13.0674 97.7813 13.9805 97.9614 14.8228 98.0353C16.5333 98.1853 19.0207 97.942 20.6923 97.556C20.8116 98.7124 20.4863 99.9593 21.1674 100.911C21.4867 99.7589 21.6724 98.5743 21.7207 97.3803C21.7716 96.8679 21.7047 96.3508 21.5252 95.8683C21.317 95.3981 20.8632 94.9991 20.3406 94.9949C20.7289 94.7003 21.1837 94.5059 21.6649 94.4287L20.01 93.5971L20.435 93.1608L17.4389 92.9774L18.3067 92.4261C17.0006 92.2467 15.6792 92.205 14.3644 92.3017C13.7539 92.3467 13.1156 92.4326 12.6209 92.7864C12.1262 93.1401 11.8403 93.8432 12.1474 94.3626C11.7629 94.4257 11.4009 94.5859 11.0957 94.8281C10.7905 95.0703 10.5522 95.3864 10.4033 95.7465C10.215 96.3188 10.1696 96.9285 10.2709 97.5224C10.3838 98.4752 10.6052 99.4121 10.9309 100.315L12.5279 97.1428Z" fill="#E4E4E4"/>
<path d="M30.6829 94.0309C29.9516 91.9301 28.7709 90.0141 27.2231 88.4166C25.6753 86.819 23.7976 85.5783 21.721 84.7809C19.6444 83.9836 17.4188 83.6488 15.1995 83.8C12.9803 83.9512 10.8207 84.5846 8.87135 85.6561C6.92203 86.7277 5.22992 88.2116 3.91301 90.0043C2.59609 91.797 1.68608 93.8553 1.24642 96.0359C0.80676 98.2164 0.84804 100.467 1.36738 102.63C1.88672 104.792 2.87162 106.816 4.2534 108.559C4.39067 108.732 4.53344 108.905 4.67901 109.073C4.69001 109.084 4.69818 109.095 4.70917 109.106C5.06702 109.518 5.44737 109.91 5.84847 110.281C5.95289 110.377 6.06268 110.476 6.17247 110.569C6.38105 110.756 6.59526 110.934 6.81765 111.104C6.90545 111.173 6.99058 111.241 7.0812 111.307C7.43254 111.574 7.79769 111.821 8.17384 112.057L8.19033 112.065C8.29731 112.131 8.40722 112.197 8.51701 112.26C8.7146 112.378 8.91782 112.491 9.1209 112.598L9.24999 112.664C9.54651 112.817 9.84853 112.963 10.1587 113.097C10.2219 113.125 10.2905 113.152 10.3536 113.18C10.3591 113.182 10.3618 113.182 10.3673 113.185C10.5129 113.246 10.6583 113.303 10.8066 113.358C11.2936 113.544 11.7903 113.704 12.2946 113.836C13.5815 114.179 14.9078 114.352 16.2397 114.352C16.7256 114.352 17.206 114.33 17.681 114.283C18.7662 114.183 19.8375 113.967 20.8766 113.638C20.8793 113.638 20.8821 113.635 20.8848 113.635C21.5412 113.426 22.1824 113.172 22.8038 112.875C22.8065 112.872 22.812 112.872 22.8148 112.869C22.9548 112.804 23.0894 112.732 23.2266 112.664C23.2486 112.653 23.2705 112.642 23.2925 112.631C23.4022 112.573 23.5122 112.515 23.6219 112.455C23.8965 112.304 24.1655 112.145 24.4317 111.975C24.5059 111.931 24.5773 111.884 24.6515 111.834C24.7557 111.766 24.86 111.694 24.9616 111.62C25.0961 111.527 25.2307 111.431 25.3625 111.332C25.4036 111.302 25.4476 111.272 25.4887 111.239C28.0608 109.287 29.9486 106.57 30.8817 103.479C31.8148 100.388 31.7452 97.0802 30.6829 94.0309H30.6829ZM24.9836 110.572C24.893 110.643 24.7997 110.712 24.7063 110.775C24.6157 110.843 24.5252 110.909 24.4317 110.97C24.3521 111.027 24.2725 111.082 24.1902 111.134C24.182 111.14 24.1737 111.145 24.1655 111.151C24.1051 111.192 24.0447 111.231 23.9843 111.269C23.7564 111.412 23.5258 111.549 23.2924 111.681C23.2678 111.694 23.243 111.708 23.2183 111.722C23.114 111.78 23.0097 111.835 22.9054 111.889C22.8916 111.898 22.8751 111.903 22.8615 111.911L22.845 111.92C22.7132 111.988 22.5786 112.054 22.4442 112.117C21.9251 112.367 21.3904 112.584 20.8436 112.765C20.7722 112.79 20.7008 112.815 20.6295 112.837C19.646 113.149 18.6317 113.356 17.6041 113.452C17.1539 113.493 16.6981 113.515 16.2396 113.515C14.9799 113.517 13.7253 113.353 12.5088 113.026C11.8844 112.863 11.2725 112.656 10.6776 112.406C10.6473 112.392 10.6144 112.381 10.5842 112.367C10.5514 112.353 10.5211 112.342 10.4909 112.329C10.4579 112.315 10.4278 112.301 10.3948 112.285C10.1367 112.172 9.88137 112.049 9.63163 111.92L9.51085 111.856C9.20602 111.697 8.90682 111.527 8.61579 111.346C8.53067 111.294 8.44287 111.239 8.36042 111.181C8.33857 111.167 8.31927 111.154 8.29729 111.14C8.10238 111.011 7.90748 110.876 7.71806 110.736C7.58911 110.64 7.46002 110.544 7.33374 110.445C7.12234 110.286 6.91912 110.116 6.72153 109.94C6.61724 109.852 6.51563 109.756 6.41684 109.666C6.02757 109.306 5.65909 108.925 5.3132 108.524C5.19792 108.392 5.08531 108.26 4.97821 108.123C4.95386 108.096 4.93095 108.067 4.90957 108.038C3.12583 105.787 2.05293 103.056 1.82769 100.193C1.60246 97.3294 2.23509 94.4641 3.64492 91.962C5.05475 89.4599 7.17788 87.4344 9.74353 86.1438C12.3092 84.8533 15.2011 84.3561 18.0505 84.7158C20.8998 85.0755 23.5775 86.2757 25.7419 88.1633C27.9064 90.051 29.4596 92.5405 30.2034 95.3145C30.9472 98.0885 30.848 101.021 29.9183 103.738C28.9887 106.456 27.2707 108.835 24.9836 110.572L24.9836 110.572Z" fill="#E4E4E4"/>
<path d="M30.6829 52.481C29.9516 50.3803 28.7709 48.4643 27.2231 46.8667C25.6753 45.2691 23.7976 44.0284 21.721 43.2311C19.6444 42.4337 17.4188 42.099 15.1995 42.2501C12.9803 42.4013 10.8207 43.0347 8.87135 44.1063C6.92203 45.1778 5.22992 46.6617 3.91301 48.4544C2.59609 50.2471 1.68608 52.3055 1.24642 54.486C0.80676 56.6665 0.84804 58.9167 1.36738 61.0797C1.88672 63.2426 2.87162 65.2662 4.2534 67.0094C4.39067 67.1824 4.53344 67.3553 4.67901 67.5228C4.69001 67.5338 4.69818 67.5448 4.70917 67.5557C5.06702 67.9681 5.44737 68.3603 5.84847 68.7308C5.95289 68.8268 6.06268 68.9257 6.17247 69.019C6.38105 69.2057 6.59526 69.3841 6.81765 69.5544C6.90545 69.623 6.99058 69.6916 7.0812 69.7575C7.43254 70.0238 7.79769 70.2709 8.17384 70.507L8.19033 70.5152C8.29731 70.5811 8.40722 70.647 8.51701 70.7102C8.7146 70.8282 8.91782 70.9408 9.1209 71.0478L9.24999 71.1137C9.54651 71.2675 9.84853 71.413 10.1587 71.5475C10.2219 71.5749 10.2905 71.6024 10.3536 71.6298C10.3591 71.6326 10.3618 71.6326 10.3673 71.6353C10.5129 71.6957 10.6583 71.7534 10.8066 71.8083C11.2936 71.9943 11.7903 72.1537 12.2946 72.286C13.5815 72.629 14.9078 72.8025 16.2397 72.8021C16.7256 72.8021 17.206 72.7801 17.681 72.7335C18.7662 72.6333 19.8375 72.417 20.8766 72.0883C20.8793 72.0883 20.8821 72.0856 20.8848 72.0856C21.5412 71.8765 22.1824 71.6224 22.8038 71.3251C22.8065 71.3224 22.812 71.3224 22.8148 71.3196C22.9548 71.2537 23.0894 71.1824 23.2266 71.1137C23.2486 71.1027 23.2705 71.0918 23.2925 71.0808C23.4022 71.0231 23.5122 70.9655 23.6219 70.9051C23.8965 70.7541 24.1655 70.5948 24.4317 70.4246C24.5059 70.3807 24.5773 70.334 24.6515 70.2846C24.7557 70.216 24.86 70.1446 24.9616 70.0705C25.0961 69.9771 25.2307 69.881 25.3625 69.7822C25.4036 69.752 25.4476 69.7218 25.4887 69.6889C28.0608 67.7366 29.9486 65.0202 30.8817 61.9289C31.8148 58.8376 31.7452 55.5303 30.6829 52.481L30.6829 52.481Z" fill="white"/>
<path d="M10.8508 61.0872L11.7391 64.1643L23.0907 63.9641L22.9912 58.3261C22.9125 53.8634 19.7585 50.0144 15.296 50.0932C10.8334 50.1719 7.99587 53.9446 8.0746 58.4073L8.72288 64.2175L10.5737 64.1849L10.8508 61.0872Z" fill="#E4E4E4"/>
<path d="M15.8031 63.238C18.616 63.238 20.8963 60.9577 20.8963 58.1448C20.8963 55.3319 18.616 53.0516 15.8031 53.0516C12.9902 53.0516 10.71 55.3319 10.71 58.1448C10.71 60.9577 12.9902 63.238 15.8031 63.238Z" fill="white"/>
<path d="M25.9408 66.0892L25.8254 68.2315C23.381 70.7741 20.0466 72.2707 16.5222 72.4072C12.9979 72.5437 9.55773 71.3095 6.92399 68.9636C6.80629 68.8601 6.69087 68.7518 6.57788 68.6411C7.28413 67.9396 9.23343 66.2069 11.3969 66.0469L21.1525 65.4324C21.1525 65.4324 24.8484 64.9993 25.9408 66.0892Z" fill="#E4E4E4"/>
<path d="M21.3787 54.5696C21.3719 54.1796 21.2498 53.8003 21.0279 53.4796C21.0044 53.4466 20.9808 53.416 20.9573 53.3854C20.7686 53.1446 20.5267 52.9506 20.2507 52.8187C19.9746 52.6868 19.6717 52.6205 19.3658 52.625L15.7052 52.6909L12.0468 52.7545C11.5227 52.765 11.0241 52.9827 10.6601 53.3599C10.2961 53.7371 10.0964 54.2432 10.1046 54.7673L10.9757 56.5211L11.4771 57.5287L11.5595 57.4816C14.7258 55.7019 16.0206 55.6783 20.211 57.3333L20.2957 57.3663L20.6277 56.5164L21.381 54.5884L21.3787 54.5696Z" fill="#E4E4E4"/>
<path d="M27.0965 67.5295C26.8022 67.9061 26.5365 67.8993 26.2046 68.243C25.3666 69.1164 24.0293 69.8644 22.984 70.4882L22.7557 66.3967L25.9409 66.0883C25.9409 66.0883 26.6539 66.4678 27.0965 67.5295Z" fill="#E4E4E4"/>
<path d="M30.6829 52.481C29.9516 50.3803 28.7709 48.4643 27.2231 46.8667C25.6753 45.2691 23.7976 44.0284 21.721 43.2311C19.6444 42.4337 17.4188 42.099 15.1995 42.2501C12.9803 42.4013 10.8207 43.0347 8.87135 44.1063C6.92203 45.1778 5.22992 46.6617 3.91301 48.4544C2.59609 50.2471 1.68608 52.3055 1.24642 54.486C0.80676 56.6665 0.84804 58.9167 1.36738 61.0797C1.88672 63.2426 2.87162 65.2662 4.2534 67.0094C4.39067 67.1824 4.53344 67.3553 4.67901 67.5228C4.69001 67.5338 4.69818 67.5448 4.70917 67.5557C5.06702 67.9681 5.44737 68.3603 5.84847 68.7308C5.95289 68.8268 6.06268 68.9257 6.17247 69.019C6.38105 69.2057 6.59526 69.3841 6.81765 69.5544C6.90545 69.623 6.99058 69.6916 7.0812 69.7575C7.43254 70.0238 7.79769 70.2709 8.17384 70.507L8.19033 70.5152C8.29731 70.5811 8.40722 70.647 8.51701 70.7102C8.7146 70.8282 8.91782 70.9408 9.1209 71.0478L9.24999 71.1137C9.54651 71.2675 9.84853 71.413 10.1587 71.5475C10.2219 71.5749 10.2905 71.6024 10.3536 71.6298C10.3591 71.6326 10.3618 71.6326 10.3673 71.6353C10.5129 71.6957 10.6583 71.7534 10.8066 71.8083C11.2936 71.9943 11.7903 72.1537 12.2946 72.286C13.5815 72.629 14.9078 72.8025 16.2397 72.8021C16.7256 72.8021 17.206 72.7801 17.681 72.7335C18.7662 72.6333 19.8375 72.417 20.8766 72.0883C20.8793 72.0883 20.8821 72.0856 20.8848 72.0856C21.5412 71.8765 22.1824 71.6224 22.8038 71.3251C22.8065 71.3224 22.812 71.3224 22.8148 71.3196C22.9548 71.2537 23.0894 71.1824 23.2266 71.1137C23.2486 71.1027 23.2705 71.0918 23.2925 71.0808C23.4022 71.0231 23.5122 70.9655 23.6219 70.9051C23.8965 70.7541 24.1655 70.5948 24.4317 70.4246C24.5059 70.3807 24.5773 70.334 24.6515 70.2846C24.7557 70.216 24.86 70.1446 24.9616 70.0705C25.0961 69.9771 25.2307 69.881 25.3625 69.7822C25.4036 69.752 25.4476 69.7218 25.4887 69.6889C28.0608 67.7366 29.9486 65.0202 30.8817 61.9289C31.8148 58.8376 31.7452 55.5303 30.6829 52.481L30.6829 52.481ZM24.9836 69.0218C24.893 69.0932 24.7997 69.1618 24.7063 69.2249C24.6157 69.2936 24.5252 69.3595 24.4317 69.4198C24.3521 69.4775 24.2725 69.5324 24.1902 69.5846C24.182 69.5901 24.1737 69.5956 24.1655 69.601C24.1051 69.6422 24.0447 69.6807 23.9843 69.7191C23.7564 69.8618 23.5258 69.9991 23.2924 70.1309C23.2678 70.1446 23.243 70.1584 23.2183 70.1721C23.114 70.2297 23.0097 70.2846 22.9054 70.3395C22.8916 70.3478 22.8751 70.3533 22.8615 70.3615L22.845 70.3697C22.7132 70.4384 22.5786 70.5043 22.4442 70.5674C21.9251 70.8174 21.3904 71.0338 20.8436 71.2153C20.7722 71.24 20.7008 71.2647 20.6295 71.2867C19.646 71.5995 18.6317 71.8057 17.6041 71.9016C17.1539 71.9428 16.6981 71.9648 16.2396 71.9648C14.9799 71.9674 13.7253 71.8031 12.5088 71.4761C11.8844 71.3131 11.2725 71.1058 10.6776 70.8557C10.6473 70.8419 10.6144 70.8309 10.5842 70.8172C10.5514 70.8035 10.5211 70.7925 10.4909 70.7788C10.4579 70.7651 10.4278 70.7513 10.3948 70.7349C10.1367 70.6223 9.88137 70.4988 9.63163 70.3697L9.51085 70.3066C9.20602 70.1474 8.90682 69.9772 8.61579 69.796C8.53067 69.7438 8.44287 69.6889 8.36042 69.6312C8.33857 69.6175 8.31927 69.6038 8.29729 69.5901C8.10238 69.461 7.90748 69.3265 7.71806 69.1865C7.58911 69.0904 7.46002 68.9943 7.33374 68.8955C7.12234 68.7363 6.91912 68.566 6.72153 68.3903C6.61724 68.3025 6.51563 68.2064 6.41684 68.1158C6.02757 67.7564 5.65909 67.3751 5.3132 66.9737C5.19792 66.842 5.08531 66.7102 4.97821 66.5729C4.95386 66.5458 4.93095 66.5174 4.90957 66.4878C3.12583 64.2369 2.05293 61.5058 1.82769 58.6427C1.60246 55.7796 2.23509 52.9143 3.64492 50.4121C5.05475 47.91 7.17788 45.8846 9.74353 44.594C12.3092 43.3034 15.2011 42.8063 18.0505 43.166C20.8998 43.5256 23.5775 44.7258 25.7419 46.6135C27.9064 48.5011 29.4596 50.9907 30.2034 53.7646C30.9472 56.5386 30.848 59.4712 29.9183 62.1886C28.9887 64.9059 27.2707 67.2848 24.9836 69.0218L24.9836 69.0218Z" fill="#E4E4E4"/>
<path d="M31.2823 10.8333C30.5363 8.69016 29.3318 6.73559 27.7528 5.10584C26.1738 3.47609 24.2583 2.21038 22.1399 1.39699C20.0215 0.583597 17.7511 0.242094 15.4871 0.396296C13.2231 0.550498 11.0201 1.19669 9.03148 2.28982C7.04291 3.38294 5.31672 4.89669 3.97328 6.72549C2.62985 8.55429 1.7015 10.6541 1.25298 12.8786C0.80447 15.103 0.846581 17.3986 1.37638 19.6051C1.90618 21.8116 2.91092 23.8759 4.32053 25.6542C4.46056 25.8307 4.6062 26.0071 4.75458 26.178C4.76579 26.1892 4.77413 26.2004 4.78534 26.2116C5.15049 26.6322 5.53854 27.0323 5.94772 27.4102C6.05411 27.5083 6.16611 27.6091 6.27811 27.7043C6.49103 27.8947 6.70942 28.0768 6.93629 28.2504C7.37924 28.5996 7.84111 28.924 8.31979 29.2222L8.33661 29.2307C8.64744 29.4239 8.96388 29.6031 9.28606 29.774L9.41762 29.8412C9.72011 29.998 10.0282 30.1465 10.3446 30.2837C10.4091 30.3117 10.4791 30.3397 10.5435 30.3677C10.5491 30.3705 10.552 30.3705 10.5576 30.3733C11.197 30.6392 11.8539 30.861 12.5236 31.0371C13.8365 31.387 15.1894 31.564 16.548 31.5636C17.0438 31.5636 17.5339 31.5412 18.0184 31.4936C19.1254 31.3914 20.2184 31.1707 21.2784 30.8354C21.2812 30.8354 21.284 30.8326 21.2867 30.8326C21.9563 30.6193 22.6104 30.3601 23.2444 30.0568C23.2472 30.0541 23.2529 30.0541 23.2556 30.0513C23.3984 29.984 23.5357 29.9112 23.6757 29.8412L23.743 29.8076C23.855 29.7488 23.967 29.69 24.079 29.6284C24.3591 29.4743 24.6335 29.3119 24.9052 29.1382C24.9809 29.0934 25.0536 29.0458 25.1292 28.9954C25.3757 28.833 25.6194 28.6593 25.8546 28.4829C25.8967 28.4521 25.9414 28.4213 25.9835 28.3877C28.6073 26.396 30.5331 23.6249 31.485 20.4714C32.4369 17.3179 32.3659 13.944 31.2823 10.8333V10.8333Z" fill="white"/>
<path d="M21.6965 22.3898C22.9879 22.3898 24.0348 21.3429 24.0348 20.0515C24.0348 18.7601 22.9879 17.7133 21.6965 17.7133C20.4052 17.7133 19.3583 18.7601 19.3583 20.0515C19.3583 21.3429 20.4052 22.3898 21.6965 22.3898Z" fill="#E4E4E4"/>
<path d="M22.3477 17.7779C22.7524 17.7779 23.1501 17.8829 23.5021 18.0827C23.854 18.2825 24.1481 18.5702 24.3556 18.9177C24.563 19.2652 24.6767 19.6606 24.6856 20.0652C24.6945 20.4698 24.5982 20.8698 24.4061 21.226C24.6088 20.9724 24.7564 20.6793 24.8396 20.3655C24.9227 20.0516 24.9396 19.7239 24.8891 19.4032C24.8386 19.0825 24.7218 18.7758 24.5463 18.5027C24.3707 18.2296 24.1402 17.996 23.8694 17.8169C23.5986 17.6378 23.2935 17.5171 22.9734 17.4625C22.6534 17.4078 22.3255 17.4204 22.0106 17.4994C21.6957 17.5785 21.4007 17.7223 21.1445 17.9216C20.8882 18.121 20.6763 18.3715 20.5222 18.6573C20.7408 18.3828 21.0185 18.1612 21.3346 18.009C21.6507 17.8567 21.9971 17.7777 22.3479 17.7779H22.3477Z" fill="#E4E4E4"/>
<path d="M17.3269 20.0466C21.1204 20.0466 24.1957 16.9713 24.1957 13.1778C24.1957 9.38419 21.1204 6.3089 17.3269 6.3089C13.5333 6.3089 10.458 9.38419 10.458 13.1778C10.458 16.9713 13.5333 20.0466 17.3269 20.0466Z" fill="#E4E4E4"/>
<path d="M11.9359 8.91614C13.1194 7.58507 14.7738 6.76589 16.5499 6.6315C18.326 6.4971 20.0849 7.05799 21.4552 8.1958C21.3992 8.14232 21.3432 8.08854 21.2852 8.03673C19.9282 6.82226 18.1444 6.19641 16.326 6.29676C14.5077 6.39712 12.8036 7.21547 11.5884 8.57191C10.3733 9.92834 9.74651 11.7118 9.84595 13.5302C9.94539 15.3486 10.7629 17.0531 12.1187 18.269C12.1317 18.2807 12.1448 18.2923 12.1579 18.3039C12.2162 18.3557 12.2761 18.4047 12.3358 18.4543C11.0453 17.2266 10.2823 15.5456 10.2077 13.766C10.1331 11.9864 10.7529 10.2474 11.9361 8.91612L11.9359 8.91614Z" fill="#E4E4E4"/>
<path d="M17.2685 19.9886C19.7117 19.9886 21.6924 18.0079 21.6924 15.5647C21.6924 13.1215 19.7117 11.1408 17.2685 11.1408C14.8252 11.1408 12.8446 13.1215 12.8446 15.5647C12.8446 18.0079 14.8252 19.9886 17.2685 19.9886Z" fill="white"/>
<path d="M25.1852 27.092V28.5764C24.9135 28.75 24.639 28.9125 24.359 29.0665C24.247 29.1281 24.135 29.1869 24.023 29.2457L23.9557 29.2793C23.8157 29.3494 23.6784 29.4222 23.5356 29.4894C23.5329 29.4922 23.5271 29.4922 23.5244 29.495C22.8904 29.7982 22.2363 30.0575 21.5667 30.2708C21.5639 30.2708 21.5612 30.2736 21.5583 30.2736C20.4983 30.6089 19.4054 30.8295 18.2983 30.9317C17.8138 30.9793 17.3237 31.0017 16.828 31.0017C15.4693 31.0021 14.1164 30.8251 12.8036 30.4752C12.1338 30.2991 11.4769 30.0774 10.8375 29.8115C10.8319 29.8087 10.8291 29.8087 10.8234 29.8059C10.759 29.7778 10.689 29.7498 10.6246 29.7218C10.3082 29.5846 10.0001 29.4362 9.69758 29.2793L9.56602 29.2121C9.24384 29.0413 8.9274 28.862 8.61657 28.6688L8.59975 28.6604C8.12107 28.3621 7.6592 28.0377 7.21625 27.6886C6.98938 27.5149 6.77099 27.3329 6.55807 27.1424C6.44607 27.0472 6.33408 26.9464 6.22769 26.8484C5.8185 26.4705 5.43045 26.0703 5.06531 25.6497C5.11374 25.358 5.18493 25.0705 5.27823 24.7899L5.28096 24.7871C5.29772 24.7393 5.31736 24.6925 5.33976 24.6471C5.35521 24.6069 5.37297 24.5676 5.39295 24.5294C5.89428 23.5912 6.80174 23.3588 7.92761 23.3084C8.56336 23.2803 9.26626 23.3112 10.0085 23.3028C10.4006 23.3 10.8066 23.286 11.2128 23.2495C13.7753 23.0171 13.3105 21.5047 13.4252 20.6898C13.5401 19.9 14.2515 20.5834 14.2991 20.6282L14.3018 20.631C15.752 21.3096 17.3564 21.5909 18.9509 21.4459C19.2254 21.4123 19.4998 21.3927 19.7743 21.3843C20.4969 21.3759 20.34 21.5832 20.0909 21.754C19.9699 21.8336 19.8435 21.9047 19.7127 21.9669C19.7127 21.9669 19.5979 22.667 19.4803 23.7145C19.3683 24.7171 22.8998 25.0644 23.5917 25.2828H23.5944C23.9893 25.428 24.3416 25.6696 24.6194 25.9855C24.8972 26.3015 25.0917 26.6818 25.1852 27.092Z" fill="#E4E4E4"/>
<path d="M13.4851 10.0355V14.4605H14.5096L15.8133 13.0635L15.6388 14.4605H20.1675L19.8874 13.0635L20.4475 14.4605H21.1695V10.0355H13.4851Z" fill="#E4E4E4"/>
<path d="M12.7863 15.2735C12.9791 15.2735 13.1355 14.9869 13.1355 14.6333C13.1355 14.2797 12.9791 13.993 12.7863 13.993C12.5934 13.993 12.437 14.2797 12.437 14.6333C12.437 14.9869 12.5934 15.2735 12.7863 15.2735Z" fill="#E4E4E4"/>
<path d="M21.7515 15.2735C21.9443 15.2735 22.1007 14.9869 22.1007 14.6333C22.1007 14.2797 21.9443 13.993 21.7515 13.993C21.5586 13.993 21.4022 14.2797 21.4022 14.6333C21.4022 14.9869 21.5586 15.2735 21.7515 15.2735Z" fill="#E4E4E4"/>
<path d="M31.2823 10.8333C30.5363 8.69016 29.3318 6.73559 27.7528 5.10584C26.1738 3.47609 24.2583 2.21038 22.1399 1.39699C20.0215 0.583597 17.7511 0.242094 15.4871 0.396296C13.2231 0.550498 11.0201 1.19669 9.03148 2.28982C7.04291 3.38294 5.31672 4.89669 3.97328 6.72549C2.62985 8.55429 1.7015 10.6541 1.25298 12.8786C0.80447 15.103 0.846581 17.3986 1.37638 19.6051C1.90618 21.8116 2.91092 23.8759 4.32053 25.6542C4.46056 25.8307 4.6062 26.0071 4.75458 26.178C4.76579 26.1892 4.77413 26.2004 4.78534 26.2116C5.15049 26.6322 5.53854 27.0323 5.94772 27.4102C6.05411 27.5083 6.16611 27.6091 6.27811 27.7043C6.49103 27.8947 6.70942 28.0768 6.93629 28.2504C7.37924 28.5996 7.84111 28.924 8.31979 29.2222L8.33661 29.2307C8.64744 29.4239 8.96388 29.6031 9.28606 29.774L9.41762 29.8412C9.72011 29.998 10.0282 30.1465 10.3446 30.2837C10.4091 30.3117 10.4791 30.3397 10.5435 30.3677C10.5491 30.3705 10.552 30.3705 10.5576 30.3733C11.197 30.6392 11.8539 30.861 12.5236 31.0371C13.8365 31.387 15.1894 31.564 16.548 31.5636C17.0438 31.5636 17.5339 31.5412 18.0184 31.4936C19.1254 31.3914 20.2184 31.1707 21.2784 30.8354C21.2812 30.8354 21.284 30.8326 21.2867 30.8326C21.9563 30.6193 22.6104 30.3601 23.2444 30.0568C23.2472 30.0541 23.2529 30.0541 23.2556 30.0513C23.3984 29.984 23.5357 29.9112 23.6757 29.8412L23.743 29.8076C23.855 29.7488 23.967 29.69 24.079 29.6284C24.3591 29.4743 24.6335 29.3119 24.9052 29.1382C24.9809 29.0934 25.0536 29.0458 25.1292 28.9954C25.3757 28.833 25.6194 28.6593 25.8546 28.4829C25.8967 28.4521 25.9414 28.4213 25.9835 28.3877C28.6073 26.396 30.5331 23.6249 31.485 20.4714C32.4369 17.3179 32.3659 13.944 31.2823 10.8333V10.8333ZM25.4681 27.7071C25.3757 27.7799 25.2805 27.8499 25.1853 27.9144C25.0929 27.9844 25.0004 28.0516 24.9052 28.1132C24.824 28.172 24.7428 28.228 24.6587 28.2812C24.5887 28.3288 24.5187 28.3737 24.4486 28.4185C24.2163 28.5641 23.9811 28.7041 23.743 28.8386C23.7177 28.8526 23.6925 28.8666 23.6672 28.8806C23.5609 28.9394 23.4545 28.9954 23.3481 29.0514C23.334 29.0598 23.3172 29.0654 23.3032 29.0738L23.2864 29.0822C23.152 29.1522 23.0148 29.2194 22.8775 29.2839C22.348 29.5389 21.8026 29.7597 21.2447 29.9448C21.172 29.97 21.0991 29.9952 21.0263 30.0176C20.023 30.3367 18.9883 30.5471 17.94 30.645C17.4807 30.687 17.0157 30.7094 16.548 30.7094C15.2629 30.712 13.9831 30.5444 12.742 30.2109C12.1051 30.0446 11.4808 29.8331 10.874 29.5779C10.8096 29.5527 10.7452 29.5247 10.6835 29.4995C10.65 29.4855 10.6191 29.4715 10.5855 29.4547C10.3222 29.3399 10.0618 29.2139 9.80694 29.0822L9.68372 29.0178C9.37289 28.8554 9.06753 28.6817 8.77064 28.4969C8.66152 28.4297 8.55225 28.3596 8.44586 28.2868C8.10973 28.0656 7.78208 27.8275 7.46276 27.5783C7.24711 27.4158 7.03993 27.2422 6.83823 27.063C6.73183 26.9733 6.62818 26.8753 6.52739 26.7829C6.13032 26.4162 5.75442 26.0272 5.40153 25.6178C5.28392 25.4834 5.16906 25.349 5.05979 25.2089C5.03495 25.1812 5.01158 25.1523 4.98978 25.1221C3.17012 22.8259 2.07561 20.0398 1.84584 17.119C1.61607 14.1982 2.26146 11.2752 3.69968 8.7227C5.13791 6.17021 7.30379 4.10393 9.92112 2.78738C12.5384 1.47083 15.4886 0.963671 18.3953 1.33059C21.3021 1.69751 24.0336 2.92188 26.2417 4.84754C28.4498 6.77321 30.0342 9.3129 30.793 12.1427C31.5518 14.9725 31.4506 17.9643 30.5022 20.7363C29.5538 23.5084 27.8013 25.9351 25.4681 27.7071L25.4681 27.7071Z" fill="#E4E4E4"/>
<path d="M35.6238 35.3572L24.6399 35.1085C23.5412 30.8524 24.0359 26.8001 24.9126 23.0659L35.8965 23.3145C34.7855 27.2406 34.6917 31.3848 35.6238 35.3572Z" fill="#007BFE"/>
<path d="M26.7946 25.7279L26.8006 25.3099L32.491 25.5133L32.4851 25.9313L26.7946 25.7279Z" fill="white"/>
<path d="M26.7704 27.399L26.7765 26.981L32.4669 27.1846L32.4608 27.6026L26.7704 27.399Z" fill="white"/>
<path d="M26.7467 29.0718L26.7528 28.6539L32.4432 28.8573L32.4371 29.2752L26.7467 29.0718Z" fill="white"/>
<path d="M26.7225 30.7429L26.7284 30.325L32.419 30.5284L32.4129 30.9463L26.7225 30.7429Z" fill="white"/>
<path d="M26.6986 32.4149L26.7045 31.9969L32.3951 32.2006L32.389 32.6183L26.6986 32.4149Z" fill="white"/>
<path d="M35.6238 74.9427L24.6399 74.694C23.5412 70.438 24.0359 66.3856 24.9126 62.6514L35.8965 62.9C34.7855 66.8261 34.6917 70.9703 35.6238 74.9427Z" fill="#007BFE"/>
<path d="M26.7946 65.3116L26.8006 64.8936L32.491 65.097L32.4851 65.515L26.7946 65.3116Z" fill="white"/>
<path d="M26.7704 66.9827L26.7765 66.5647L32.4669 66.7683L32.4608 67.1863L26.7704 66.9827Z" fill="white"/>
<path d="M26.7467 68.6556L26.7528 68.2376L32.4432 68.441L32.4371 68.859L26.7467 68.6556Z" fill="white"/>
<path d="M26.7225 70.3275L26.7284 69.9095L32.419 70.113L32.4129 70.531L26.7225 70.3275Z" fill="white"/>
<path d="M26.6986 71.9995L26.7045 71.5815L32.3951 71.7852L32.389 72.203L26.6986 71.9995Z" fill="white"/>
<path d="M35.6238 114.526L24.6399 114.277C23.5412 110.021 24.0359 105.968 24.9126 102.234L35.8965 102.483C34.7855 106.409 34.6917 110.553 35.6238 114.526Z" fill="#007BFE"/>
<path d="M26.7946 104.896L26.8006 104.478L32.491 104.682L32.4851 105.1L26.7946 104.896Z" fill="white"/>
<path d="M26.7704 106.567L26.7765 106.149L32.4669 106.353L32.4608 106.771L26.7704 106.567Z" fill="white"/>
<path d="M26.7467 108.24L26.7528 107.822L32.4432 108.026L32.4371 108.444L26.7467 108.24Z" fill="white"/>
<path d="M26.7225 109.911L26.7284 109.493L32.419 109.697L32.4129 110.115L26.7225 109.911Z" fill="white"/>
<path d="M26.6986 111.583L26.7045 111.165L32.3951 111.369L32.389 111.787L26.6986 111.583Z" fill="white"/>
<path d="M94.23 91.5821C94.2404 91.2839 94.316 90.9916 94.4516 90.7257C94.5872 90.4599 94.7794 90.227 95.0147 90.0434C95.25 89.8599 95.5227 89.7302 95.8136 89.6635C96.1044 89.5967 96.4064 89.5946 96.6982 89.6572L100.461 83.4551L102.075 86.8616L98.2545 92.229C98.1168 92.7122 97.8067 93.1281 97.3829 93.398C96.9591 93.6678 96.451 93.7728 95.9549 93.6931C95.4589 93.6134 95.0093 93.3544 94.6914 92.9654C94.3735 92.5763 94.2093 92.0842 94.23 91.5821Z" fill="#A0616A"/>
<path d="M107.705 58.8489C107.705 58.8489 113.042 59.4599 111.055 69.2624C109.068 79.0649 101.345 90.4222 101.345 90.4222L96.1202 87.9236L102.935 74.522L101.345 66.1176C101.345 66.1176 100.436 58.1675 107.705 58.8489Z" fill="#575A89"/>
</g>
<defs>
<clipPath id="clip0">
<rect x="0.94458" y="0.356689" width="135.385" height="137.149" rx="15.9459" fill="white"/>
</clipPath>
</defs>
</svg>
