<svg width="36" height="36" viewBox="0 0 36 36" fill="none" xmlns="http://www.w3.org/2000/svg">
<path d="M18.3007 16.0686C18.8811 16.0686 19.4485 15.8965 19.931 15.5741C20.4136 15.2516 20.7897 14.7933 21.0118 14.2571C21.2339 13.7209 21.2921 13.1309 21.1788 12.5616C21.0656 11.9924 20.7861 11.4695 20.3757 11.0591C19.9653 10.6487 19.4424 10.3692 18.8732 10.256C18.304 10.1428 17.7139 10.2009 17.1777 10.423C16.6415 10.6451 16.1832 11.0212 15.8608 11.5038C15.5383 11.9864 15.3662 12.5537 15.3662 13.1341C15.3662 13.9124 15.6754 14.6588 16.2257 15.2091C16.776 15.7594 17.5224 16.0686 18.3007 16.0686ZM17.259 26.2073C17.3954 26.3448 17.5577 26.454 17.7364 26.5285C17.9152 26.6029 18.107 26.6413 18.3007 26.6413C18.4944 26.6413 18.6862 26.6029 18.865 26.5285C19.0438 26.454 19.2061 26.3448 19.3425 26.2073L25.3435 20.1916C26.7373 18.7985 27.6867 17.0233 28.0715 15.0906C28.4563 13.1579 28.2594 11.1545 27.5055 9.33378C26.7516 7.51305 25.4746 5.95679 23.8362 4.86186C22.1977 3.76692 20.2714 3.1825 18.3007 3.1825C16.3301 3.1825 14.4037 3.76692 12.7652 4.86186C11.1268 5.95679 9.84987 7.51305 9.09597 9.33378C8.34208 11.1545 8.14509 13.1579 8.52992 15.0906C8.91475 17.0233 9.86412 18.7985 11.2579 20.1916L17.259 26.2073ZM11.302 12.4592C11.4022 11.4131 11.7348 10.4025 12.2755 9.50138C12.8162 8.60023 13.5513 7.8312 14.4272 7.25045C15.5778 6.49496 16.9242 6.09244 18.3007 6.09244C19.6772 6.09244 21.0236 6.49496 22.1743 7.25045C23.0443 7.82921 23.7752 8.59357 24.3146 9.48857C24.8539 10.3836 25.1882 11.387 25.2934 12.4266C25.3986 13.4662 25.2722 14.5162 24.9231 15.5012C24.5741 16.4861 24.0111 17.3814 23.2747 18.1228L18.3007 23.0967L13.3268 18.1228C12.5895 17.3886 12.0252 16.4993 11.6749 15.5196C11.3247 14.5398 11.1973 13.4944 11.302 12.4592ZM28.5714 29.5673H8.02999C7.64085 29.5673 7.26765 29.7219 6.99249 29.997C6.71733 30.2722 6.56274 30.6454 6.56274 31.0345C6.56274 31.4237 6.71733 31.7969 6.99249 32.072C7.26765 32.3472 7.64085 32.5018 8.02999 32.5018H28.5714C28.9606 32.5018 29.3338 32.3472 29.6089 32.072C29.8841 31.7969 30.0387 31.4237 30.0387 31.0345C30.0387 30.6454 29.8841 30.2722 29.6089 29.997C29.3338 29.7219 28.9606 29.5673 28.5714 29.5673Z" fill="#007BFE"/>
</svg>
