<svg width="166" height="67" viewBox="0 0 166 67" fill="none" xmlns="http://www.w3.org/2000/svg">
<path d="M64.4324 54.7158V64.7158H54.9324" stroke="#007BFE" stroke-width="3" stroke-linecap="round"/>
<path d="M2 11.7158V1.71582H11.5" stroke="#007BFE" stroke-width="3" stroke-linecap="round"/>
<path d="M64.5 11.7158V1.71582H55" stroke="#007BFE" stroke-width="3" stroke-linecap="round"/>
<path d="M2.5 54.7158V64.7158H12" stroke="#007BFE" stroke-width="3" stroke-linecap="round"/>
<rect x="8.94067" y="9.72437" width="46.9831" height="46.9831" rx="12.8136" fill="#007BFE"/>
<path d="M32.4998 18.2666L20.1523 22.572V31.9655L31.5251 36.0012C32.7876 36.4492 33.0361 38.1262 31.9577 38.921C31.5455 39.2248 31.0167 39.3228 30.523 39.187L21.3473 36.6623C22.8077 40.4459 27.0829 47.9346 32.4998 47.6215C37.9167 47.3084 42.723 38.6193 44.449 34.3139L32.1055 29.8087C31.1874 29.4736 30.6525 28.5174 30.8474 27.5596C31.0882 26.3762 32.3253 25.6842 33.4598 26.0983L45.2456 30.4V21.7892L32.4998 18.2666Z" fill="white"/>
<path d="M81.2113 30.8628V38.0988C81.2113 38.6028 81.3283 38.9718 81.5623 39.2058C81.8143 39.4218 82.2283 39.5298 82.8043 39.5298H84.5593V42.7158H82.1833C78.9973 42.7158 77.4043 41.1678 77.4043 38.0718V30.8628H75.6223V27.7578H77.4043V24.0588H81.2113V27.7578H84.5593V30.8628H81.2113ZM101.183 34.9128C101.183 35.4528 101.147 35.9388 101.075 36.3708H90.14C90.23 37.4508 90.608 38.2968 91.274 38.9088C91.94 39.5208 92.759 39.8268 93.731 39.8268C95.135 39.8268 96.134 39.2238 96.728 38.0178H100.805C100.373 39.4578 99.545 40.6458 98.321 41.5818C97.097 42.4998 95.594 42.9588 93.812 42.9588C92.372 42.9588 91.076 42.6438 89.924 42.0138C88.79 41.3658 87.899 40.4568 87.251 39.2868C86.621 38.1168 86.306 36.7668 86.306 35.2368C86.306 33.6888 86.621 32.3298 87.251 31.1598C87.881 29.9898 88.763 29.0898 89.897 28.4598C91.031 27.8298 92.336 27.5148 93.812 27.5148C95.234 27.5148 96.503 27.8208 97.619 28.4328C98.753 29.0448 99.626 29.9178 100.238 31.0518C100.868 32.1678 101.183 33.4548 101.183 34.9128ZM97.268 33.8328C97.25 32.8608 96.899 32.0868 96.215 31.5108C95.531 30.9168 94.694 30.6198 93.704 30.6198C92.768 30.6198 91.976 30.9078 91.328 31.4838C90.698 32.0418 90.311 32.8248 90.167 33.8328H97.268ZM109.801 27.5148C110.917 27.5148 111.898 27.7398 112.744 28.1898C113.59 28.6218 114.256 29.1888 114.742 29.8908V27.7578H118.549V42.8238C118.549 44.2098 118.27 45.4428 117.712 46.5228C117.154 47.6208 116.317 48.4848 115.201 49.1148C114.085 49.7628 112.735 50.0868 111.151 50.0868C109.027 50.0868 107.281 49.5918 105.913 48.6018C104.563 47.6118 103.798 46.2618 103.618 44.5518H107.371C107.569 45.2358 107.992 45.7758 108.64 46.1718C109.306 46.5858 110.107 46.7928 111.043 46.7928C112.141 46.7928 113.032 46.4598 113.716 45.7938C114.4 45.1458 114.742 44.1558 114.742 42.8238V40.5018C114.256 41.2038 113.581 41.7888 112.717 42.2568C111.871 42.7248 110.899 42.9588 109.801 42.9588C108.541 42.9588 107.389 42.6348 106.345 41.9868C105.301 41.3388 104.473 40.4298 103.861 39.2598C103.267 38.0718 102.97 36.7128 102.97 35.1828C102.97 33.6708 103.267 32.3298 103.861 31.1598C104.473 29.9898 105.292 29.0898 106.318 28.4598C107.362 27.8298 108.523 27.5148 109.801 27.5148ZM114.742 35.2368C114.742 34.3188 114.562 33.5358 114.202 32.8878C113.842 32.2218 113.356 31.7178 112.744 31.3758C112.132 31.0158 111.475 30.8358 110.773 30.8358C110.071 30.8358 109.423 31.0068 108.829 31.3488C108.235 31.6908 107.749 32.1948 107.371 32.8608C107.011 33.5088 106.831 34.2828 106.831 35.1828C106.831 36.0828 107.011 36.8748 107.371 37.5588C107.749 38.2248 108.235 38.7378 108.829 39.0978C109.441 39.4578 110.089 39.6378 110.773 39.6378C111.475 39.6378 112.132 39.4668 112.744 39.1248C113.356 38.7648 113.842 38.2608 114.202 37.6128C114.562 36.9468 114.742 36.1548 114.742 35.2368ZM128.883 42.9588C127.443 42.9588 126.147 42.6438 124.995 42.0138C123.843 41.3658 122.934 40.4568 122.268 39.2868C121.62 38.1168 121.296 36.7668 121.296 35.2368C121.296 33.7068 121.629 32.3568 122.295 31.1868C122.979 30.0168 123.906 29.1168 125.076 28.4868C126.246 27.8388 127.551 27.5148 128.991 27.5148C130.431 27.5148 131.736 27.8388 132.906 28.4868C134.076 29.1168 134.994 30.0168 135.66 31.1868C136.344 32.3568 136.686 33.7068 136.686 35.2368C136.686 36.7668 136.335 38.1168 135.633 39.2868C134.949 40.4568 134.013 41.3658 132.825 42.0138C131.655 42.6438 130.341 42.9588 128.883 42.9588ZM128.883 39.6648C129.567 39.6648 130.206 39.5028 130.8 39.1788C131.412 38.8368 131.898 38.3328 132.258 37.6668C132.618 37.0008 132.798 36.1908 132.798 35.2368C132.798 33.8148 132.42 32.7258 131.664 31.9698C130.926 31.1958 130.017 30.8088 128.937 30.8088C127.857 30.8088 126.948 31.1958 126.21 31.9698C125.49 32.7258 125.13 33.8148 125.13 35.2368C125.13 36.6588 125.481 37.7568 126.183 38.5308C126.903 39.2868 127.803 39.6648 128.883 39.6648ZM146.317 30.8628H143.698V42.7158H139.864V30.8628H138.163V27.7578H139.864V27.0018C139.864 25.1658 140.386 23.8158 141.43 22.9518C142.474 22.0878 144.049 21.6828 146.155 21.7368V24.9228C145.237 24.9048 144.598 25.0578 144.238 25.3818C143.878 25.7058 143.698 26.2908 143.698 27.1368V27.7578H146.317V30.8628ZM163.076 27.7578L153.815 49.7898H149.792L153.032 42.3378L147.038 27.7578H151.277L155.138 38.2068L159.053 27.7578H163.076Z" fill="#007BFE"/>
</svg>
