<svg width="17" height="18" viewBox="0 0 17 18" fill="none" xmlns="http://www.w3.org/2000/svg">
<path d="M6.08929 8.573C6.55815 8.573 7.00781 8.38674 7.33935 8.0552C7.67089 7.72367 7.85714 7.27401 7.85714 6.80514V2.48371C7.85714 2.01485 7.67089 1.56519 7.33935 1.23365C7.00781 0.902112 6.55815 0.715856 6.08929 0.715856H1.76786C1.29899 0.715856 0.849331 0.902112 0.517793 1.23365C0.186256 1.56519 0 2.01485 0 2.48371V6.80514C0 7.27401 0.186256 7.72367 0.517793 8.0552C0.849331 8.38674 1.29899 8.573 1.76786 8.573H6.08929ZM6.08929 7.39443H1.76786C1.61157 7.39443 1.46168 7.33234 1.35117 7.22183C1.24066 7.11132 1.17857 6.96143 1.17857 6.80514V2.48371C1.17857 2.15843 1.44257 1.89443 1.76786 1.89443H6.08929C6.24557 1.89443 6.39546 1.95651 6.50597 2.06703C6.61649 2.17754 6.67857 2.32743 6.67857 2.48371V6.80514C6.67857 6.96143 6.61649 7.11132 6.50597 7.22183C6.39546 7.33234 6.24557 7.39443 6.08929 7.39443ZM5.10714 5.823V3.46586H2.75V5.823H5.10714Z" fill="white"/>
<path d="M6.08929 17.573C6.55815 17.573 7.00781 17.3867 7.33935 17.0552C7.67089 16.7237 7.85714 16.274 7.85714 15.8051V11.4837C7.85714 11.0148 7.67089 10.5652 7.33935 10.2336C7.00781 9.90211 6.55815 9.71586 6.08929 9.71586H1.76786C1.29899 9.71586 0.849331 9.90211 0.517793 10.2336C0.186256 10.5652 0 11.0148 0 11.4837V15.8051C0 16.274 0.186256 16.7237 0.517793 17.0552C0.849331 17.3867 1.29899 17.573 1.76786 17.573H6.08929ZM6.08929 16.3944H1.76786C1.61157 16.3944 1.46168 16.3323 1.35117 16.2218C1.24066 16.1113 1.17857 15.9614 1.17857 15.8051V11.4837C1.17857 11.1584 1.44257 10.8944 1.76786 10.8944H6.08929C6.24557 10.8944 6.39546 10.9565 6.50597 11.067C6.61649 11.1775 6.67857 11.3274 6.67857 11.4837V15.8051C6.67857 15.9614 6.61649 16.1113 6.50597 16.2218C6.39546 16.3323 6.24557 16.3944 6.08929 16.3944ZM5.10714 14.823V12.4659H2.75V14.823H5.10714Z" fill="white"/>
<path d="M14.9465 17.573C15.4153 17.573 15.865 17.3867 16.1965 17.0552C16.5281 16.7237 16.7143 16.274 16.7143 15.8051V11.4837C16.7143 11.0148 16.5281 10.5652 16.1965 10.2336C15.865 9.90211 15.4153 9.71586 14.9465 9.71586H10.625C10.1562 9.71586 9.70651 9.90211 9.37497 10.2336C9.04343 10.5652 8.85718 11.0148 8.85718 11.4837V15.8051C8.85718 16.274 9.04343 16.7237 9.37497 17.0552C9.70651 17.3867 10.1562 17.573 10.625 17.573H14.9465ZM14.9465 16.3944H10.625C10.4687 16.3944 10.3189 16.3323 10.2083 16.2218C10.0978 16.1113 10.0357 15.9614 10.0357 15.8051V11.4837C10.0357 11.1584 10.2997 10.8944 10.625 10.8944H14.9465C15.1028 10.8944 15.2526 10.9565 15.3632 11.067C15.4737 11.1775 15.5357 11.3274 15.5357 11.4837V15.8051C15.5357 15.9614 15.4737 16.1113 15.3632 16.2218C15.2526 16.3323 15.1028 16.3944 14.9465 16.3944ZM13.9643 14.823V12.4659H11.6072V14.823H13.9643Z" fill="white"/>
<path d="M14.9465 8.573C15.4153 8.573 15.865 8.38674 16.1965 8.0552C16.5281 7.72367 16.7143 7.27401 16.7143 6.80514V2.48371C16.7143 2.01485 16.5281 1.56519 16.1965 1.23365C15.865 0.902112 15.4153 0.715856 14.9465 0.715856H10.625C10.1562 0.715856 9.70651 0.902112 9.37497 1.23365C9.04343 1.56519 8.85718 2.01485 8.85718 2.48371V6.80514C8.85718 7.27401 9.04343 7.72367 9.37497 8.0552C9.70651 8.38674 10.1562 8.573 10.625 8.573H14.9465ZM14.9465 7.39443H10.625C10.4687 7.39443 10.3189 7.33234 10.2083 7.22183C10.0978 7.11132 10.0357 6.96143 10.0357 6.80514V2.48371C10.0357 2.15843 10.2997 1.89443 10.625 1.89443H14.9465C15.1028 1.89443 15.2526 1.95651 15.3632 2.06703C15.4737 2.17754 15.5357 2.32743 15.5357 2.48371V6.80514C15.5357 6.96143 15.4737 7.11132 15.3632 7.22183C15.2526 7.33234 15.1028 7.39443 14.9465 7.39443ZM13.9643 5.823V3.46586H11.6072V5.823H13.9643Z" fill="white"/>
</svg>
