<svg width="411" height="360" viewBox="0 0 411 360" fill="none" xmlns="http://www.w3.org/2000/svg">
<g clip-path="url(#clip0)">
<path d="M77.1273 253.53L72.8946 286.875L66.6656 248.997C36.73 237.509 1.72837 235.278 1.72837 235.278C1.72837 235.278 -5.9957 307.624 19.5065 337.874C45.0087 368.124 71.8963 363.526 94.0799 344.824C116.263 326.122 125.342 300.4 99.8399 270.149C94.1636 263.416 86.1509 257.956 77.1273 253.53Z" fill="#E5F0FC"/>
<path d="M68.8267 291.917L70.0837 293.408C84.6067 310.814 93.0841 326.802 95.3762 341.159C95.4133 341.368 95.4367 341.575 95.4737 341.784L94.5017 341.934L93.5655 342.067C91.2598 326.42 81.2581 309.988 68.5947 294.802C68.1913 294.308 67.7818 293.808 67.3575 293.319C61.94 286.938 56.0913 280.794 50.1618 275.034C49.7068 274.584 49.2382 274.133 48.7696 273.682C40.904 266.12 32.9656 259.25 25.8752 253.446C25.3759 253.033 24.8692 252.627 24.3687 252.228C12.327 242.453 2.948 235.926 0.85685 234.494C0.604921 234.315 0.462204 234.221 0.429932 234.198L0.963165 233.407L0.964322 233.394L1.50494 232.597C1.53724 232.62 2.01742 232.935 2.88372 233.543C6.13783 235.801 14.8797 242.006 25.719 250.774C26.2058 251.172 26.7125 251.578 27.2118 251.99C32.9708 256.695 39.2614 262.075 45.5994 267.945C47.1939 269.417 48.7475 270.885 50.2602 272.35C50.7362 272.795 51.2048 273.246 51.6598 273.696C58.0703 279.921 63.7926 285.995 68.8267 291.917Z" fill="white"/>
<path d="M25.7191 250.774C25.2805 251.257 24.8346 251.747 24.3688 252.228C23.1057 253.536 21.7764 254.779 20.3861 255.952C14.4668 260.955 7.5004 264.567 0 266.521C0.0197816 267.173 0.039603 267.826 0.0582284 268.492C7.99811 266.496 15.3768 262.711 21.6307 257.428C23.1147 256.176 24.5315 254.847 25.8753 253.445C26.3336 252.971 26.7796 252.481 27.2119 251.99C30.8007 247.963 33.757 243.414 35.9798 238.499C35.3201 238.361 34.6741 238.224 34.0416 238.088C31.9073 242.703 29.1028 246.978 25.7191 250.774Z" fill="white"/>
<path d="M50.2604 272.35C49.7759 272.809 49.279 273.253 48.7697 273.682C48.6209 273.82 48.4585 273.957 48.3035 274.088C41.8826 279.501 34.2478 283.282 26.0502 285.107C17.8526 286.932 9.33517 286.748 1.22412 284.57C1.29602 285.254 1.36792 285.939 1.45343 286.624C9.77218 288.734 18.4738 288.831 26.8375 286.907C35.2013 284.984 42.9864 281.096 49.5481 275.564C49.7548 275.39 49.9615 275.216 50.1619 275.034C50.6724 274.591 51.1693 274.147 51.6599 273.695C59.2009 266.647 64.5524 257.577 67.0744 247.567C66.471 247.331 65.8677 247.095 65.2569 246.865C62.8444 256.638 57.6325 265.495 50.2604 272.35Z" fill="white"/>
<path d="M68.8267 291.917C68.3474 292.396 67.8555 292.861 67.3575 293.319C66.8225 293.808 66.2813 294.29 65.7277 294.756C57.0912 302.02 46.3341 306.291 35.0671 306.93C23.8 307.569 12.6292 304.541 3.22705 298.3C3.39897 299.178 3.56461 300.048 3.75126 300.914C13.4439 306.877 24.7694 309.635 36.1186 308.794C47.4678 307.954 58.2636 303.559 66.9723 296.233C67.5259 295.766 68.0733 295.292 68.5947 294.802C69.1063 294.345 69.5982 293.88 70.0837 293.408C79.8322 283.792 85.5625 270.832 86.1141 257.151C85.4986 256.735 84.8672 256.345 84.2296 255.949C83.9677 269.485 78.4427 282.386 68.8267 291.917Z" fill="white"/>
<path d="M235.581 85.577V31.8256C235.581 23.5748 232.303 15.662 226.469 9.82774C220.635 3.99353 212.722 0.715877 204.471 0.71582H90.5915C86.5061 0.715795 82.4607 1.52045 78.6863 3.08385C74.9118 4.64724 71.4823 6.93876 68.5934 9.82756C65.7046 12.7164 63.413 16.1459 61.8496 19.9203C60.2862 23.6947 59.4814 27.7401 59.4814 31.8255V67.5234H57.4805V80.1016H59.4814V93.5183H57.4805V112.805H59.4814V121.19H57.4805V140.477H59.4814V326.71C59.4814 330.795 60.2861 334.84 61.8495 338.615C63.4129 342.389 65.7044 345.819 68.5932 348.708C71.482 351.596 74.9115 353.888 78.6859 355.451C82.4603 357.015 86.5057 357.819 90.5911 357.819H204.471C208.556 357.819 212.601 357.015 216.376 355.451C220.15 353.888 223.58 351.597 226.469 348.708C229.357 345.819 231.649 342.389 233.212 338.615C234.776 334.841 235.581 330.795 235.581 326.71V123.838H237.543V85.577H235.581Z" fill="#374A5D"/>
<path d="M205.726 8.80959H190.861C191.545 10.4856 191.806 12.3039 191.621 14.1045C191.436 15.9051 190.811 17.6326 189.802 19.1349C188.792 20.6372 187.429 21.8682 185.831 22.7193C184.234 23.5705 182.452 24.0158 180.642 24.0159H115.402C113.591 24.0158 111.809 23.5705 110.212 22.7193C108.614 21.8682 107.251 20.6372 106.241 19.1349C105.232 17.6326 104.607 15.9051 104.422 14.1045C104.238 12.3039 104.499 10.4855 105.182 8.80957H91.2981C85.1365 8.80957 79.2272 11.2573 74.8703 15.6142C70.5134 19.9711 68.0657 25.8804 68.0657 32.042V326.493C68.0657 329.544 68.6666 332.565 69.8341 335.384C71.0017 338.203 72.713 340.764 74.8703 342.921C77.0276 345.079 79.5887 346.79 82.4074 347.957C85.2261 349.125 88.2472 349.726 91.2981 349.726H205.726C211.888 349.726 217.797 347.278 222.154 342.921C226.511 338.564 228.959 332.655 228.959 326.493V32.042C228.959 28.9911 228.358 25.97 227.19 23.1513C226.023 20.3326 224.311 17.7715 222.154 15.6142C219.997 13.4569 217.435 11.7456 214.617 10.578C211.798 9.4105 208.777 8.80958 205.726 8.80959Z" fill="white"/>
<path d="M306.361 93.1713C305.138 84.2063 303.605 74.5811 297.282 68.1095C295.276 66.056 292.875 64.4301 290.223 63.3298C287.571 62.2295 284.724 61.6776 281.854 61.7073C278.983 61.737 276.148 62.3478 273.519 63.5027C270.891 64.6577 268.524 66.3329 266.56 68.4275C261.958 73.3377 259.925 80.2324 259.739 86.9601C259.553 93.6878 261.051 100.341 262.714 106.863C271.51 107.038 280.241 105.32 288.315 101.823C290.293 100.858 292.346 100.052 294.453 99.4136C296.586 98.8707 298.106 100.237 300.09 101.189L301.18 99.1039C302.071 100.763 304.832 100.271 305.833 98.676C306.834 97.0806 306.615 95.0376 306.361 93.1713Z" fill="#212734"/>
<path d="M386.934 338.732L380.473 343.005L360.919 320.118L370.454 313.812L386.934 338.732Z" fill="#9E616A"/>
<path d="M392.723 343.904L371.891 357.681L371.717 357.418C370.295 355.267 369.785 352.64 370.3 350.114C370.815 347.588 372.313 345.37 374.463 343.947L374.463 343.947L387.187 335.532L392.723 343.904Z" fill="#212734"/>
<path d="M303.534 350.173H295.788L292.103 320.297L303.535 320.297L303.534 350.173Z" fill="#9E616A"/>
<path d="M305.509 357.681L280.533 357.68V357.364C280.534 354.786 281.558 352.314 283.381 350.491C285.204 348.668 287.676 347.643 290.255 347.643H290.255L305.509 347.644L305.509 357.681Z" fill="#212734"/>
<path d="M115.471 71.0538H108.619C108.378 71.0538 108.147 71.1495 107.977 71.3199C107.807 71.4902 107.711 71.7213 107.711 71.9622V74.9695C107.711 75.2104 107.807 75.4414 107.977 75.6118C108.147 75.7821 108.378 75.8778 108.619 75.8778H109.755V80.3838H114.335V75.8778H115.471C115.712 75.8778 115.943 75.7821 116.113 75.6118C116.283 75.4414 116.379 75.2104 116.379 74.9695V71.9622C116.379 71.7213 116.283 71.4902 116.113 71.3199C115.943 71.1495 115.712 71.0538 115.471 71.0538Z" fill="#007BFE"/>
<path d="M122.333 98.5745C118.137 92.4346 115.992 85.1242 116.205 77.6906C116.209 77.519 116.153 77.3515 116.048 77.2163C115.942 77.0812 115.793 76.9868 115.625 76.9492V75.6498H108.389V76.9312H108.29C108.093 76.9314 107.904 77.0099 107.765 77.1493C107.626 77.2887 107.548 77.4777 107.548 77.6746C107.548 77.6926 107.549 77.7106 107.55 77.7286C108.12 85.6752 106.195 92.8014 101.775 99.1075C101.521 99.4699 101.391 99.905 101.405 100.348L102.196 124.822C102.215 125.368 102.444 125.886 102.836 126.267C103.227 126.648 103.751 126.863 104.297 126.867H120.664C121.216 126.863 121.745 126.643 122.138 126.254C122.53 125.865 122.755 125.339 122.765 124.786L123.07 101.023C123.079 100.151 122.822 99.2968 122.333 98.5745Z" fill="#C1DFFF"/>
<path d="M119.742 106.707H105.496C105.285 106.707 105.077 106.752 104.885 106.84C104.694 106.928 104.524 107.057 104.386 107.217C104.249 107.377 104.148 107.565 104.09 107.767C104.032 107.97 104.019 108.183 104.051 108.392L106.203 122.385H118.565L121.18 108.439C121.219 108.227 121.212 108.01 121.158 107.802C121.104 107.594 121.005 107.4 120.868 107.235C120.731 107.07 120.558 106.937 120.364 106.845C120.169 106.754 119.957 106.707 119.742 106.707Z" fill="white"/>
<path d="M191.74 144.369H184.889C184.648 144.369 184.417 144.465 184.246 144.635C184.076 144.806 183.98 145.037 183.98 145.277V148.285C183.98 148.526 184.076 148.757 184.246 148.927C184.417 149.097 184.648 149.193 184.889 149.193H186.024V153.699H190.605V149.193H191.74C191.981 149.193 192.212 149.097 192.382 148.927C192.553 148.757 192.648 148.526 192.648 148.285V145.277C192.648 145.037 192.553 144.806 192.382 144.635C192.212 144.465 191.981 144.369 191.74 144.369Z" fill="#007BFE"/>
<path d="M198.603 171.894C194.407 165.754 192.262 158.444 192.475 151.01C192.479 150.839 192.423 150.671 192.317 150.536C192.212 150.401 192.062 150.307 191.895 150.269V148.97H184.659V150.251H184.559C184.462 150.251 184.365 150.27 184.275 150.308C184.185 150.345 184.103 150.4 184.035 150.469C183.966 150.538 183.911 150.62 183.874 150.71C183.837 150.8 183.818 150.897 183.818 150.994C183.818 151.012 183.818 151.03 183.82 151.048C184.39 158.995 182.465 166.121 178.045 172.427C177.791 172.79 177.661 173.225 177.675 173.667L178.466 198.142C178.485 198.688 178.714 199.205 179.105 199.586C179.497 199.967 180.02 200.183 180.566 200.187H196.933C197.486 200.182 198.014 199.962 198.407 199.574C198.8 199.185 199.025 198.658 199.035 198.106L199.34 174.343C199.349 173.471 199.092 172.617 198.603 171.894Z" fill="#C1DFFF"/>
<path d="M196.012 180.023H181.766C181.555 180.023 181.347 180.068 181.155 180.156C180.963 180.244 180.793 180.373 180.656 180.533C180.518 180.693 180.417 180.881 180.359 181.084C180.302 181.286 180.288 181.499 180.32 181.708L182.473 195.701H194.834L197.449 181.755C197.489 181.544 197.482 181.326 197.428 181.118C197.374 180.91 197.275 180.717 197.137 180.551C197 180.386 196.828 180.253 196.633 180.161C196.439 180.07 196.227 180.023 196.012 180.023H196.012Z" fill="white"/>
<path d="M105.839 248.019H102.589C102.475 248.019 102.365 248.064 102.284 248.145C102.203 248.226 102.158 248.335 102.158 248.449V249.876C102.158 249.99 102.203 250.1 102.284 250.181C102.365 250.261 102.475 250.307 102.589 250.307H103.127V252.444H105.3V250.307H105.839C105.953 250.307 106.063 250.261 106.143 250.181C106.224 250.1 106.27 249.99 106.27 249.876V248.449C106.27 248.335 106.224 248.226 106.143 248.145C106.063 248.064 105.953 248.019 105.839 248.019Z" fill="#007BFE"/>
<path d="M109.094 261.074C107.104 258.162 106.086 254.694 106.187 251.168C106.189 251.086 106.163 251.007 106.112 250.943C106.062 250.879 105.992 250.834 105.912 250.816V250.2H102.48V250.808H102.432C102.386 250.808 102.34 250.817 102.298 250.835C102.255 250.852 102.216 250.878 102.184 250.911C102.151 250.944 102.125 250.983 102.107 251.025C102.09 251.068 102.081 251.114 102.081 251.16C102.081 251.169 102.081 251.177 102.082 251.186C102.398 254.784 101.428 258.378 99.3424 261.327C99.2218 261.499 99.1601 261.705 99.1667 261.915L99.542 273.524C99.551 273.783 99.6597 274.029 99.8454 274.21C100.031 274.39 100.279 274.492 100.538 274.494H108.302C108.564 274.492 108.815 274.388 109.001 274.204C109.187 274.019 109.294 273.769 109.299 273.507L109.444 262.235C109.448 261.822 109.326 261.417 109.094 261.074Z" fill="#C1DFFF"/>
<path d="M107.977 265.344H100.569V269.048H107.977V265.344Z" fill="white"/>
<path d="M120.967 248.019H117.717C117.603 248.019 117.493 248.064 117.413 248.145C117.332 248.226 117.286 248.335 117.286 248.449V249.876C117.286 249.99 117.332 250.1 117.413 250.181C117.493 250.261 117.603 250.307 117.717 250.307H118.256V252.444H120.429V250.307H120.967C121.081 250.307 121.191 250.261 121.272 250.181C121.353 250.1 121.398 249.99 121.398 249.876V248.449C121.398 248.335 121.353 248.226 121.272 248.145C121.191 248.064 121.081 248.019 120.967 248.019Z" fill="#007BFE"/>
<path d="M124.222 261.074C122.232 258.162 121.214 254.694 121.316 251.168C121.317 251.086 121.291 251.007 121.241 250.943C121.191 250.879 121.12 250.834 121.041 250.816V250.2H117.608V250.808H117.561C117.515 250.808 117.469 250.817 117.426 250.835C117.383 250.852 117.345 250.878 117.312 250.911C117.279 250.944 117.253 250.983 117.236 251.025C117.218 251.068 117.209 251.114 117.209 251.16C117.209 251.169 117.209 251.177 117.21 251.186C117.527 254.784 116.556 258.378 114.471 261.327C114.35 261.499 114.289 261.705 114.295 261.915L114.67 273.524C114.679 273.783 114.788 274.029 114.974 274.21C115.159 274.39 115.408 274.492 115.667 274.494H123.43C123.692 274.492 123.943 274.388 124.129 274.204C124.316 274.019 124.423 273.769 124.427 273.507L124.572 262.235C124.576 261.822 124.454 261.417 124.222 261.074Z" fill="#C1DFFF"/>
<path d="M123.105 265.344H115.698V269.048H123.105V265.344Z" fill="white"/>
<path d="M136.095 248.019H132.845C132.731 248.019 132.622 248.064 132.541 248.145C132.46 248.226 132.415 248.335 132.415 248.449V249.876C132.415 249.99 132.46 250.1 132.541 250.181C132.622 250.261 132.731 250.307 132.845 250.307H133.384V252.444H135.557V250.307H136.095C136.21 250.307 136.319 250.261 136.4 250.181C136.481 250.1 136.526 249.99 136.526 249.876V248.449C136.526 248.335 136.481 248.226 136.4 248.145C136.319 248.064 136.21 248.019 136.095 248.019Z" fill="#007BFE"/>
<path d="M139.351 261.074C137.361 258.162 136.343 254.694 136.444 251.168C136.446 251.086 136.42 251.007 136.37 250.943C136.319 250.879 136.249 250.834 136.169 250.816V250.2H132.737V250.808H132.69C132.643 250.808 132.598 250.817 132.555 250.835C132.512 250.852 132.473 250.878 132.441 250.911C132.408 250.944 132.382 250.983 132.364 251.025C132.347 251.068 132.338 251.114 132.338 251.16C132.338 251.169 132.338 251.177 132.339 251.186C132.656 254.784 131.685 258.378 129.599 261.327C129.479 261.499 129.417 261.705 129.424 261.915L129.799 273.524C129.808 273.783 129.917 274.029 130.102 274.21C130.288 274.39 130.536 274.492 130.796 274.494H138.559C138.821 274.492 139.072 274.388 139.258 274.204C139.444 274.019 139.551 273.769 139.556 273.507L139.701 262.235C139.705 261.822 139.583 261.417 139.351 261.074Z" fill="#C1DFFF"/>
<path d="M138.234 265.344H130.826V269.048H138.234V265.344Z" fill="white"/>
<path d="M179.838 219.654H172.986C172.867 219.654 172.749 219.678 172.639 219.723C172.529 219.769 172.429 219.836 172.344 219.92C172.26 220.004 172.193 220.105 172.147 220.215C172.102 220.325 172.078 220.443 172.078 220.562V223.57C172.078 223.811 172.174 224.042 172.344 224.212C172.515 224.382 172.746 224.478 172.986 224.478H174.122V228.984H178.703V224.478H179.838C180.079 224.478 180.31 224.382 180.48 224.212C180.651 224.042 180.746 223.811 180.746 223.57V220.562C180.746 220.443 180.723 220.325 180.677 220.215C180.631 220.105 180.565 220.004 180.48 219.92C180.396 219.836 180.296 219.769 180.186 219.723C180.075 219.678 179.957 219.654 179.838 219.654Z" fill="#007BFE"/>
<path d="M186.7 247.179C182.504 241.039 180.359 233.729 180.573 226.295C180.576 226.124 180.521 225.956 180.415 225.821C180.309 225.686 180.16 225.592 179.993 225.554V224.255H172.757V225.536H172.657C172.559 225.536 172.463 225.555 172.373 225.593C172.283 225.63 172.201 225.685 172.132 225.754C172.063 225.823 172.009 225.905 171.972 225.995C171.934 226.085 171.915 226.182 171.915 226.279C171.915 226.297 171.916 226.315 171.917 226.333C172.488 234.28 170.563 241.406 166.143 247.712C165.888 248.075 165.758 248.51 165.772 248.952L166.563 273.427C166.582 273.973 166.812 274.49 167.203 274.871C167.594 275.252 168.118 275.467 168.664 275.472H185.031C185.583 275.467 186.112 275.247 186.505 274.859C186.897 274.47 187.123 273.943 187.133 273.391L187.438 249.628C187.447 248.756 187.189 247.902 186.7 247.179Z" fill="#C1DFFF"/>
<path d="M183.578 130.02H142.737C145.593 114.582 144.936 95.9409 142.737 75.8933H183.578C181.438 95.941 180.799 114.582 183.578 130.02Z" fill="#C1DFFF"/>
<path d="M163.404 111.321C168.839 111.321 173.245 106.915 173.245 101.48C173.245 96.0446 168.839 91.6385 163.404 91.6385C157.969 91.6385 153.563 96.0446 153.563 101.48C153.563 106.915 157.969 111.321 163.404 111.321Z" fill="white"/>
<path d="M146.181 201.859H105.34C108.196 186.421 107.539 167.78 105.34 147.732H146.181C144.041 167.78 143.402 186.421 146.181 201.859Z" fill="#C1DFFF"/>
<path d="M126.007 183.163C131.442 183.163 135.848 178.756 135.848 173.321C135.848 167.886 131.442 163.48 126.007 163.48C120.572 163.48 116.166 167.886 116.166 173.321C116.166 178.756 120.572 183.163 126.007 183.163Z" fill="white"/>
<path d="M206.705 133.465H165.864C168.719 118.028 168.062 99.3861 165.864 79.3385H206.705C204.565 99.3861 203.926 118.028 206.705 133.465Z" fill="#C1DFFF"/>
<path d="M186.53 114.764C191.966 114.764 196.372 110.358 196.372 104.923C196.372 99.488 191.966 95.0819 186.53 95.0819C181.095 95.0819 176.689 99.488 176.689 104.923C176.689 110.358 181.095 114.764 186.53 114.764Z" fill="white"/>
<path d="M216.054 127.067H82.2136V141.829H216.054V127.067Z" fill="#007BFE"/>
<path d="M216.054 200.385H82.2136V215.147H216.054V200.385Z" fill="#007BFE"/>
<path d="M216.054 273.701H82.2136V288.463H216.054V273.701Z" fill="#007BFE"/>
<path d="M248.424 144.859L219.178 123.968C219.307 122.874 219.115 121.766 218.626 120.778C218.136 119.791 217.37 118.967 216.421 118.407C215.472 117.848 214.381 117.576 213.28 117.625C212.179 117.674 211.116 118.041 210.221 118.683C209.325 119.326 208.635 120.214 208.236 121.241C207.836 122.268 207.743 123.389 207.969 124.467C208.194 125.546 208.728 126.536 209.506 127.316C210.284 128.097 211.272 128.634 212.35 128.864C216.006 131.933 242.707 158.487 246.53 157.087C250.41 155.665 267.375 153.092 267.375 153.092L267.847 136.984L248.424 144.859Z" fill="#9E616A"/>
<path d="M271.401 182.868L271.677 219.625C271.677 219.625 278.006 274.086 280.341 283.287C282.675 292.487 292.15 335.06 292.15 335.06L307.552 332.575L297.633 276.915L300.631 230.783L317.92 277.017L361.821 322.906L372.947 313.929L334.735 257.774L323.064 211.772C323.064 211.772 324.516 187.978 311.439 178.815L271.401 182.868Z" fill="#212734"/>
<path d="M280.249 102.042C289.572 102.042 297.131 94.4831 297.131 85.1594C297.131 75.8356 289.572 68.2772 280.249 68.2772C270.925 68.2772 263.366 75.8356 263.366 85.1594C263.366 94.4831 270.925 102.042 280.249 102.042Z" fill="#9E616A"/>
<path d="M284.642 188.799L278.367 202.805L296.575 210.962L302.85 196.956L284.642 188.799Z" fill="#212734"/>
<path d="M307.288 117.642C305.299 113.683 304.332 108.791 300.091 107.508C297.227 106.641 285.643 107.94 283.032 109.403C278.69 111.837 282.625 116.398 280.063 120.666C277.279 125.306 274.494 129.945 271.709 134.585C269.795 137.775 267.861 141.01 266.826 144.583C265.791 148.156 265.741 152.166 267.504 155.442C269.082 158.374 271.941 160.453 273.528 163.38C275.179 166.424 272.216 180.016 270.68 183.119L271.417 183.46C281.63 184.059 291.877 183.715 302.027 182.43C304.546 182.111 307.161 181.694 309.237 180.232C312.295 178.078 313.504 174.17 314.259 170.506C317.895 152.601 315.442 133.993 307.288 117.642Z" fill="#73899D"/>
<path d="M272.738 155.987C277.312 151.492 281.909 146.971 285.674 141.779C289.439 136.588 292.367 130.646 293.184 124.286C293.534 122.257 293.395 120.173 292.779 118.208C292.078 116.282 290.524 114.572 288.522 114.133C285.317 113.429 282.404 115.986 280.117 118.339C273.375 125.275 266.633 132.211 259.891 139.148C264.185 144.801 268.48 150.454 272.775 156.107L272.738 155.987Z" fill="#73899D"/>
<path d="M322.589 159.449C321.168 155.569 318.594 138.604 318.594 138.604L302.487 138.132L310.362 157.555L288.872 187.639C288.872 187.639 288.912 187.705 288.984 187.823C287.854 187.642 286.696 187.806 285.661 188.294C284.626 188.782 283.762 189.571 283.183 190.557C282.603 191.544 282.335 192.683 282.414 193.825C282.492 194.966 282.914 196.057 283.622 196.956C284.331 197.854 285.295 198.517 286.387 198.859C287.479 199.2 288.649 199.204 289.744 198.87C290.838 198.536 291.806 197.879 292.521 196.986C293.236 196.092 293.665 195.004 293.751 193.863C293.83 193.908 293.922 193.925 294.012 193.909C294.102 193.894 294.184 193.847 294.243 193.778C296.635 190.777 324.011 163.33 322.589 159.449Z" fill="#9E616A"/>
<path d="M324.227 148.736C322.749 142.496 321.259 136.222 318.767 130.314C316.274 124.405 312.706 118.824 307.687 114.833C306.131 113.483 304.277 112.523 302.277 112.033C300.265 111.636 297.998 112.08 296.586 113.566C294.325 115.944 295.005 119.76 295.834 122.934C298.279 132.294 300.724 141.653 303.169 151.012C310.229 150.263 317.289 149.515 324.349 148.767L324.227 148.736Z" fill="#73899D"/>
<path d="M301.354 86.4719C300.826 82.3879 300.275 78.2697 299.035 74.4243C297.795 70.5788 295.796 66.977 292.929 64.7985C288.389 61.3496 282.512 62.0148 277.422 63.9987C273.486 65.533 269.644 67.865 266.868 71.614C264.092 75.3631 262.533 80.7127 263.566 85.6147C268.995 84.1038 274.424 82.5929 279.853 81.0819L279.259 81.5766C282.782 83.5618 285.458 87.6694 286.257 92.3202C287.061 96.9548 286.033 101.72 283.391 105.612C287.094 104.065 290.796 102.517 294.499 100.97C296.785 100.015 299.231 98.9149 300.586 96.4654C302.157 93.6253 301.792 89.8611 301.354 86.4719Z" fill="#212734"/>
<path d="M409.711 359.013H0.752283C0.553146 359.013 0.362357 358.933 0.221749 358.792C0.0811415 358.651 0.00219727 358.46 0.00219727 358.261C0.00219727 358.062 0.0811415 357.871 0.221749 357.73C0.362357 357.589 0.553146 357.509 0.752283 357.509H409.711C409.91 357.509 410.101 357.589 410.241 357.73C410.382 357.871 410.461 358.062 410.461 358.261C410.461 358.46 410.382 358.651 410.241 358.792C410.101 358.933 409.91 359.013 409.711 359.013Z" fill="#C1DFFF"/>
<path d="M152.777 14.3172H135.718C135.383 14.3172 135.062 14.1841 134.825 13.9471C134.588 13.7102 134.455 13.3888 134.455 13.0536C134.455 12.7185 134.588 12.3971 134.825 12.1601C135.062 11.9232 135.383 11.79 135.718 11.79H152.777C153.112 11.79 153.433 11.9232 153.67 12.1601C153.907 12.3971 154.04 12.7185 154.04 13.0536C154.04 13.3888 153.907 13.7102 153.67 13.9471C153.433 14.1841 153.112 14.3172 152.777 14.3172Z" fill="white"/>
<path d="M161.306 14.3172C162.004 14.3172 162.569 13.7515 162.569 13.0536C162.569 12.3558 162.004 11.79 161.306 11.79C160.608 11.79 160.042 12.3558 160.042 13.0536C160.042 13.7515 160.608 14.3172 161.306 14.3172Z" fill="white"/>
</g>
<defs>
<clipPath id="clip0">
<rect width="410.463" height="359" fill="white" transform="translate(0 0.71582)"/>
</clipPath>
</defs>
</svg>
