<svg width="58" height="59" viewBox="0 0 58 59" fill="none" xmlns="http://www.w3.org/2000/svg">
<path d="M26.3636 21.5909H36.9091C37.6083 21.5909 38.2789 21.3131 38.7733 20.8187C39.2677 20.3243 39.5455 19.6537 39.5455 18.9545C39.5455 18.2553 39.2677 17.5848 38.7733 17.0904C38.2789 16.5959 37.6083 16.3182 36.9091 16.3182H31.6364V13.6818C31.6364 12.9826 31.3586 12.312 30.8642 11.8176C30.3698 11.3232 29.6992 11.0455 29 11.0455C28.3008 11.0455 27.6302 11.3232 27.1358 11.8176C26.6414 12.312 26.3636 12.9826 26.3636 13.6818V16.3182C24.266 16.3182 22.2543 17.1515 20.7711 18.6347C19.2878 20.1179 18.4546 22.1296 18.4546 24.2273C18.4546 26.3249 19.2878 28.3366 20.7711 29.8198C22.2543 31.3031 24.266 32.1364 26.3636 32.1364H31.6364C32.3356 32.1364 33.0061 32.4141 33.5006 32.9085C33.995 33.4029 34.2727 34.0735 34.2727 34.7727C34.2727 35.4719 33.995 36.1425 33.5006 36.6369C33.0061 37.1313 32.3356 37.4091 31.6364 37.4091H21.0909C20.3917 37.4091 19.7211 37.6868 19.2267 38.1813C18.7323 38.6757 18.4546 39.3462 18.4546 40.0454C18.4546 40.7447 18.7323 41.4152 19.2267 41.9096C19.7211 42.4041 20.3917 42.6818 21.0909 42.6818H26.3636V45.3182C26.3636 46.0174 26.6414 46.688 27.1358 47.1824C27.6302 47.6768 28.3008 47.9545 29 47.9545C29.6992 47.9545 30.3698 47.6768 30.8642 47.1824C31.3586 46.688 31.6364 46.0174 31.6364 45.3182V42.6818C33.734 42.6818 35.7457 41.8485 37.2289 40.3653C38.7122 38.8821 39.5455 36.8703 39.5455 34.7727C39.5455 32.6751 38.7122 30.6634 37.2289 29.1802C35.7457 27.6969 33.734 26.8636 31.6364 26.8636H26.3636C25.6644 26.8636 24.9939 26.5859 24.4995 26.0915C24.005 25.597 23.7273 24.9265 23.7273 24.2273C23.7273 23.5281 24.005 22.8575 24.4995 22.3631C24.9939 21.8687 25.6644 21.5909 26.3636 21.5909ZM29 0.5C23.2644 0.5 17.6575 2.20082 12.8885 5.38738C8.11945 8.57394 4.40245 13.1031 2.20751 18.4022C0.0125653 23.7012 -0.561731 29.5322 0.55724 35.1576C1.67621 40.7831 4.43819 45.9504 8.49392 50.0061C12.5496 54.0618 17.7169 56.8238 23.3424 57.9428C28.9678 59.0617 34.7988 58.4874 40.0978 56.2925C45.3969 54.0976 49.9261 50.3806 53.1126 45.6115C56.2992 40.8425 58 35.2357 58 29.5C58 21.8087 54.9447 14.4325 49.5061 8.9939C44.0676 3.55535 36.6913 0.5 29 0.5ZM29 53.2273C24.3072 53.2273 19.7198 51.8357 15.8178 49.2285C11.9159 46.6213 8.87473 42.9156 7.07887 38.58C5.28301 34.2444 4.81313 29.4737 5.72865 24.871C6.64417 20.2684 8.90398 16.0406 12.2223 12.7223C15.5406 9.40396 19.7684 7.14416 24.371 6.22864C28.9737 5.31312 33.7444 5.783 38.08 7.57886C42.4156 9.37472 46.1213 12.4159 48.7285 16.3178C51.3357 20.2198 52.7273 24.8072 52.7273 29.5C52.7273 35.7929 50.2274 41.828 45.7777 46.2777C41.328 50.7274 35.2929 53.2273 29 53.2273Z" fill="#007BFE"/>
</svg>
