<svg width="58" height="58" viewBox="0 0 58 58" fill="none" xmlns="http://www.w3.org/2000/svg">
<path d="M35.844 35.467C33.9054 37.03 31.4902 37.8824 29 37.8824C26.5098 37.8824 24.0946 37.03 22.156 35.467C21.5638 34.9747 20.8003 34.7379 20.0334 34.8086C19.2666 34.8793 18.5592 35.2518 18.067 35.844C17.5748 36.4362 17.3379 37.1997 17.4086 37.9666C17.4793 38.7334 17.8518 39.4407 18.444 39.933C21.4059 42.4055 25.1417 43.7599 29 43.7599C32.8583 43.7599 36.5941 42.4055 39.556 39.933C40.1482 39.4407 40.5207 38.7334 40.5914 37.9666C40.6621 37.1997 40.4252 36.4362 39.933 35.844C39.6893 35.5507 39.3902 35.3084 39.0528 35.1307C38.7154 34.9531 38.3463 34.8436 37.9666 34.8086C37.1997 34.7379 36.4362 34.9747 35.844 35.467ZM20.3 26.1C20.8736 26.1 21.4343 25.9299 21.9112 25.6113C22.3881 25.2926 22.7598 24.8397 22.9793 24.3098C23.1988 23.7799 23.2562 23.1968 23.1443 22.6342C23.0324 22.0717 22.7562 21.555 22.3506 21.1494C21.945 20.7438 21.4283 20.4676 20.8658 20.3557C20.3032 20.2438 19.7201 20.3012 19.1902 20.5207C18.6603 20.7402 18.2074 21.1119 17.8887 21.5888C17.5701 22.0657 17.4 22.6264 17.4 23.2C17.4 23.9691 17.7055 24.7067 18.2494 25.2506C18.7933 25.7945 19.5309 26.1 20.3 26.1ZM37.7 20.3C37.1264 20.3 36.5658 20.4701 36.0888 20.7887C35.6119 21.1074 35.2402 21.5603 35.0208 22.0902C34.8013 22.6201 34.7438 23.2032 34.8557 23.7658C34.9676 24.3283 35.2438 24.845 35.6494 25.2506C36.055 25.6562 36.5717 25.9324 37.1342 26.0443C37.6968 26.1562 38.2799 26.0987 38.8098 25.8792C39.3397 25.6597 39.7926 25.288 40.1113 24.8111C40.4299 24.3342 40.6 23.7736 40.6 23.2C40.6 22.4309 40.2945 21.6932 39.7506 21.1494C39.2068 20.6055 38.4691 20.3 37.7 20.3ZM29 0C23.2643 0 17.6575 1.70082 12.8885 4.88738C8.11945 8.07394 4.40245 12.6031 2.20751 17.9022C0.0125652 23.2012 -0.561731 29.0322 0.55724 34.6576C1.67621 40.2831 4.43819 45.4504 8.49391 49.5061C12.5496 53.5618 17.7169 56.3238 23.3424 57.4428C28.9678 58.5617 34.7988 57.9874 40.0978 55.7925C45.3969 53.5976 49.9261 49.8805 53.1126 45.1115C56.2992 40.3425 58 34.7356 58 29C58 25.1917 57.2499 21.4206 55.7925 17.9022C54.3351 14.3837 52.199 11.1868 49.5061 8.4939C46.8132 5.801 43.6163 3.66488 40.0978 2.20749C36.5794 0.750107 32.8083 0 29 0ZM29 52.2C24.4115 52.2 19.926 50.8393 16.1108 48.2901C12.2956 45.7408 9.32196 42.1175 7.56601 37.8782C5.81005 33.639 5.35062 28.9743 6.24579 24.4739C7.14097 19.9735 9.35055 15.8397 12.5951 12.5951C15.8397 9.35054 19.9736 7.14096 24.4739 6.24578C28.9743 5.3506 33.639 5.81004 37.8783 7.56599C42.1175 9.32195 45.7408 12.2955 48.2901 16.1108C50.8393 19.926 52.2 24.4115 52.2 29C52.2 35.153 49.7557 41.054 45.4049 45.4049C41.054 49.7557 35.153 52.2 29 52.2Z" fill="#007BFE"/>
</svg>
