<svg width="47" height="59" viewBox="0 0 47 59" fill="none" xmlns="http://www.w3.org/2000/svg">
<path d="M37.7 20.8V15C37.7 11.1544 36.1723 7.46623 33.453 4.74695C30.7338 2.02767 27.0456 0.5 23.2 0.5C19.3544 0.5 15.6662 2.02767 12.947 4.74695C10.2277 7.46623 8.7 11.1544 8.7 15V20.8C6.39262 20.8 4.17974 21.7166 2.54817 23.3482C0.916605 24.9797 0 27.1926 0 29.5V49.8C0 52.1074 0.916605 54.3203 2.54817 55.9518C4.17974 57.5834 6.39262 58.5 8.7 58.5H37.7C40.0074 58.5 42.2203 57.5834 43.8518 55.9518C45.4834 54.3203 46.4 52.1074 46.4 49.8V29.5C46.4 27.1926 45.4834 24.9797 43.8518 23.3482C42.2203 21.7166 40.0074 20.8 37.7 20.8ZM14.5 15C14.5 12.6926 15.4166 10.4797 17.0482 8.84817C18.6797 7.21661 20.8926 6.3 23.2 6.3C25.5074 6.3 27.7203 7.21661 29.3518 8.84817C30.9834 10.4797 31.9 12.6926 31.9 15V20.8H14.5V15ZM40.6 49.8C40.6 50.5691 40.2945 51.3068 39.7506 51.8506C39.2068 52.3945 38.4691 52.7 37.7 52.7H8.7C7.93087 52.7 7.19325 52.3945 6.64939 51.8506C6.10554 51.3068 5.8 50.5691 5.8 49.8V29.5C5.8 28.7309 6.10554 27.9932 6.64939 27.4494C7.19325 26.9055 7.93087 26.6 8.7 26.6H37.7C38.4691 26.6 39.2068 26.9055 39.7506 27.4494C40.2945 27.9932 40.6 28.7309 40.6 29.5V49.8Z" fill="#1385FF"/>
</svg>
